SplineFontDB: 3.2
FontName: PixelArial11BoldLatin
FullName: Pixel Arial 11 Bold Latin
FamilyName: Pixel Arial 11
Weight: Bold
Copyright: (c)2001 | Max Remix
Version: Macromedia Fontographer 4.1.4 8/9/01
ItalicAngle: 0
UnderlinePosition: -143
UnderlineWidth: 20
Ascent: 800
Descent: 200
InvalidEm: 0
sfntRevision: 0x00010000
LayerCount: 2
Layer: 0 1 "Back" 1
Layer: 1 1 "Fore" 0
XUID: [1021 845 363597000 26172]
StyleMap: 0x0020
FSType: 1
OS2Version: 0
OS2_WeightWidthSlopeOnly: 0
OS2_UseTypoMetrics: 0
CreationTime: 1116334680
ModificationTime: 1711133581
PfmFamily: 81
TTFWeight: 700
TTFWidth: 5
LineGap: 0
VLineGap: 0
Panose: 0 0 7 0 0 0 0 0 0 0
OS2TypoAscent: 1125
OS2TypoAOffset: 0
OS2TypoDescent: -250
OS2TypoDOffset: 0
OS2TypoLinegap: 0
OS2WinAscent: 1250
OS2WinAOffset: 0
OS2WinDescent: 250
OS2WinDOffset: 0
HheadAscent: 1125
HheadAOffset: 0
HheadDescent: -250
HheadDOffset: 0
OS2SubXSize: 700
OS2SubYSize: 650
OS2SubXOff: 0
OS2SubYOff: 143
OS2SupXSize: 700
OS2SupYSize: 650
OS2SupXOff: 0
OS2SupYOff: 453
OS2StrikeYSize: 50
OS2StrikeYPos: 259
OS2Vendor: 'Alts'
OS2UnicodeRanges: 00000000.00000000.00000000.00000000
MarkAttachClasses: 1
DEI: 91125
TtTable: prep
NPUSHB
 13
 9
 9
 8
 8
 7
 7
 6
 6
 1
 1
 0
 0
 1
SCANTYPE
PUSHW_1
 511
SCANCTRL
RCVT
ROUND[Grey]
WCVTP
RCVT
ROUND[Grey]
WCVTP
RCVT
ROUND[Grey]
WCVTP
RCVT
ROUND[Grey]
WCVTP
RCVT
ROUND[Grey]
WCVTP
RCVT
ROUND[Grey]
WCVTP
PUSHB_4
 3
 2
 70
 0
CALL
PUSHB_4
 5
 4
 70
 0
CALL
PUSHB_2
 2
 2
RCVT
ROUND[Grey]
WCVTP
PUSHB_2
 4
 4
RCVT
ROUND[Grey]
WCVTP
EndTTInstrs
TtTable: fpgm
NPUSHB
 1
 0
FDEF
SROUND
RCVT
DUP
PUSHB_1
 3
CINDEX
RCVT
SWAP
SUB
ROUND[Grey]
RTG
SWAP
ROUND[Grey]
ADD
WCVTP
ENDF
EndTTInstrs
ShortTable: cvt  18
  0
  1000
  125
  250
  125
  250
  375
  500
  375
  500
  23178
  23178
  23178
  23178
  23178
  23178
  6
  8
EndShort
ShortTable: maxp 16
  1
  0
  262
  72
  8
  0
  0
  2
  8
  64
  10
  0
  203
  313
  1
  1
EndShort

StartChar: uni0000
Encoding: 263 0 0
Width: 500
GlyphClass: 1
Flags: W
LayerCount: 2
Fore
SplineSet
63 0 m 1,0,-1
 63 1125 l 1,1,-1
 438 1125 l 1,2,-1
 438 0 l 1,3,-1
 63 0 l 1,0,-1
125 63 m 1,4,-1
 375 63 l 1,5,-1
 375 1063 l 1,6,-1
 125 1063 l 1,7,-1
 125 63 l 1,4,-1
EndSplineSet
Validated: 1
EndChar

StartChar: exclam
Encoding: 1 33 4
Width: 375
GlyphClass: 1
Flags: W
LayerCount: 2
Fore
SplineSet
250 1000 m 1,0,-1
 250 250 l 1,1,-1
 0 250 l 1,2,-1
 0 1000 l 1,3,-1
 250 1000 l 1,0,-1
250 125 m 1,4,-1
 250 0 l 1,5,-1
 0 0 l 1,6,-1
 0 125 l 1,7,-1
 250 125 l 1,4,-1
EndSplineSet
Validated: 1
EndChar

StartChar: quotedbl
Encoding: 2 34 5
Width: 625
GlyphClass: 1
Flags: W
LayerCount: 2
Fore
SplineSet
500 1000 m 1,0,-1
 500 625 l 1,1,-1
 0 625 l 1,2,-1
 0 1000 l 1,3,-1
 500 1000 l 1,0,-1
EndSplineSet
Validated: 1
EndChar

StartChar: numbersign
Encoding: 3 35 6
Width: 875
GlyphClass: 1
Flags: W
LayerCount: 2
Fore
SplineSet
625 375 m 1,0,-1
 750 375 l 1,1,-1
 750 250 l 1,2,-1
 500 250 l 1,3,-1
 500 0 l 1,4,-1
 0 0 l 1,5,-1
 0 375 l 1,6,-1
 125 375 l 1,7,-1
 125 625 l 1,8,-1
 0 625 l 1,9,-1
 0 750 l 1,10,-1
 250 750 l 1,11,-1
 250 1000 l 1,12,-1
 750 1000 l 1,13,-1
 750 625 l 1,14,-1
 625 625 l 1,15,-1
 625 375 l 1,0,-1
EndSplineSet
Validated: 1
EndChar

StartChar: dollar
Encoding: 4 36 7
Width: 875
GlyphClass: 1
Flags: W
LayerCount: 2
Fore
SplineSet
500 750 m 1,0,-1
 500 625 l 1,1,-1
 625 625 l 1,2,-1
 625 500 l 1,3,-1
 750 500 l 1,4,-1
 750 125 l 1,5,-1
 625 125 l 1,6,-1
 625 0 l 1,7,-1
 500 0 l 1,8,-1
 500 -125 l 1,9,-1
 250 -125 l 1,10,-1
 250 0 l 1,11,-1
 125 0 l 1,12,-1
 125 125 l 1,13,-1
 0 125 l 1,14,-1
 0 250 l 1,15,-1
 250 250 l 1,16,-1
 250 500 l 1,17,-1
 125 500 l 1,18,-1
 125 625 l 1,19,-1
 0 625 l 1,20,-1
 0 875 l 1,21,-1
 125 875 l 1,22,-1
 125 1000 l 1,23,-1
 625 1000 l 1,24,-1
 625 875 l 1,25,-1
 750 875 l 1,26,-1
 750 750 l 1,27,-1
 500 750 l 1,0,-1
EndSplineSet
Validated: 1
EndChar

StartChar: percent
Encoding: 5 37 8
Width: 1375
GlyphClass: 1
Flags: W
LayerCount: 2
Fore
SplineSet
370 875 m 1,0,-1
 255 875 l 1,1,-1
 255 625 l 1,2,-1
 370 625 l 1,3,-1
 370 875 l 1,0,-1
995 375 m 1,4,-1
 880 375 l 1,5,-1
 880 125 l 1,6,-1
 995 125 l 1,7,-1
 995 375 l 1,4,-1
1125 500 m 1,8,-1
 1125 375 l 1,9,-1
 1250 375 l 1,10,-1
 1250 125 l 1,11,-1
 1125 125 l 1,12,-1
 1125 0 l 1,13,-1
 750 0 l 1,14,-1
 750 125 l 1,15,-1
 500 125 l 1,16,-1
 500 0 l 1,17,-1
 250 0 l 1,18,-1
 250 125 l 1,19,-1
 375 125 l 1,20,-1
 375 375 l 1,21,-1
 500 375 l 1,22,-1
 500 500 l 1,23,-1
 125 500 l 1,24,-1
 125 625 l 1,25,-1
 0 625 l 1,26,-1
 0 875 l 1,27,-1
 125 875 l 1,28,-1
 125 1000 l 1,29,-1
 500 1000 l 1,30,-1
 500 875 l 1,31,-1
 750 875 l 1,32,-1
 750 1000 l 1,33,-1
 1000 1000 l 1,34,-1
 1000 875 l 1,35,-1
 875 875 l 1,36,-1
 875 625 l 1,37,-1
 750 625 l 1,38,-1
 750 500 l 1,39,-1
 1125 500 l 1,8,-1
EndSplineSet
Validated: 1
EndChar

StartChar: ampersand
Encoding: 6 38 9
Width: 1000
GlyphClass: 1
Flags: W
LayerCount: 2
Fore
SplineSet
250 370 m 1,0,-1
 250 130 l 1,1,-1
 500 130 l 1,2,-1
 500 370 l 1,3,-1
 250 370 l 1,0,-1
375 870 m 1,4,-1
 375 630 l 1,5,-1
 500 630 l 1,6,-1
 500 870 l 1,7,-1
 375 870 l 1,4,-1
625 1000 m 1,8,-1
 625 875 l 1,9,-1
 750 875 l 1,10,-1
 750 625 l 1,11,-1
 625 625 l 1,12,-1
 625 375 l 1,13,-1
 875 375 l 1,14,-1
 875 250 l 1,15,-1
 750 250 l 1,16,-1
 750 125 l 1,17,-1
 875 125 l 1,18,-1
 875 0 l 1,19,-1
 125 0 l 1,20,-1
 125 125 l 1,21,-1
 0 125 l 1,22,-1
 0 375 l 1,23,-1
 125 375 l 1,24,-1
 125 500 l 1,25,-1
 250 500 l 1,26,-1
 250 625 l 1,27,-1
 125 625 l 1,28,-1
 125 875 l 1,29,-1
 250 875 l 1,30,-1
 250 1000 l 1,31,-1
 625 1000 l 1,8,-1
EndSplineSet
Validated: 1
EndChar

StartChar: quotesingle
Encoding: 7 39 10
Width: 375
GlyphClass: 1
Flags: W
LayerCount: 2
Fore
SplineSet
250 1000 m 1,0,-1
 250 625 l 1,1,-1
 0 625 l 1,2,-1
 0 1000 l 1,3,-1
 250 1000 l 1,0,-1
EndSplineSet
Validated: 1
EndChar

StartChar: parenleft
Encoding: 8 40 11
Width: 625
GlyphClass: 1
Flags: W
LayerCount: 2
Fore
SplineSet
375 -125 m 1,0,-1
 500 -125 l 1,1,-1
 500 -250 l 1,2,-1
 250 -250 l 1,3,-1
 250 -125 l 1,4,-1
 125 -125 l 1,5,-1
 125 0 l 1,6,-1
 0 0 l 1,7,-1
 0 750 l 1,8,-1
 125 750 l 1,9,-1
 125 875 l 1,10,-1
 250 875 l 1,11,-1
 250 1000 l 1,12,-1
 500 1000 l 1,13,-1
 500 875 l 1,14,-1
 375 875 l 1,15,-1
 375 750 l 1,16,-1
 250 750 l 1,17,-1
 250 0 l 1,18,-1
 375 0 l 1,19,-1
 375 -125 l 1,0,-1
EndSplineSet
Validated: 1
EndChar

StartChar: parenright
Encoding: 9 41 12
Width: 625
GlyphClass: 1
Flags: W
LayerCount: 2
Fore
SplineSet
250 1000 m 1,0,-1
 250 875 l 1,1,-1
 375 875 l 1,2,-1
 375 750 l 1,3,-1
 500 750 l 1,4,-1
 500 0 l 1,5,-1
 375 0 l 1,6,-1
 375 -125 l 1,7,-1
 250 -125 l 1,8,-1
 250 -250 l 1,9,-1
 0 -250 l 1,10,-1
 0 -125 l 1,11,-1
 125 -125 l 1,12,-1
 125 0 l 1,13,-1
 250 0 l 1,14,-1
 250 750 l 1,15,-1
 125 750 l 1,16,-1
 125 875 l 1,17,-1
 0 875 l 1,18,-1
 0 1000 l 1,19,-1
 250 1000 l 1,0,-1
EndSplineSet
Validated: 1
EndChar

StartChar: asterisk
Encoding: 10 42 13
Width: 625
GlyphClass: 1
Flags: W
LayerCount: 2
Fore
SplineSet
375 625 m 1,0,-1
 500 625 l 1,1,-1
 500 500 l 1,2,-1
 0 500 l 1,3,-1
 0 625 l 1,4,-1
 125 625 l 1,5,-1
 125 750 l 1,6,-1
 0 750 l 1,7,-1
 0 875 l 1,8,-1
 125 875 l 1,9,-1
 125 1000 l 1,10,-1
 375 1000 l 1,11,-1
 375 875 l 1,12,-1
 500 875 l 1,13,-1
 500 750 l 1,14,-1
 375 750 l 1,15,-1
 375 625 l 1,0,-1
EndSplineSet
Validated: 1
EndChar

StartChar: plus
Encoding: 11 43 14
Width: 875
GlyphClass: 1
Flags: W
LayerCount: 2
Fore
SplineSet
500 375 m 1,0,-1
 500 125 l 1,1,-1
 250 125 l 1,2,-1
 250 375 l 1,3,-1
 0 375 l 1,4,-1
 0 500 l 1,5,-1
 250 500 l 1,6,-1
 250 750 l 1,7,-1
 500 750 l 1,8,-1
 500 500 l 1,9,-1
 750 500 l 1,10,-1
 750 375 l 1,11,-1
 500 375 l 1,0,-1
EndSplineSet
Validated: 1
EndChar

StartChar: comma
Encoding: 12 44 15
Width: 375
GlyphClass: 1
Flags: W
LayerCount: 2
Fore
SplineSet
250 125 m 1,0,-1
 250 -250 l 1,1,-1
 0 -250 l 1,2,-1
 0 125 l 1,3,-1
 250 125 l 1,0,-1
EndSplineSet
Validated: 1
EndChar

StartChar: hyphen
Encoding: 13 45 16
AltUni2: 002010.ffffffff.0 002010.ffffffff.0
Width: 625
GlyphClass: 1
Flags: W
LayerCount: 2
Fore
SplineSet
500 375 m 1,0,-1
 500 250 l 1,1,-1
 0 250 l 1,2,-1
 0 375 l 1,3,-1
 500 375 l 1,0,-1
EndSplineSet
Validated: 1
EndChar

StartChar: period
Encoding: 14 46 17
Width: 375
GlyphClass: 1
Flags: W
LayerCount: 2
Fore
SplineSet
250 125 m 1,0,-1
 250 0 l 1,1,-1
 0 0 l 1,2,-1
 0 125 l 1,3,-1
 250 125 l 1,0,-1
EndSplineSet
Validated: 1
EndChar

StartChar: slash
Encoding: 15 47 18
Width: 625
GlyphClass: 1
Flags: W
LayerCount: 2
Fore
SplineSet
500 1000 m 1,0,-1
 500 750 l 1,1,-1
 375 750 l 1,2,-1
 375 250 l 1,3,-1
 250 250 l 1,4,-1
 250 0 l 1,5,-1
 0 0 l 1,6,-1
 0 250 l 1,7,-1
 125 250 l 1,8,-1
 125 750 l 1,9,-1
 250 750 l 1,10,-1
 250 1000 l 1,11,-1
 500 1000 l 1,0,-1
EndSplineSet
EndChar

StartChar: zero
Encoding: 16 48 19
Width: 875
GlyphClass: 1
Flags: W
LayerCount: 2
Fore
SplineSet
495 875 m 1,0,-1
 255 875 l 1,1,-1
 255 125 l 1,2,-1
 495 125 l 1,3,-1
 495 875 l 1,0,-1
625 1000 m 1,4,-1
 625 875 l 1,5,-1
 750 875 l 1,6,-1
 750 125 l 1,7,-1
 625 125 l 1,8,-1
 625 0 l 1,9,-1
 125 0 l 1,10,-1
 125 125 l 1,11,-1
 0 125 l 1,12,-1
 0 875 l 1,13,-1
 125 875 l 1,14,-1
 125 1000 l 1,15,-1
 625 1000 l 1,4,-1
EndSplineSet
Validated: 1
EndChar

StartChar: one
Encoding: 17 49 20
Width: 750
GlyphClass: 1
Flags: W
LayerCount: 2
Fore
SplineSet
500 1000 m 1,0,-1
 500 0 l 1,1,-1
 250 0 l 1,2,-1
 250 625 l 1,3,-1
 0 625 l 1,4,-1
 0 750 l 1,5,-1
 125 750 l 1,6,-1
 125 875 l 1,7,-1
 250 875 l 1,8,-1
 250 1000 l 1,9,-1
 500 1000 l 1,0,-1
EndSplineSet
Validated: 1
EndChar

StartChar: two
Encoding: 18 50 21
Width: 875
GlyphClass: 1
Flags: W
LayerCount: 2
Fore
SplineSet
250 875 m 1,0,-1
 250 750 l 1,1,-1
 0 750 l 1,2,-1
 0 875 l 1,3,-1
 125 875 l 1,4,-1
 125 1000 l 1,5,-1
 625 1000 l 1,6,-1
 625 875 l 1,7,-1
 750 875 l 1,8,-1
 750 500 l 1,9,-1
 625 500 l 1,10,-1
 625 375 l 1,11,-1
 500 375 l 1,12,-1
 500 250 l 1,13,-1
 375 250 l 1,14,-1
 375 125 l 1,15,-1
 750 125 l 1,16,-1
 750 0 l 1,17,-1
 0 0 l 1,18,-1
 0 125 l 1,19,-1
 125 125 l 1,20,-1
 125 250 l 1,21,-1
 250 250 l 1,22,-1
 250 375 l 1,23,-1
 375 375 l 1,24,-1
 375 500 l 1,25,-1
 500 500 l 1,26,-1
 500 875 l 1,27,-1
 250 875 l 1,0,-1
EndSplineSet
Validated: 1
EndChar

StartChar: three
Encoding: 19 51 22
Width: 875
GlyphClass: 1
Flags: W
LayerCount: 2
Fore
SplineSet
250 250 m 1,0,-1
 250 125 l 1,1,-1
 500 125 l 1,2,-1
 500 500 l 1,3,-1
 125 500 l 1,4,-1
 125 625 l 1,5,-1
 500 625 l 1,6,-1
 500 875 l 1,7,-1
 250 875 l 1,8,-1
 250 750 l 1,9,-1
 0 750 l 1,10,-1
 0 875 l 1,11,-1
 125 875 l 1,12,-1
 125 1000 l 1,13,-1
 625 1000 l 1,14,-1
 625 875 l 1,15,-1
 750 875 l 1,16,-1
 750 625 l 1,17,-1
 625 625 l 1,18,-1
 625 500 l 1,19,-1
 750 500 l 1,20,-1
 750 125 l 1,21,-1
 625 125 l 1,22,-1
 625 0 l 1,23,-1
 125 0 l 1,24,-1
 125 125 l 1,25,-1
 0 125 l 1,26,-1
 0 250 l 1,27,-1
 250 250 l 1,0,-1
EndSplineSet
Validated: 1
EndChar

StartChar: four
Encoding: 20 52 23
Width: 875
GlyphClass: 1
Flags: W
LayerCount: 2
Fore
SplineSet
375 500 m 1,0,-1
 255 500 l 1,1,-1
 255 375 l 1,2,-1
 375 375 l 1,3,-1
 375 500 l 1,0,-1
625 1000 m 1,4,-1
 625 375 l 1,5,-1
 750 375 l 1,6,-1
 750 250 l 1,7,-1
 625 250 l 1,8,-1
 625 0 l 1,9,-1
 375 0 l 1,10,-1
 375 250 l 1,11,-1
 0 250 l 1,12,-1
 0 500 l 1,13,-1
 125 500 l 1,14,-1
 125 750 l 1,15,-1
 250 750 l 1,16,-1
 250 875 l 1,17,-1
 375 875 l 1,18,-1
 375 1000 l 1,19,-1
 625 1000 l 1,4,-1
EndSplineSet
Validated: 1
EndChar

StartChar: five
Encoding: 21 53 24
Width: 875
GlyphClass: 1
Flags: W
LayerCount: 2
Fore
SplineSet
750 1000 m 1,0,-1
 750 875 l 1,1,-1
 375 875 l 1,2,-1
 375 750 l 1,3,-1
 250 750 l 1,4,-1
 250 625 l 1,5,-1
 625 625 l 1,6,-1
 625 500 l 1,7,-1
 750 500 l 1,8,-1
 750 125 l 1,9,-1
 625 125 l 1,10,-1
 625 0 l 1,11,-1
 125 0 l 1,12,-1
 125 125 l 1,13,-1
 0 125 l 1,14,-1
 0 250 l 1,15,-1
 250 250 l 1,16,-1
 250 125 l 1,17,-1
 500 125 l 1,18,-1
 500 500 l 1,19,-1
 0 500 l 1,20,-1
 0 750 l 1,21,-1
 125 750 l 1,22,-1
 125 1000 l 1,23,-1
 750 1000 l 1,0,-1
EndSplineSet
Validated: 1
EndChar

StartChar: six
Encoding: 22 54 25
Width: 875
GlyphClass: 1
Flags: W
LayerCount: 2
Fore
SplineSet
500 500 m 1,0,-1
 250 500 l 1,1,-1
 250 125 l 1,2,-1
 500 125 l 1,3,-1
 500 500 l 1,0,-1
250 625 m 1,4,-1
 630 625 l 1,5,-1
 630 500 l 1,6,-1
 750 500 l 1,7,-1
 750 125 l 1,8,-1
 630 125 l 1,9,-1
 630 0 l 1,10,-1
 120 0 l 1,11,-1
 120 125 l 1,12,-1
 0 125 l 1,13,-1
 0 875 l 1,14,-1
 125 875 l 1,15,-1
 125 1000 l 1,16,-1
 625 1000 l 1,17,-1
 625 875 l 1,18,-1
 750 875 l 1,19,-1
 750 750 l 1,20,-1
 500 750 l 1,21,-1
 500 875 l 1,22,-1
 250 875 l 1,23,-1
 250 625 l 1,4,-1
EndSplineSet
Validated: 1
EndChar

StartChar: seven
Encoding: 23 55 26
Width: 875
GlyphClass: 1
Flags: W
LayerCount: 2
Fore
SplineSet
375 375 m 1,0,-1
 375 0 l 1,1,-1
 125 0 l 1,2,-1
 125 375 l 1,3,-1
 250 375 l 1,4,-1
 250 625 l 1,5,-1
 375 625 l 1,6,-1
 375 875 l 1,7,-1
 0 875 l 1,8,-1
 0 1000 l 1,9,-1
 750 1000 l 1,10,-1
 750 875 l 1,11,-1
 625 875 l 1,12,-1
 625 625 l 1,13,-1
 500 625 l 1,14,-1
 500 375 l 1,15,-1
 375 375 l 1,0,-1
EndSplineSet
Validated: 1
EndChar

StartChar: eight
Encoding: 24 56 27
Width: 875
GlyphClass: 1
Flags: W
LayerCount: 2
Fore
SplineSet
250 630 m 1,0,-1
 500 630 l 1,1,-1
 500 870 l 1,2,-1
 250 870 l 1,3,-1
 250 630 l 1,0,-1
250 495 m 1,4,-1
 250 130 l 1,5,-1
 500 130 l 1,6,-1
 500 495 l 1,7,-1
 250 495 l 1,4,-1
625 500 m 1,8,-1
 750 500 l 1,9,-1
 750 125 l 1,10,-1
 625 125 l 1,11,-1
 625 0 l 1,12,-1
 125 0 l 1,13,-1
 125 125 l 1,14,-1
 0 125 l 1,15,-1
 0 500 l 1,16,-1
 125 500 l 1,17,-1
 125 625 l 1,18,-1
 0 625 l 1,19,-1
 0 875 l 1,20,-1
 125 875 l 1,21,-1
 125 1000 l 1,22,-1
 625 1000 l 1,23,-1
 625 875 l 1,24,-1
 750 875 l 1,25,-1
 750 625 l 1,26,-1
 625 625 l 1,27,-1
 625 500 l 1,8,-1
EndSplineSet
Validated: 1
EndChar

StartChar: nine
Encoding: 25 57 28
Width: 875
GlyphClass: 1
Flags: W
LayerCount: 2
Fore
SplineSet
250 505 m 1,0,-1
 500 505 l 1,1,-1
 500 870 l 1,2,-1
 250 870 l 1,3,-1
 250 505 l 1,0,-1
250 250 m 1,4,-1
 250 130 l 1,5,-1
 500 130 l 1,6,-1
 500 370 l 1,7,-1
 125 370 l 1,8,-1
 125 500 l 1,9,-1
 0 500 l 1,10,-1
 0 875 l 1,11,-1
 125 875 l 1,12,-1
 125 1000 l 1,13,-1
 625 1000 l 1,14,-1
 625 875 l 1,15,-1
 750 875 l 1,16,-1
 750 125 l 1,17,-1
 625 125 l 1,18,-1
 625 0 l 1,19,-1
 125 0 l 1,20,-1
 125 125 l 1,21,-1
 0 125 l 1,22,-1
 0 250 l 1,23,-1
 250 250 l 1,4,-1
EndSplineSet
Validated: 1
EndChar

StartChar: colon
Encoding: 26 58 29
Width: 375
GlyphClass: 1
Flags: W
LayerCount: 2
Fore
SplineSet
250 750 m 1,0,-1
 250 625 l 1,1,-1
 0 625 l 1,2,-1
 0 750 l 1,3,-1
 250 750 l 1,0,-1
250 125 m 1,4,-1
 250 0 l 1,5,-1
 0 0 l 1,6,-1
 0 125 l 1,7,-1
 250 125 l 1,4,-1
EndSplineSet
Validated: 1
EndChar

StartChar: semicolon
Encoding: 27 59 30
Width: 375
GlyphClass: 1
Flags: W
LayerCount: 2
Fore
SplineSet
250 750 m 1,0,-1
 250 625 l 1,1,-1
 0 625 l 1,2,-1
 0 750 l 1,3,-1
 250 750 l 1,0,-1
250 125 m 1,4,-1
 250 -250 l 1,5,-1
 0 -250 l 1,6,-1
 0 125 l 1,7,-1
 250 125 l 1,4,-1
EndSplineSet
Validated: 1
EndChar

StartChar: less
Encoding: 28 60 31
Width: 875
GlyphClass: 1
Flags: W
LayerCount: 2
Fore
SplineSet
750 750 m 1,0,-1
 750 625 l 1,1,-1
 625 625 l 1,2,-1
 625 500 l 1,3,-1
 250 500 l 1,4,-1
 250 375 l 1,5,-1
 625 375 l 1,6,-1
 625 250 l 1,7,-1
 750 250 l 1,8,-1
 750 125 l 1,9,-1
 500 125 l 1,10,-1
 500 250 l 1,11,-1
 125 250 l 1,12,-1
 125 375 l 1,13,-1
 0 375 l 1,14,-1
 0 500 l 1,15,-1
 125 500 l 1,16,-1
 125 625 l 1,17,-1
 500 625 l 1,18,-1
 500 750 l 1,19,-1
 750 750 l 1,0,-1
EndSplineSet
Validated: 1
EndChar

StartChar: equal
Encoding: 29 61 32
Width: 875
GlyphClass: 1
Flags: W
LayerCount: 2
Fore
SplineSet
750 625 m 1,0,-1
 750 500 l 1,1,-1
 0 500 l 1,2,-1
 0 625 l 1,3,-1
 750 625 l 1,0,-1
750 375 m 1,4,-1
 750 250 l 1,5,-1
 0 250 l 1,6,-1
 0 375 l 1,7,-1
 750 375 l 1,4,-1
EndSplineSet
Validated: 1
EndChar

StartChar: greater
Encoding: 30 62 33
Width: 875
GlyphClass: 1
Flags: W
LayerCount: 2
Fore
SplineSet
250 750 m 1,0,-1
 250 625 l 1,1,-1
 625 625 l 1,2,-1
 625 500 l 1,3,-1
 750 500 l 1,4,-1
 750 375 l 1,5,-1
 625 375 l 1,6,-1
 625 250 l 1,7,-1
 250 250 l 1,8,-1
 250 125 l 1,9,-1
 0 125 l 1,10,-1
 0 250 l 1,11,-1
 125 250 l 1,12,-1
 125 375 l 1,13,-1
 500 375 l 1,14,-1
 500 500 l 1,15,-1
 125 500 l 1,16,-1
 125 625 l 1,17,-1
 0 625 l 1,18,-1
 0 750 l 1,19,-1
 250 750 l 1,0,-1
EndSplineSet
Validated: 1
EndChar

StartChar: question
Encoding: 31 63 34
Width: 875
GlyphClass: 1
Flags: W
LayerCount: 2
Fore
SplineSet
500 875 m 1,0,-1
 250 875 l 1,1,-1
 250 750 l 1,2,-1
 0 750 l 1,3,-1
 0 875 l 1,4,-1
 125 875 l 1,5,-1
 125 1000 l 1,6,-1
 625 1000 l 1,7,-1
 625 875 l 1,8,-1
 750 875 l 1,9,-1
 750 625 l 1,10,-1
 625 625 l 1,11,-1
 625 500 l 1,12,-1
 500 500 l 1,13,-1
 500 250 l 1,14,-1
 250 250 l 1,15,-1
 250 500 l 1,16,-1
 375 500 l 1,17,-1
 375 625 l 1,18,-1
 500 625 l 1,19,-1
 500 875 l 1,0,-1
500 125 m 1,20,-1
 500 0 l 1,21,-1
 250 0 l 1,22,-1
 250 125 l 1,23,-1
 500 125 l 1,20,-1
EndSplineSet
Validated: 1
EndChar

StartChar: at
Encoding: 32 64 35
Width: 1500
GlyphClass: 1
Flags: W
LayerCount: 2
Fore
SplineSet
745 625 m 1,0,-1
 630 625 l 1,1,-1
 630 500 l 1,2,-1
 505 500 l 1,3,-1
 505 125 l 1,4,-1
 620 125 l 1,5,-1
 620 250 l 1,6,-1
 745 250 l 1,7,-1
 745 625 l 1,0,-1
1120 500 m 1,8,-1
 1000 500 l 1,9,-1
 1000 250 l 1,10,-1
 1120 250 l 1,11,-1
 1120 500 l 1,8,-1
250 0 m 1,12,-1
 375 0 l 1,13,-1
 375 125 l 1,14,-1
 250 125 l 1,15,-1
 250 0 l 1,12,-1
1125 0 m 1,16,-1
 375 0 l 1,17,-1
 375 -125 l 1,18,-1
 1125 -125 l 1,19,-1
 1125 0 l 1,16,-1
1000 875 m 1,20,-1
 500 875 l 1,21,-1
 500 750 l 1,22,-1
 375 750 l 1,23,-1
 375 625 l 1,24,-1
 250 625 l 1,25,-1
 250 500 l 1,26,-1
 375 500 l 1,27,-1
 375 625 l 1,28,-1
 500 625 l 1,29,-1
 500 750 l 1,30,-1
 1000 750 l 1,31,-1
 1000 875 l 1,20,-1
1125 1000 m 1,32,-1
 1125 875 l 1,33,-1
 1250 875 l 1,34,-1
 1250 750 l 1,35,-1
 1375 750 l 1,36,-1
 1375 250 l 1,37,-1
 1250 250 l 1,38,-1
 1250 125 l 1,39,-1
 1125 125 l 1,40,-1
 1125 0 l 1,41,-1
 1375 0 l 1,42,-1
 1375 -125 l 1,43,-1
 1250 -125 l 1,44,-1
 1250 -250 l 1,45,-1
 250 -250 l 1,46,-1
 250 -125 l 1,47,-1
 125 -125 l 1,48,-1
 125 0 l 1,49,-1
 0 0 l 1,50,-1
 0 625 l 1,51,-1
 125 625 l 1,52,-1
 125 875 l 1,53,-1
 375 875 l 1,54,-1
 375 1000 l 1,55,-1
 1125 1000 l 1,32,-1
250 -125 m 1,56,-1
 250 -250 l 1,57,-1
 250 -125 l 1,56,-1
375 -125 m 1,58,-1
 375 -250 l 1,59,-1
 375 -125 l 1,58,-1
EndSplineSet
Validated: 5
EndChar

StartChar: A
Encoding: 33 65 36
Width: 1125
GlyphClass: 1
Flags: W
LayerCount: 2
Fore
SplineSet
750 250 m 5,0,-1
 250 250 l 5,1,-1
 250 0 l 5,2,-1
 0 0 l 5,3,-1
 0 250 l 5,4,-1
 125 250 l 5,5,-1
 125 500 l 5,6,-1
 250 500 l 5,7,-1
 250 875 l 5,8,-1
 375 875 l 5,9,-1
 375 1000 l 5,10,-1
 625 1000 l 5,11,-1
 625 875 l 5,12,-1
 750 875 l 5,13,-1
 750 500 l 5,14,-1
 875 500 l 5,15,-1
 875 250 l 5,16,-1
 1000 250 l 5,17,-1
 1000 0 l 5,18,-1
 750 0 l 5,19,-1
 750 250 l 5,0,-1
380 375 m 5,20,-1
 620 375 l 5,21,-1
 620 500 l 5,22,-1
 380 500 l 5,23,-1
 380 375 l 5,20,-1
EndSplineSet
Validated: 1
EndChar

StartChar: B
Encoding: 34 66 37
Width: 1000
GlyphClass: 1
Flags: W
LayerCount: 2
Fore
SplineSet
750 125 m 1,0,-1
 750 0 l 1,1,-1
 0 0 l 1,2,-1
 0 1000 l 1,3,-1
 750 1000 l 1,4,-1
 750 875 l 1,5,-1
 875 875 l 1,6,-1
 875 125 l 1,7,-1
 750 125 l 1,0,-1
620 500 m 1,8,-1
 250 500 l 1,9,-1
 250 125 l 1,10,-1
 620 125 l 1,11,-1
 620 500 l 1,8,-1
250 625 m 1,12,-1
 620 625 l 1,13,-1
 620 875 l 1,14,-1
 250 875 l 1,15,-1
 250 625 l 1,12,-1
EndSplineSet
Validated: 1
EndChar

StartChar: C
Encoding: 35 67 38
Width: 1000
GlyphClass: 1
Flags: W
LayerCount: 2
Fore
SplineSet
875 250 m 1,0,-1
 875 125 l 1,1,-1
 750 125 l 1,2,-1
 750 0 l 1,3,-1
 250 0 l 1,4,-1
 250 125 l 1,5,-1
 125 125 l 1,6,-1
 125 250 l 1,7,-1
 0 250 l 1,8,-1
 0 750 l 1,9,-1
 125 750 l 1,10,-1
 125 875 l 1,11,-1
 250 875 l 1,12,-1
 250 1000 l 1,13,-1
 750 1000 l 1,14,-1
 750 875 l 1,15,-1
 875 875 l 1,16,-1
 875 750 l 1,17,-1
 625 750 l 1,18,-1
 625 875 l 1,19,-1
 375 875 l 1,20,-1
 375 750 l 1,21,-1
 250 750 l 1,22,-1
 250 250 l 1,23,-1
 375 250 l 1,24,-1
 375 125 l 1,25,-1
 625 125 l 1,26,-1
 625 250 l 1,27,-1
 875 250 l 1,0,-1
EndSplineSet
Validated: 1
EndChar

StartChar: D
Encoding: 36 68 39
Width: 1000
GlyphClass: 1
Flags: W
LayerCount: 2
Fore
SplineSet
625 125 m 1,0,-1
 625 0 l 1,1,-1
 0 0 l 1,2,-1
 0 1000 l 1,3,-1
 625 1000 l 1,4,-1
 625 875 l 1,5,-1
 750 875 l 1,6,-1
 750 750 l 1,7,-1
 875 750 l 1,8,-1
 875 250 l 1,9,-1
 750 250 l 1,10,-1
 750 125 l 1,11,-1
 625 125 l 1,0,-1
250 125 m 1,12,-1
 495 125 l 1,13,-1
 495 250 l 1,14,-1
 620 250 l 1,15,-1
 620 750 l 1,16,-1
 495 750 l 1,17,-1
 495 875 l 1,18,-1
 250 875 l 1,19,-1
 250 125 l 1,12,-1
EndSplineSet
Validated: 1
EndChar

StartChar: E
Encoding: 37 69 40
Width: 875
GlyphClass: 1
Flags: W
LayerCount: 2
Fore
SplineSet
250 625 m 1,0,-1
 750 625 l 1,1,-1
 750 500 l 1,2,-1
 250 500 l 1,3,-1
 250 125 l 1,4,-1
 750 125 l 1,5,-1
 750 0 l 1,6,-1
 0 0 l 1,7,-1
 0 1000 l 1,8,-1
 750 1000 l 1,9,-1
 750 875 l 1,10,-1
 250 875 l 1,11,-1
 250 625 l 1,0,-1
EndSplineSet
Validated: 1
EndChar

StartChar: F
Encoding: 38 70 41
Width: 875
GlyphClass: 1
Flags: W
LayerCount: 2
Fore
SplineSet
250 625 m 1,0,-1
 625 625 l 1,1,-1
 625 500 l 1,2,-1
 250 500 l 1,3,-1
 250 0 l 1,4,-1
 0 0 l 1,5,-1
 0 1000 l 1,6,-1
 750 1000 l 1,7,-1
 750 875 l 1,8,-1
 250 875 l 1,9,-1
 250 625 l 1,0,-1
500 625 m 1,10,-1
 500 500 l 1,11,-1
 500 625 l 1,10,-1
625 625 m 1,12,-1
 625 500 l 1,13,-1
 625 625 l 1,12,-1
EndSplineSet
Validated: 5
EndChar

StartChar: G
Encoding: 39 71 42
Width: 1125
GlyphClass: 1
Flags: W
LayerCount: 2
Fore
SplineSet
1000 500 m 1,0,-1
 1000 250 l 1,1,-1
 875 250 l 1,2,-1
 875 125 l 1,3,-1
 750 125 l 1,4,-1
 750 0 l 1,5,-1
 250 0 l 1,6,-1
 250 125 l 1,7,-1
 125 125 l 1,8,-1
 125 250 l 1,9,-1
 0 250 l 1,10,-1
 0 750 l 1,11,-1
 125 750 l 1,12,-1
 125 875 l 1,13,-1
 250 875 l 1,14,-1
 250 1000 l 1,15,-1
 750 1000 l 1,16,-1
 750 875 l 1,17,-1
 875 875 l 1,18,-1
 875 750 l 1,19,-1
 1000 750 l 1,20,-1
 1000 625 l 1,21,-1
 750 625 l 1,22,-1
 750 750 l 1,23,-1
 625 750 l 1,24,-1
 625 875 l 1,25,-1
 375 875 l 1,26,-1
 375 750 l 1,27,-1
 250 750 l 1,28,-1
 250 250 l 1,29,-1
 375 250 l 1,30,-1
 375 125 l 1,31,-1
 625 125 l 1,32,-1
 625 250 l 1,33,-1
 750 250 l 1,34,-1
 750 375 l 1,35,-1
 500 375 l 1,36,-1
 500 500 l 1,37,-1
 1000 500 l 1,0,-1
EndSplineSet
Validated: 1
EndChar

StartChar: H
Encoding: 40 72 43
Width: 1000
GlyphClass: 1
Flags: W
LayerCount: 2
Fore
SplineSet
875 1000 m 1,0,-1
 875 0 l 1,1,-1
 625 0 l 1,2,-1
 625 500 l 1,3,-1
 250 500 l 1,4,-1
 250 0 l 1,5,-1
 0 0 l 1,6,-1
 0 1000 l 1,7,-1
 250 1000 l 1,8,-1
 250 625 l 1,9,-1
 625 625 l 1,10,-1
 625 1000 l 1,11,-1
 875 1000 l 1,0,-1
EndSplineSet
Validated: 1
EndChar

StartChar: I
Encoding: 41 73 44
Width: 375
GlyphClass: 1
Flags: W
LayerCount: 2
Fore
SplineSet
250 1000 m 1,0,-1
 250 0 l 1,1,-1
 0 0 l 1,2,-1
 0 1000 l 1,3,-1
 250 1000 l 1,0,-1
EndSplineSet
Validated: 1
EndChar

StartChar: J
Encoding: 42 74 45
Width: 750
GlyphClass: 1
Flags: W
LayerCount: 2
Fore
SplineSet
625 1000 m 1,0,-1
 625 125 l 1,1,-1
 500 125 l 1,2,-1
 500 0 l 1,3,-1
 125 0 l 1,4,-1
 125 125 l 1,5,-1
 0 125 l 1,6,-1
 0 375 l 1,7,-1
 250 375 l 1,8,-1
 250 125 l 1,9,-1
 375 125 l 1,10,-1
 375 1000 l 1,11,-1
 625 1000 l 1,0,-1
EndSplineSet
Validated: 1
EndChar

StartChar: K
Encoding: 43 75 46
Width: 1000
GlyphClass: 1
Flags: W
LayerCount: 2
Fore
SplineSet
750 125 m 1,0,-1
 875 125 l 1,1,-1
 875 0 l 1,2,-1
 625 0 l 1,3,-1
 625 125 l 1,4,-1
 500 125 l 1,5,-1
 500 375 l 1,6,-1
 250 375 l 1,7,-1
 250 0 l 1,8,-1
 0 0 l 1,9,-1
 0 1000 l 1,10,-1
 250 1000 l 1,11,-1
 250 625 l 1,12,-1
 375 625 l 1,13,-1
 375 750 l 1,14,-1
 500 750 l 1,15,-1
 500 875 l 1,16,-1
 625 875 l 1,17,-1
 625 1000 l 1,18,-1
 875 1000 l 1,19,-1
 875 875 l 1,20,-1
 750 875 l 1,21,-1
 750 750 l 1,22,-1
 625 750 l 1,23,-1
 625 375 l 1,24,-1
 750 375 l 1,25,-1
 750 125 l 1,0,-1
EndSplineSet
Validated: 1
EndChar

StartChar: L
Encoding: 44 76 47
Width: 875
GlyphClass: 1
Flags: W
LayerCount: 2
Fore
SplineSet
250 125 m 1,0,-1
 750 125 l 1,1,-1
 750 0 l 1,2,-1
 0 0 l 1,3,-1
 0 1000 l 1,4,-1
 250 1000 l 1,5,-1
 250 125 l 1,0,-1
EndSplineSet
Validated: 1
EndChar

StartChar: M
Encoding: 45 77 48
Width: 1125
GlyphClass: 1
Flags: W
LayerCount: 2
Fore
SplineSet
1000 1000 m 1,0,-1
 1000 0 l 1,1,-1
 750 0 l 1,2,-1
 750 250 l 1,3,-1
 625 250 l 1,4,-1
 625 0 l 1,5,-1
 375 0 l 1,6,-1
 375 250 l 1,7,-1
 250 250 l 1,8,-1
 250 0 l 1,9,-1
 0 0 l 1,10,-1
 0 1000 l 1,11,-1
 250 1000 l 1,12,-1
 250 875 l 1,13,-1
 375 875 l 1,14,-1
 375 625 l 1,15,-1
 625 625 l 1,16,-1
 625 875 l 1,17,-1
 750 875 l 1,18,-1
 750 1000 l 1,19,-1
 1000 1000 l 1,0,-1
EndSplineSet
Validated: 1
EndChar

StartChar: N
Encoding: 46 78 49
Width: 1000
GlyphClass: 1
Flags: W
LayerCount: 2
Fore
SplineSet
875 1000 m 5,0,-1
 875 0 l 5,1,-1
 625 0 l 5,2,-1
 625 125 l 5,3,-1
 500 125 l 5,4,-1
 500 250 l 5,5,-1
 375 250 l 5,6,-1
 375 500 l 5,7,-1
 250 500 l 5,8,-1
 250 0 l 5,9,-1
 0 0 l 5,10,-1
 0 1000 l 5,11,-1
 250 1000 l 5,12,-1
 250 875 l 5,13,-1
 375 875 l 5,14,-1
 375 750 l 5,15,-1
 500 750 l 5,16,-1
 500 500 l 5,17,-1
 625 500 l 5,18,-1
 625 1000 l 5,19,-1
 875 1000 l 5,0,-1
EndSplineSet
Validated: 1
EndChar

StartChar: O
Encoding: 47 79 50
Width: 1125
GlyphClass: 1
Flags: W
LayerCount: 2
Fore
SplineSet
620 875 m 1,0,-1
 380 875 l 1,1,-1
 380 750 l 1,2,-1
 255 750 l 1,3,-1
 255 250 l 1,4,-1
 380 250 l 1,5,-1
 380 125 l 1,6,-1
 620 125 l 1,7,-1
 620 250 l 1,8,-1
 745 250 l 1,9,-1
 745 750 l 1,10,-1
 620 750 l 1,11,-1
 620 875 l 1,0,-1
750 1000 m 1,12,-1
 750 875 l 1,13,-1
 875 875 l 1,14,-1
 875 750 l 1,15,-1
 1000 750 l 1,16,-1
 1000 250 l 1,17,-1
 875 250 l 1,18,-1
 875 125 l 1,19,-1
 750 125 l 1,20,-1
 750 0 l 1,21,-1
 250 0 l 1,22,-1
 250 125 l 1,23,-1
 125 125 l 1,24,-1
 125 250 l 1,25,-1
 0 250 l 1,26,-1
 0 750 l 1,27,-1
 125 750 l 1,28,-1
 125 875 l 1,29,-1
 250 875 l 1,30,-1
 250 1000 l 1,31,-1
 750 1000 l 1,12,-1
EndSplineSet
Validated: 1
EndChar

StartChar: P
Encoding: 48 80 51
Width: 875
GlyphClass: 1
Flags: W
LayerCount: 2
Fore
SplineSet
625 500 m 1,0,-1
 625 375 l 1,1,-1
 250 375 l 1,2,-1
 250 0 l 1,3,-1
 0 0 l 1,4,-1
 0 1000 l 1,5,-1
 625 1000 l 1,6,-1
 625 875 l 1,7,-1
 750 875 l 1,8,-1
 750 500 l 1,9,-1
 625 500 l 1,0,-1
250 500 m 1,10,-1
 495 500 l 1,11,-1
 495 875 l 1,12,-1
 250 875 l 1,13,-1
 250 500 l 1,10,-1
EndSplineSet
Validated: 1
EndChar

StartChar: Q
Encoding: 49 81 52
Width: 1125
GlyphClass: 1
Flags: W
LayerCount: 2
Fore
SplineSet
875 125 m 1,0,-1
 1000 125 l 1,1,-1
 1000 0 l 1,2,-1
 250 0 l 1,3,-1
 250 125 l 1,4,-1
 125 125 l 1,5,-1
 125 250 l 1,6,-1
 0 250 l 1,7,-1
 0 750 l 1,8,-1
 125 750 l 1,9,-1
 125 875 l 1,10,-1
 250 875 l 1,11,-1
 250 1000 l 1,12,-1
 750 1000 l 1,13,-1
 750 875 l 1,14,-1
 875 875 l 1,15,-1
 875 750 l 1,16,-1
 1000 750 l 1,17,-1
 1000 250 l 1,18,-1
 875 250 l 1,19,-1
 875 125 l 1,0,-1
620 250 m 1,20,-1
 380 250 l 1,21,-1
 380 125 l 1,22,-1
 620 125 l 1,23,-1
 620 250 l 1,20,-1
745 375 m 1,24,-1
 745 750 l 1,25,-1
 620 750 l 1,26,-1
 620 875 l 1,27,-1
 380 875 l 1,28,-1
 380 750 l 1,29,-1
 255 750 l 1,30,-1
 255 250 l 1,31,-1
 375 250 l 1,32,-1
 375 375 l 1,33,-1
 745 375 l 1,24,-1
EndSplineSet
Validated: 1
EndChar

StartChar: R
Encoding: 50 82 53
Width: 1000
GlyphClass: 1
Flags: W
LayerCount: 2
Fore
SplineSet
250 625 m 1,0,-1
 620 625 l 1,1,-1
 620 875 l 1,2,-1
 250 875 l 1,3,-1
 250 625 l 1,0,-1
750 125 m 1,4,-1
 875 125 l 1,5,-1
 875 0 l 1,6,-1
 625 0 l 1,7,-1
 625 125 l 1,8,-1
 500 125 l 1,9,-1
 500 375 l 1,10,-1
 375 375 l 1,11,-1
 375 500 l 1,12,-1
 250 500 l 1,13,-1
 250 0 l 1,14,-1
 0 0 l 1,15,-1
 0 1000 l 1,16,-1
 750 1000 l 1,17,-1
 750 875 l 1,18,-1
 875 875 l 1,19,-1
 875 625 l 1,20,-1
 750 625 l 1,21,-1
 750 500 l 1,22,-1
 625 500 l 1,23,-1
 625 375 l 1,24,-1
 750 375 l 1,25,-1
 750 125 l 1,4,-1
EndSplineSet
Validated: 1
EndChar

StartChar: S
Encoding: 51 83 54
Width: 1000
GlyphClass: 1
Flags: W
LayerCount: 2
Fore
SplineSet
250 125 m 1,0,-1
 625 125 l 1,1,-1
 625 375 l 1,2,-1
 375 375 l 1,3,-1
 375 500 l 1,4,-1
 125 500 l 1,5,-1
 125 625 l 1,6,-1
 0 625 l 1,7,-1
 0 875 l 1,8,-1
 125 875 l 1,9,-1
 125 1000 l 1,10,-1
 750 1000 l 1,11,-1
 750 875 l 1,12,-1
 875 875 l 1,13,-1
 875 750 l 1,14,-1
 625 750 l 1,15,-1
 625 875 l 1,16,-1
 250 875 l 1,17,-1
 250 625 l 1,18,-1
 500 625 l 1,19,-1
 500 500 l 1,20,-1
 750 500 l 1,21,-1
 750 375 l 1,22,-1
 875 375 l 1,23,-1
 875 125 l 1,24,-1
 750 125 l 1,25,-1
 750 0 l 1,26,-1
 125 0 l 1,27,-1
 125 125 l 1,28,-1
 0 125 l 1,29,-1
 0 250 l 1,30,-1
 250 250 l 1,31,-1
 250 125 l 1,0,-1
EndSplineSet
Validated: 1
EndChar

StartChar: T
Encoding: 52 84 55
Width: 875
GlyphClass: 1
Flags: W
LayerCount: 2
Fore
SplineSet
500 875 m 1,0,-1
 500 0 l 1,1,-1
 250 0 l 1,2,-1
 250 875 l 1,3,-1
 0 875 l 1,4,-1
 0 1000 l 1,5,-1
 750 1000 l 1,6,-1
 750 875 l 1,7,-1
 500 875 l 1,0,-1
EndSplineSet
Validated: 1
EndChar

StartChar: U
Encoding: 53 85 56
Width: 1000
GlyphClass: 1
Flags: W
LayerCount: 2
Fore
SplineSet
875 1000 m 1,0,-1
 875 125 l 1,1,-1
 750 125 l 1,2,-1
 750 0 l 1,3,-1
 125 0 l 1,4,-1
 125 125 l 1,5,-1
 0 125 l 1,6,-1
 0 1000 l 1,7,-1
 250 1000 l 1,8,-1
 250 125 l 1,9,-1
 625 125 l 1,10,-1
 625 1000 l 1,11,-1
 875 1000 l 1,0,-1
EndSplineSet
Validated: 1
EndChar

StartChar: V
Encoding: 54 86 57
Width: 1125
GlyphClass: 1
Flags: W
LayerCount: 2
Fore
SplineSet
1000 1000 m 1,0,-1
 1000 750 l 1,1,-1
 875 750 l 1,2,-1
 875 500 l 1,3,-1
 750 500 l 1,4,-1
 750 250 l 1,5,-1
 625 250 l 1,6,-1
 625 0 l 1,7,-1
 375 0 l 1,8,-1
 375 250 l 1,9,-1
 250 250 l 1,10,-1
 250 500 l 1,11,-1
 125 500 l 1,12,-1
 125 750 l 1,13,-1
 0 750 l 1,14,-1
 0 1000 l 1,15,-1
 250 1000 l 1,16,-1
 250 750 l 1,17,-1
 375 750 l 1,18,-1
 375 500 l 1,19,-1
 625 500 l 1,20,-1
 625 750 l 1,21,-1
 750 750 l 1,22,-1
 750 1000 l 1,23,-1
 1000 1000 l 1,0,-1
EndSplineSet
Validated: 1
EndChar

StartChar: W
Encoding: 55 87 58
Width: 1375
GlyphClass: 1
Flags: W
LayerCount: 2
Fore
SplineSet
1375 1000 m 1,0,-1
 1375 750 l 1,1,-1
 1250 750 l 1,2,-1
 1250 250 l 1,3,-1
 1125 250 l 1,4,-1
 1125 0 l 1,5,-1
 875 0 l 1,6,-1
 875 250 l 1,7,-1
 750 250 l 1,8,-1
 750 500 l 1,9,-1
 500 500 l 1,10,-1
 500 250 l 1,11,-1
 375 250 l 1,12,-1
 375 0 l 1,13,-1
 125 0 l 1,14,-1
 125 250 l 1,15,-1
 0 250 l 1,16,-1
 0 750 l 1,17,-1
 -125 750 l 1,18,-1
 -125 1000 l 1,19,-1
 125 1000 l 1,20,-1
 125 750 l 1,21,-1
 250 750 l 1,22,-1
 250 500 l 1,23,-1
 375 500 l 1,24,-1
 375 875 l 1,25,-1
 500 875 l 1,26,-1
 500 1000 l 1,27,-1
 750 1000 l 1,28,-1
 750 875 l 1,29,-1
 875 875 l 1,30,-1
 875 500 l 1,31,-1
 1000 500 l 1,32,-1
 1000 750 l 1,33,-1
 1125 750 l 1,34,-1
 1125 1000 l 1,35,-1
 1375 1000 l 1,0,-1
EndSplineSet
Validated: 1
EndChar

StartChar: X
Encoding: 56 88 59
Width: 1000
GlyphClass: 1
Flags: W
LayerCount: 2
Fore
SplineSet
875 1000 m 1,0,-1
 875 875 l 1,1,-1
 750 875 l 1,2,-1
 750 625 l 1,3,-1
 625 625 l 1,4,-1
 625 375 l 1,5,-1
 750 375 l 1,6,-1
 750 125 l 1,7,-1
 875 125 l 1,8,-1
 875 0 l 1,9,-1
 625 0 l 1,10,-1
 625 125 l 1,11,-1
 500 125 l 1,12,-1
 500 375 l 1,13,-1
 375 375 l 1,14,-1
 375 125 l 1,15,-1
 250 125 l 1,16,-1
 250 0 l 1,17,-1
 0 0 l 1,18,-1
 0 125 l 1,19,-1
 125 125 l 1,20,-1
 125 375 l 1,21,-1
 250 375 l 1,22,-1
 250 625 l 1,23,-1
 125 625 l 1,24,-1
 125 875 l 1,25,-1
 0 875 l 1,26,-1
 0 1000 l 1,27,-1
 250 1000 l 1,28,-1
 250 875 l 1,29,-1
 375 875 l 1,30,-1
 375 625 l 1,31,-1
 500 625 l 1,32,-1
 500 875 l 1,33,-1
 625 875 l 1,34,-1
 625 1000 l 1,35,-1
 875 1000 l 1,0,-1
EndSplineSet
Validated: 1
EndChar

StartChar: Y
Encoding: 57 89 60
Width: 1125
GlyphClass: 1
Flags: W
LayerCount: 2
Fore
SplineSet
1000 1000 m 1,0,-1
 1000 875 l 1,1,-1
 875 875 l 1,2,-1
 875 625 l 1,3,-1
 750 625 l 1,4,-1
 750 500 l 1,5,-1
 625 500 l 1,6,-1
 625 0 l 1,7,-1
 375 0 l 1,8,-1
 375 500 l 1,9,-1
 250 500 l 1,10,-1
 250 625 l 1,11,-1
 125 625 l 1,12,-1
 125 875 l 1,13,-1
 0 875 l 1,14,-1
 0 1000 l 1,15,-1
 250 1000 l 1,16,-1
 250 875 l 1,17,-1
 375 875 l 1,18,-1
 375 625 l 1,19,-1
 625 625 l 1,20,-1
 625 875 l 1,21,-1
 750 875 l 1,22,-1
 750 1000 l 1,23,-1
 1000 1000 l 1,0,-1
EndSplineSet
Validated: 1
EndChar

StartChar: Z
Encoding: 58 90 61
Width: 1000
GlyphClass: 1
Flags: W
LayerCount: 2
Fore
SplineSet
875 1000 m 1,0,-1
 875 875 l 1,1,-1
 750 875 l 1,2,-1
 750 750 l 1,3,-1
 625 750 l 1,4,-1
 625 500 l 1,5,-1
 500 500 l 1,6,-1
 500 250 l 1,7,-1
 375 250 l 1,8,-1
 375 125 l 1,9,-1
 875 125 l 1,10,-1
 875 0 l 1,11,-1
 0 0 l 1,12,-1
 0 125 l 1,13,-1
 125 125 l 1,14,-1
 125 250 l 1,15,-1
 250 250 l 1,16,-1
 250 500 l 1,17,-1
 375 500 l 1,18,-1
 375 750 l 1,19,-1
 500 750 l 1,20,-1
 500 875 l 1,21,-1
 125 875 l 1,22,-1
 125 1000 l 1,23,-1
 875 1000 l 1,0,-1
EndSplineSet
Validated: 1
EndChar

StartChar: bracketleft
Encoding: 59 91 62
Width: 500
GlyphClass: 1
Flags: W
LayerCount: 2
Fore
SplineSet
250 -125 m 1,0,-1
 375 -125 l 1,1,-1
 375 -250 l 1,2,-1
 0 -250 l 1,3,-1
 0 1000 l 1,4,-1
 375 1000 l 1,5,-1
 375 875 l 1,6,-1
 250 875 l 1,7,-1
 250 -125 l 1,0,-1
EndSplineSet
Validated: 1
EndChar

StartChar: backslash
Encoding: 60 92 63
Width: 625
GlyphClass: 1
Flags: W
LayerCount: 2
Fore
SplineSet
375 250 m 1,0,-1
 500 250 l 1,1,-1
 500 0 l 1,2,-1
 250 0 l 1,3,-1
 250 250 l 1,4,-1
 125 250 l 1,5,-1
 125 750 l 1,6,-1
 0 750 l 1,7,-1
 0 1000 l 1,8,-1
 250 1000 l 1,9,-1
 250 750 l 1,10,-1
 375 750 l 1,11,-1
 375 250 l 1,0,-1
EndSplineSet
Validated: 1
EndChar

StartChar: bracketright
Encoding: 61 93 64
Width: 500
GlyphClass: 1
Flags: W
LayerCount: 2
Fore
SplineSet
375 1000 m 1,0,-1
 375 -250 l 1,1,-1
 0 -250 l 1,2,-1
 0 -125 l 1,3,-1
 125 -125 l 1,4,-1
 125 875 l 1,5,-1
 0 875 l 1,6,-1
 0 1000 l 1,7,-1
 375 1000 l 1,0,-1
EndSplineSet
Validated: 1
EndChar

StartChar: asciicircum
Encoding: 62 94 65
Width: 875
GlyphClass: 1
Flags: W
LayerCount: 2
Fore
SplineSet
625 625 m 1,0,-1
 750 625 l 1,1,-1
 750 500 l 1,2,-1
 500 500 l 1,3,-1
 500 625 l 1,4,-1
 250 625 l 1,5,-1
 250 500 l 1,6,-1
 0 500 l 1,7,-1
 0 625 l 1,8,-1
 125 625 l 1,9,-1
 125 875 l 1,10,-1
 250 875 l 1,11,-1
 250 1000 l 1,12,-1
 500 1000 l 1,13,-1
 500 875 l 1,14,-1
 625 875 l 1,15,-1
 625 625 l 1,0,-1
EndSplineSet
Validated: 1
EndChar

StartChar: underscore
Encoding: 63 95 66
Width: 1000
GlyphClass: 1
Flags: W
LayerCount: 2
Fore
SplineSet
875 -125 m 1,0,-1
 875 -250 l 1,1,-1
 0 -250 l 1,2,-1
 0 -125 l 1,3,-1
 875 -125 l 1,0,-1
EndSplineSet
Validated: 1
EndChar

StartChar: grave
Encoding: 64 96 67
Width: 625
GlyphClass: 1
Flags: W
LayerCount: 2
Fore
SplineSet
250 875 m 1,0,-1
 375 875 l 1,1,-1
 375 750 l 1,2,-1
 125 750 l 1,3,-1
 125 875 l 1,4,-1
 0 875 l 1,5,-1
 0 1000 l 1,6,-1
 250 1000 l 1,7,-1
 250 875 l 1,0,-1
EndSplineSet
Validated: 1
EndChar

StartChar: a
Encoding: 65 97 68
Width: 875
GlyphClass: 1
Flags: W
LayerCount: 2
Fore
SplineSet
500 370 m 5,0,-1
 250 370 l 5,1,-1
 250 130 l 5,2,-1
 375 130 l 5,3,-1
 375 250 l 5,4,-1
 500 250 l 5,5,-1
 500 370 l 5,0,-1
500 620 m 5,6,-1
 250 620 l 5,7,-1
 250 505 l 5,8,-1
 500 505 l 5,9,-1
 500 620 l 5,6,-1
625 750 m 5,10,-1
 625 625 l 5,11,-1
 750 625 l 5,12,-1
 750 0 l 5,13,-1
 125 0 l 5,14,-1
 125 125 l 5,15,-1
 0 125 l 5,16,-1
 0 375 l 5,17,-1
 125 375 l 5,18,-1
 125 500 l 5,19,-1
 0 500 l 5,20,-1
 0 625 l 5,21,-1
 125 625 l 5,22,-1
 125 750 l 5,23,-1
 625 750 l 5,10,-1
EndSplineSet
Validated: 1
EndChar

StartChar: b
Encoding: 66 98 69
Width: 875
GlyphClass: 1
Flags: W
LayerCount: 2
Fore
SplineSet
625 750 m 1,0,-1
 625 625 l 1,1,-1
 750 625 l 1,2,-1
 750 125 l 1,3,-1
 625 125 l 1,4,-1
 625 0 l 1,5,-1
 0 0 l 1,6,-1
 0 1000 l 1,7,-1
 250 1000 l 1,8,-1
 250 750 l 1,9,-1
 625 750 l 1,0,-1
380 625 m 1,10,-1
 380 500 l 1,11,-1
 250 500 l 1,12,-1
 250 250 l 1,13,-1
 380 250 l 1,14,-1
 380 125 l 1,15,-1
 495 125 l 1,16,-1
 495 625 l 1,17,-1
 380 625 l 1,10,-1
EndSplineSet
Validated: 1
EndChar

StartChar: c
Encoding: 67 99 70
Width: 875
GlyphClass: 1
Flags: W
LayerCount: 2
Fore
SplineSet
625 625 m 5,0,-1
 750 625 l 5,1,-1
 750 500 l 5,2,-1
 500 500 l 5,3,-1
 500 625 l 5,4,-1
 250 625 l 5,5,-1
 250 125 l 5,6,-1
 500 125 l 5,7,-1
 500 250 l 5,8,-1
 750 250 l 5,9,-1
 750 125 l 5,10,-1
 625 125 l 5,11,-1
 625 0 l 5,12,-1
 125 0 l 5,13,-1
 125 125 l 5,14,-1
 0 125 l 5,15,-1
 0 625 l 5,16,-1
 125 625 l 5,17,-1
 125 750 l 5,18,-1
 625 750 l 5,19,-1
 625 625 l 5,0,-1
EndSplineSet
Validated: 1
EndChar

StartChar: d
Encoding: 68 100 71
Width: 875
GlyphClass: 1
Flags: W
LayerCount: 2
Fore
SplineSet
500 750 m 1,0,-1
 500 1000 l 1,1,-1
 750 1000 l 1,2,-1
 750 0 l 1,3,-1
 125 0 l 1,4,-1
 125 125 l 1,5,-1
 0 125 l 1,6,-1
 0 625 l 1,7,-1
 125 625 l 1,8,-1
 125 750 l 1,9,-1
 500 750 l 1,0,-1
370 500 m 1,10,-1
 370 625 l 1,11,-1
 255 625 l 1,12,-1
 255 125 l 1,13,-1
 370 125 l 1,14,-1
 370 250 l 1,15,-1
 500 250 l 1,16,-1
 500 500 l 1,17,-1
 370 500 l 1,10,-1
EndSplineSet
Validated: 1
EndChar

StartChar: e
Encoding: 69 101 72
Width: 875
GlyphClass: 1
Flags: W
LayerCount: 2
Fore
SplineSet
750 375 m 1,0,-1
 250 375 l 1,1,-1
 250 125 l 1,2,-1
 500 125 l 1,3,-1
 500 250 l 1,4,-1
 750 250 l 1,5,-1
 750 125 l 1,6,-1
 625 125 l 1,7,-1
 625 0 l 1,8,-1
 125 0 l 1,9,-1
 125 125 l 1,10,-1
 0 125 l 1,11,-1
 0 625 l 1,12,-1
 125 625 l 1,13,-1
 125 750 l 1,14,-1
 625 750 l 1,15,-1
 625 625 l 1,16,-1
 750 625 l 1,17,-1
 750 375 l 1,0,-1
250 500 m 5,18,-1
 500 500 l 1,19,-1
 500 620 l 1,20,-1
 250 620 l 1,21,-1
 250 500 l 5,18,-1
EndSplineSet
Validated: 1
EndChar

StartChar: f
Encoding: 70 102 73
Width: 625
GlyphClass: 1
Flags: W
LayerCount: 2
Fore
SplineSet
375 750 m 1,0,-1
 500 750 l 1,1,-1
 500 625 l 1,2,-1
 375 625 l 1,3,-1
 375 0 l 1,4,-1
 125 0 l 1,5,-1
 125 625 l 1,6,-1
 0 625 l 1,7,-1
 0 750 l 1,8,-1
 125 750 l 1,9,-1
 125 875 l 1,10,-1
 250 875 l 1,11,-1
 250 1000 l 1,12,-1
 500 1000 l 1,13,-1
 500 875 l 1,14,-1
 375 875 l 1,15,-1
 375 750 l 1,0,-1
EndSplineSet
Validated: 1
EndChar

StartChar: g
Encoding: 71 103 74
Width: 875
GlyphClass: 1
Flags: W
LayerCount: 2
Fore
SplineSet
375 620 m 1,0,-1
 250 620 l 1,1,-1
 250 130 l 1,2,-1
 375 130 l 1,3,-1
 375 250 l 1,4,-1
 500 250 l 1,5,-1
 500 500 l 1,6,-1
 375 500 l 1,7,-1
 375 620 l 1,0,-1
500 -125 m 1,8,-1
 500 0 l 1,9,-1
 125 0 l 1,10,-1
 125 125 l 1,11,-1
 0 125 l 1,12,-1
 0 625 l 1,13,-1
 125 625 l 1,14,-1
 125 750 l 1,15,-1
 750 750 l 1,16,-1
 750 -125 l 1,17,-1
 625 -125 l 1,18,-1
 625 -250 l 1,19,-1
 0 -250 l 1,20,-1
 0 -125 l 1,21,-1
 500 -125 l 1,8,-1
EndSplineSet
Validated: 1
EndChar

StartChar: h
Encoding: 72 104 75
Width: 875
GlyphClass: 1
Flags: W
LayerCount: 2
Fore
SplineSet
625 625 m 1,0,-1
 750 625 l 1,1,-1
 750 0 l 1,2,-1
 500 0 l 1,3,-1
 500 625 l 1,4,-1
 375 625 l 1,5,-1
 375 500 l 1,6,-1
 250 500 l 1,7,-1
 250 0 l 1,8,-1
 0 0 l 1,9,-1
 0 1000 l 1,10,-1
 250 1000 l 1,11,-1
 250 750 l 1,12,-1
 625 750 l 1,13,-1
 625 625 l 1,0,-1
EndSplineSet
Validated: 1
EndChar

StartChar: i
Encoding: 73 105 76
Width: 375
GlyphClass: 1
Flags: W
LayerCount: 2
Fore
SplineSet
250 750 m 5,0,-1
 250 0 l 5,1,-1
 0 0 l 5,2,-1
 0 750 l 5,3,-1
 250 750 l 5,0,-1
250 1000 m 5,4,-1
 250 875 l 5,5,-1
 0 875 l 5,6,-1
 0 1000 l 5,7,-1
 250 1000 l 5,4,-1
EndSplineSet
Validated: 1
EndChar

StartChar: j
Encoding: 74 106 77
Width: 375
GlyphClass: 1
Flags: W
LayerCount: 2
Fore
SplineSet
250 1000 m 1,0,-1
 250 875 l 1,1,-1
 0 875 l 1,2,-1
 0 1000 l 1,3,-1
 250 1000 l 1,0,-1
125 -125 m 1,4,-1
 125 -250 l 1,5,-1
 -125 -250 l 1,6,-1
 -125 -125 l 1,7,-1
 0 -125 l 1,8,-1
 0 750 l 1,9,-1
 250 750 l 1,10,-1
 250 -125 l 1,11,-1
 125 -125 l 1,4,-1
EndSplineSet
Validated: 1
EndChar

StartChar: k
Encoding: 75 107 78
Width: 750
GlyphClass: 1
Flags: W
LayerCount: 2
Fore
SplineSet
625 750 m 1,0,-1
 625 625 l 1,1,-1
 500 625 l 1,2,-1
 500 500 l 1,3,-1
 375 500 l 1,4,-1
 375 375 l 1,5,-1
 500 375 l 1,6,-1
 500 125 l 1,7,-1
 625 125 l 1,8,-1
 625 0 l 1,9,-1
 375 0 l 1,10,-1
 375 125 l 1,11,-1
 250 125 l 1,12,-1
 250 0 l 1,13,-1
 0 0 l 1,14,-1
 0 1000 l 1,15,-1
 250 1000 l 1,16,-1
 250 625 l 1,17,-1
 375 625 l 1,18,-1
 375 750 l 1,19,-1
 625 750 l 1,0,-1
EndSplineSet
Validated: 1
EndChar

StartChar: l
Encoding: 76 108 79
Width: 375
GlyphClass: 1
Flags: W
LayerCount: 2
Fore
SplineSet
250 1000 m 1,0,-1
 250 0 l 1,1,-1
 0 0 l 1,2,-1
 0 1000 l 1,3,-1
 250 1000 l 1,0,-1
EndSplineSet
Validated: 1
EndChar

StartChar: m
Encoding: 77 109 80
Width: 1125
GlyphClass: 1
Flags: W
LayerCount: 2
Fore
SplineSet
625 625 m 1,0,-1
 625 0 l 1,1,-1
 375 0 l 1,2,-1
 375 500 l 1,3,-1
 250 500 l 1,4,-1
 250 0 l 1,5,-1
 0 0 l 1,6,-1
 0 750 l 1,7,-1
 875 750 l 1,8,-1
 875 625 l 1,9,-1
 1000 625 l 1,10,-1
 1000 0 l 1,11,-1
 750 0 l 1,12,-1
 750 625 l 1,13,-1
 625 625 l 1,0,-1
EndSplineSet
Validated: 1
EndChar

StartChar: n
Encoding: 78 110 81
Width: 875
GlyphClass: 1
Flags: W
LayerCount: 2
Fore
SplineSet
625 625 m 5,0,-1
 750 625 l 5,1,-1
 750 0 l 5,2,-1
 500 0 l 5,3,-1
 500 625 l 5,4,-1
 250 625 l 5,5,-1
 250 0 l 5,6,-1
 0 0 l 5,7,-1
 0 750 l 5,8,-1
 625 750 l 5,9,-1
 625 625 l 5,0,-1
EndSplineSet
Validated: 1
EndChar

StartChar: o
Encoding: 79 111 82
Width: 875
GlyphClass: 1
Flags: W
LayerCount: 2
Fore
SplineSet
500 620 m 5,0,-1
 250 620 l 5,1,-1
 250 130 l 5,2,-1
 500 130 l 5,3,-1
 500 620 l 5,0,-1
625 750 m 5,4,-1
 625 625 l 5,5,-1
 750 625 l 5,6,-1
 750 125 l 5,7,-1
 625 125 l 5,8,-1
 625 0 l 5,9,-1
 125 0 l 5,10,-1
 125 125 l 5,11,-1
 0 125 l 5,12,-1
 0 625 l 5,13,-1
 125 625 l 5,14,-1
 125 750 l 5,15,-1
 625 750 l 5,4,-1
EndSplineSet
Validated: 1
EndChar

StartChar: p
Encoding: 80 112 83
Width: 875
GlyphClass: 1
Flags: W
LayerCount: 2
Fore
SplineSet
250 250 m 1,0,-1
 375 250 l 1,1,-1
 375 130 l 1,2,-1
 500 130 l 1,3,-1
 500 620 l 1,4,-1
 375 620 l 1,5,-1
 375 500 l 1,6,-1
 250 500 l 1,7,-1
 250 250 l 1,0,-1
625 750 m 1,8,-1
 625 625 l 1,9,-1
 750 625 l 1,10,-1
 750 125 l 1,11,-1
 625 125 l 1,12,-1
 625 0 l 1,13,-1
 250 0 l 1,14,-1
 250 -250 l 1,15,-1
 0 -250 l 1,16,-1
 0 750 l 1,17,-1
 625 750 l 1,8,-1
EndSplineSet
Validated: 1
EndChar

StartChar: q
Encoding: 81 113 84
Width: 875
GlyphClass: 1
Flags: W
LayerCount: 2
Fore
SplineSet
375 620 m 1,0,-1
 250 620 l 1,1,-1
 250 130 l 1,2,-1
 375 130 l 1,3,-1
 375 250 l 1,4,-1
 500 250 l 1,5,-1
 500 500 l 1,6,-1
 375 500 l 1,7,-1
 375 620 l 1,0,-1
750 750 m 1,8,-1
 750 -250 l 1,9,-1
 500 -250 l 1,10,-1
 500 0 l 1,11,-1
 125 0 l 1,12,-1
 125 125 l 1,13,-1
 0 125 l 1,14,-1
 0 625 l 1,15,-1
 125 625 l 1,16,-1
 125 750 l 1,17,-1
 750 750 l 1,8,-1
EndSplineSet
Validated: 1
EndChar

StartChar: r
Encoding: 82 114 85
Width: 625
GlyphClass: 1
Flags: W
LayerCount: 2
Fore
SplineSet
500 750 m 1,0,-1
 500 625 l 1,1,-1
 375 625 l 1,2,-1
 375 500 l 1,3,-1
 250 500 l 1,4,-1
 250 0 l 1,5,-1
 0 0 l 1,6,-1
 0 750 l 1,7,-1
 500 750 l 1,0,-1
EndSplineSet
Validated: 1
EndChar

StartChar: s
Encoding: 83 115 86
Width: 875
GlyphClass: 1
Flags: W
LayerCount: 2
Fore
SplineSet
500 625 m 1,0,-1
 250 625 l 1,1,-1
 250 500 l 1,2,-1
 500 500 l 1,3,-1
 500 625 l 1,0,-1
625 625 m 1,4,-1
 750 625 l 1,5,-1
 750 500 l 1,6,-1
 500 500 l 1,7,-1
 500 375 l 1,8,-1
 625 375 l 1,9,-1
 625 250 l 1,10,-1
 750 250 l 1,11,-1
 750 125 l 1,12,-1
 625 125 l 1,13,-1
 625 0 l 1,14,-1
 125 0 l 1,15,-1
 125 125 l 1,16,-1
 0 125 l 1,17,-1
 0 250 l 1,18,-1
 250 250 l 1,19,-1
 250 125 l 1,20,-1
 500 125 l 1,21,-1
 500 250 l 1,22,-1
 375 250 l 1,23,-1
 375 375 l 1,24,-1
 125 375 l 1,25,-1
 125 500 l 1,26,-1
 0 500 l 1,27,-1
 0 625 l 1,28,-1
 125 625 l 1,29,-1
 125 750 l 1,30,-1
 625 750 l 1,31,-1
 625 625 l 1,4,-1
EndSplineSet
Validated: 5
EndChar

StartChar: t
Encoding: 84 116 87
Width: 500
GlyphClass: 1
Flags: W
LayerCount: 2
Fore
SplineSet
250 750 m 1,0,-1
 375 750 l 1,1,-1
 375 625 l 1,2,-1
 250 625 l 1,3,-1
 250 125 l 1,4,-1
 375 125 l 1,5,-1
 375 0 l 1,6,-1
 0 0 l 1,7,-1
 0 625 l 1,8,-1
 -125 625 l 1,9,-1
 -125 750 l 1,10,-1
 0 750 l 1,11,-1
 0 1000 l 1,12,-1
 250 1000 l 1,13,-1
 250 750 l 1,0,-1
EndSplineSet
Validated: 1
EndChar

StartChar: u
Encoding: 85 117 88
Width: 875
GlyphClass: 1
Flags: W
LayerCount: 2
Fore
SplineSet
750 750 m 5,0,-1
 750 0 l 5,1,-1
 125 0 l 5,2,-1
 125 125 l 5,3,-1
 0 125 l 5,4,-1
 0 750 l 5,5,-1
 250 750 l 5,6,-1
 250 125 l 5,7,-1
 375 125 l 5,8,-1
 375 250 l 5,9,-1
 500 250 l 5,10,-1
 500 750 l 5,11,-1
 750 750 l 5,0,-1
EndSplineSet
Validated: 1
EndChar

StartChar: v
Encoding: 86 118 89
Width: 875
GlyphClass: 1
Flags: W
LayerCount: 2
Fore
SplineSet
750 750 m 1,0,-1
 750 500 l 1,1,-1
 625 500 l 1,2,-1
 625 250 l 1,3,-1
 500 250 l 1,4,-1
 500 0 l 1,5,-1
 250 0 l 1,6,-1
 250 250 l 1,7,-1
 125 250 l 1,8,-1
 125 500 l 1,9,-1
 0 500 l 1,10,-1
 0 750 l 1,11,-1
 250 750 l 1,12,-1
 250 500 l 1,13,-1
 500 500 l 1,14,-1
 500 750 l 1,15,-1
 750 750 l 1,0,-1
EndSplineSet
Validated: 1
EndChar

StartChar: w
Encoding: 87 119 90
Width: 1375
GlyphClass: 1
Flags: W
LayerCount: 2
Fore
SplineSet
1250 750 m 1,0,-1
 1250 500 l 1,1,-1
 1125 500 l 1,2,-1
 1125 250 l 1,3,-1
 1000 250 l 1,4,-1
 1000 0 l 1,5,-1
 750 0 l 1,6,-1
 750 250 l 1,7,-1
 500 250 l 1,8,-1
 500 0 l 1,9,-1
 250 0 l 1,10,-1
 250 250 l 1,11,-1
 125 250 l 1,12,-1
 125 500 l 1,13,-1
 0 500 l 1,14,-1
 0 750 l 1,15,-1
 250 750 l 1,16,-1
 250 500 l 1,17,-1
 375 500 l 1,18,-1
 375 625 l 1,19,-1
 500 625 l 1,20,-1
 500 750 l 1,21,-1
 750 750 l 1,22,-1
 750 625 l 1,23,-1
 875 625 l 1,24,-1
 875 500 l 1,25,-1
 1000 500 l 1,26,-1
 1000 750 l 1,27,-1
 1250 750 l 1,0,-1
EndSplineSet
Validated: 1
EndChar

StartChar: x
Encoding: 88 120 91
Width: 875
GlyphClass: 1
Flags: W
LayerCount: 2
Fore
SplineSet
625 125 m 1,0,-1
 750 125 l 1,1,-1
 750 0 l 1,2,-1
 500 0 l 1,3,-1
 500 125 l 1,4,-1
 250 125 l 1,5,-1
 250 0 l 1,6,-1
 0 0 l 1,7,-1
 0 125 l 1,8,-1
 125 125 l 1,9,-1
 125 250 l 1,10,-1
 250 250 l 1,11,-1
 250 500 l 1,12,-1
 125 500 l 1,13,-1
 125 625 l 1,14,-1
 0 625 l 1,15,-1
 0 750 l 1,16,-1
 250 750 l 1,17,-1
 250 625 l 1,18,-1
 500 625 l 1,19,-1
 500 750 l 1,20,-1
 750 750 l 1,21,-1
 750 625 l 1,22,-1
 625 625 l 1,23,-1
 625 500 l 1,24,-1
 500 500 l 1,25,-1
 500 250 l 1,26,-1
 625 250 l 1,27,-1
 625 125 l 1,0,-1
EndSplineSet
Validated: 1
EndChar

StartChar: y
Encoding: 89 121 92
Width: 875
GlyphClass: 1
Flags: W
LayerCount: 2
Fore
SplineSet
750 750 m 5,0,-1
 750 500 l 5,1,-1
 625 500 l 5,2,-1
 625 250 l 5,3,-1
 500 250 l 5,4,-1
 500 -125 l 5,5,-1
 375 -125 l 5,6,-1
 375 -250 l 5,7,-1
 125 -250 l 5,8,-1
 125 -125 l 5,9,-1
 250 -125 l 5,10,-1
 250 250 l 5,11,-1
 125 250 l 5,12,-1
 125 500 l 5,13,-1
 0 500 l 5,14,-1
 0 750 l 5,15,-1
 250 750 l 5,16,-1
 250 500 l 5,17,-1
 500 500 l 5,18,-1
 500 750 l 5,19,-1
 750 750 l 5,0,-1
EndSplineSet
Validated: 1
EndChar

StartChar: z
Encoding: 90 122 93
Width: 875
GlyphClass: 1
Flags: W
LayerCount: 2
Fore
SplineSet
625 625 m 1,0,-1
 625 500 l 1,1,-1
 500 500 l 1,2,-1
 500 250 l 1,3,-1
 375 250 l 1,4,-1
 375 125 l 1,5,-1
 750 125 l 1,6,-1
 750 0 l 1,7,-1
 0 0 l 1,8,-1
 0 125 l 1,9,-1
 125 125 l 1,10,-1
 125 250 l 1,11,-1
 250 250 l 1,12,-1
 250 500 l 1,13,-1
 375 500 l 1,14,-1
 375 625 l 1,15,-1
 0 625 l 1,16,-1
 0 750 l 1,17,-1
 750 750 l 1,18,-1
 750 625 l 1,19,-1
 625 625 l 1,0,-1
EndSplineSet
Validated: 1
EndChar

StartChar: braceleft
Encoding: 91 123 94
Width: 625
GlyphClass: 1
Flags: W
LayerCount: 2
Fore
SplineSet
375 -125 m 1,0,-1
 500 -125 l 1,1,-1
 500 -250 l 1,2,-1
 250 -250 l 1,3,-1
 250 -125 l 1,4,-1
 125 -125 l 1,5,-1
 125 375 l 1,6,-1
 0 375 l 1,7,-1
 0 500 l 1,8,-1
 125 500 l 1,9,-1
 125 875 l 1,10,-1
 250 875 l 1,11,-1
 250 1000 l 1,12,-1
 500 1000 l 1,13,-1
 500 875 l 1,14,-1
 375 875 l 1,15,-1
 375 500 l 1,16,-1
 250 500 l 1,17,-1
 250 375 l 1,18,-1
 375 375 l 1,19,-1
 375 -125 l 1,0,-1
EndSplineSet
Validated: 1
EndChar

StartChar: bar
Encoding: 92 124 95
Width: 375
GlyphClass: 1
Flags: W
LayerCount: 2
Fore
SplineSet
250 1000 m 1,0,-1
 250 -250 l 1,1,-1
 0 -250 l 1,2,-1
 0 1000 l 1,3,-1
 250 1000 l 1,0,-1
EndSplineSet
Validated: 1
EndChar

StartChar: braceright
Encoding: 93 125 96
Width: 625
GlyphClass: 1
Flags: W
LayerCount: 2
Fore
SplineSet
250 1000 m 1,0,-1
 250 875 l 1,1,-1
 375 875 l 1,2,-1
 375 500 l 1,3,-1
 500 500 l 1,4,-1
 500 375 l 1,5,-1
 375 375 l 1,6,-1
 375 -125 l 1,7,-1
 250 -125 l 1,8,-1
 250 -250 l 1,9,-1
 0 -250 l 1,10,-1
 0 -125 l 1,11,-1
 125 -125 l 1,12,-1
 125 375 l 1,13,-1
 250 375 l 1,14,-1
 250 500 l 1,15,-1
 125 500 l 1,16,-1
 125 875 l 1,17,-1
 0 875 l 1,18,-1
 0 1000 l 1,19,-1
 250 1000 l 1,0,-1
EndSplineSet
Validated: 1
EndChar

StartChar: asciitilde
Encoding: 94 126 97
Width: 875
GlyphClass: 1
Flags: W
LayerCount: 2
Fore
SplineSet
750 625 m 1,0,-1
 750 500 l 1,1,-1
 625 500 l 1,2,-1
 625 375 l 1,3,-1
 0 375 l 1,4,-1
 0 625 l 1,5,-1
 750 625 l 1,0,-1
EndSplineSet
Validated: 1
EndChar

StartChar: exclamdown
Encoding: 96 161 98
Width: 1250
GlyphClass: 1
Flags: W
LayerCount: 2
Fore
SplineSet
225 0 m 1,0,-1
 375 0 l 1,1,-1
 375 625 l 1,2,-1
 225 625 l 1,3,-1
 225 0 l 1,0,-1
0 0 m 1,4,-1
 0 625 l 1,5,-1
 220 625 l 1,6,-1
 220 750 l 1,7,-1
 1125 750 l 1,8,-1
 1125 625 l 1,9,-1
 625 625 l 1,10,-1
 625 375 l 1,11,-1
 1000 375 l 1,12,-1
 1000 250 l 1,13,-1
 625 250 l 1,14,-1
 625 0 l 1,15,-1
 1125 0 l 1,16,-1
 1125 -125 l 1,17,-1
 220 -125 l 1,18,-1
 220 0 l 1,19,-1
 0 0 l 1,4,-1
EndSplineSet
Validated: 1
EndChar

StartChar: cent
Encoding: 97 162 99
Width: 625
GlyphClass: 1
Flags: W
LayerCount: 2
Fore
SplineSet
375 750 m 1,0,-1
 375 625 l 1,1,-1
 500 625 l 1,2,-1
 500 500 l 1,3,-1
 125 500 l 1,4,-1
 125 250 l 5,5,-1
 500 250 l 5,6,-1
 500 125 l 5,7,-1
 375 125 l 5,8,-1
 375 0 l 5,9,-1
 250 0 l 5,10,-1
 250 125 l 5,11,-1
 125 125 l 5,12,-1
 125 250 l 5,13,-1
 0 250 l 1,14,-1
 0 500 l 1,15,-1
 125 500 l 1,16,-1
 125 625 l 1,17,-1
 250 625 l 1,18,-1
 250 750 l 1,19,-1
 375 750 l 1,0,-1
EndSplineSet
Validated: 5
EndChar

StartChar: sterling
Encoding: 98 163 100
Width: 750
GlyphClass: 1
Flags: W
LayerCount: 2
Fore
SplineSet
500 250 m 1,0,-1
 625 250 l 1,1,-1
 625 125 l 1,2,-1
 500 125 l 1,3,-1
 500 0 l 1,4,-1
 0 0 l 1,5,-1
 0 750 l 1,6,-1
 125 750 l 1,7,-1
 125 875 l 1,8,-1
 375 875 l 1,9,-1
 375 750 l 1,10,-1
 500 750 l 1,11,-1
 500 625 l 1,12,-1
 375 625 l 1,13,-1
 375 750 l 1,14,-1
 125 750 l 1,15,-1
 125 500 l 1,16,-1
 375 500 l 1,17,-1
 375 375 l 1,18,-1
 125 375 l 1,19,-1
 125 125 l 1,20,-1
 500 125 l 1,21,-1
 500 250 l 1,0,-1
EndSplineSet
Validated: 5
EndChar

StartChar: currency
Encoding: 99 164 101
Width: 250
GlyphClass: 1
Flags: W
LayerCount: 2
Fore
SplineSet
0 0 m 1,0,-1
 0 875 l 1,1,-1
 125 875 l 1,2,-1
 125 0 l 1,3,-1
 0 0 l 1,0,-1
-125 1125 m 1,4,-1
 0 1125 l 1,5,-1
 0 1000 l 1,6,-1
 -125 1000 l 1,7,-1
 -125 1125 l 1,4,-1
125 1125 m 1,8,-1
 250 1125 l 1,9,-1
 250 1000 l 1,10,-1
 125 1000 l 1,11,-1
 125 1125 l 1,8,-1
EndSplineSet
Validated: 1
EndChar

StartChar: yen
Encoding: 100 165 102
Width: 1250
GlyphClass: 1
Flags: W
LayerCount: 2
Fore
SplineSet
130 125 m 1,0,-1
 495 125 l 1,1,-1
 495 249 l 1,2,-1
 130 249 l 1,3,-1
 130 125 l 1,0,-1
500 0 m 1,4,-1
 124 0 l 1,5,-1
 124 124 l 1,6,-1
 0 124 l 1,7,-1
 0 250 l 1,8,-1
 125 250 l 1,9,-1
 125 375 l 1,10,-1
 500 375 l 1,11,-1
 500 500 l 1,12,-1
 125 500 l 1,13,-1
 125 625 l 1,14,-1
 500 625 l 1,15,-1
 500 500 l 1,16,-1
 624 500 l 1,17,-1
 624 625 l 1,18,-1
 1001 625 l 1,19,-1
 1001 500 l 1,20,-1
 1125 500 l 1,21,-1
 1125 250 l 1,22,-1
 630 250 l 1,23,-1
 630 125 l 1,24,-1
 1000 125 l 1,25,-1
 1000 0 l 1,26,-1
 625 0 l 1,27,-1
 625 125 l 1,28,-1
 500 125 l 1,29,-1
 500 0 l 1,4,-1
630 500 m 1,30,-1
 630 375 l 1,31,-1
 995 375 l 1,32,-1
 995 500 l 1,33,-1
 630 500 l 1,30,-1
EndSplineSet
Validated: 5
EndChar

StartChar: section
Encoding: 102 167 104
Width: 500
GlyphClass: 1
Flags: W
LayerCount: 2
Fore
SplineSet
130 500 m 1,0,-1
 130 375 l 1,1,-1
 245 375 l 1,2,-1
 245 500 l 1,3,-1
 130 500 l 1,0,-1
0 0 m 1,4,-1
 0 125 l 1,5,-1
 250 125 l 1,6,-1
 250 250 l 1,7,-1
 125 250 l 1,8,-1
 125 375 l 1,9,-1
 0 375 l 1,10,-1
 0 500 l 1,11,-1
 125 500 l 1,12,-1
 125 625 l 1,13,-1
 0 625 l 1,14,-1
 0 750 l 1,15,-1
 125 750 l 1,16,-1
 125 875 l 1,17,-1
 375 875 l 1,18,-1
 375 750 l 1,19,-1
 125 750 l 1,20,-1
 125 625 l 1,21,-1
 250 625 l 1,22,-1
 250 500 l 1,23,-1
 375 500 l 1,24,-1
 375 375 l 1,25,-1
 250 375 l 1,26,-1
 250 250 l 1,27,-1
 375 250 l 1,28,-1
 375 125 l 1,29,-1
 250 125 l 1,30,-1
 250 0 l 1,31,-1
 0 0 l 1,4,-1
EndSplineSet
Validated: 5
EndChar

StartChar: dieresis
Encoding: 103 168 105
Width: 625
GlyphClass: 1
Flags: W
LayerCount: 2
Fore
SplineSet
125 875 m 1,0,-1
 250 875 l 1,1,-1
 250 750 l 1,2,-1
 125 750 l 1,3,-1
 125 875 l 1,0,-1
375 875 m 1,4,-1
 500 875 l 1,5,-1
 500 750 l 1,6,-1
 375 750 l 1,7,-1
 375 875 l 1,4,-1
EndSplineSet
Validated: 1
EndChar

StartChar: copyright
Encoding: 104 169 106
Width: 1000
GlyphClass: 1
Flags: W
LayerCount: 2
Fore
SplineSet
750 124 m 1,0,-1
 750 0 l 1,1,-1
 125 0 l 1,2,-1
 125 124 l 1,3,-1
 0 124 l 1,4,-1
 0 750 l 1,5,-1
 125 750 l 1,6,-1
 125 875 l 1,7,-1
 750 875 l 1,8,-1
 750 750 l 1,9,-1
 875 750 l 1,10,-1
 875 124 l 1,11,-1
 750 124 l 1,0,-1
745 749 m 1,12,-1
 130 749 l 1,13,-1
 130 125 l 1,14,-1
 745 125 l 1,15,-1
 745 749 l 1,12,-1
250 625 m 1,16,-1
 625 625 l 1,17,-1
 625 500 l 1,18,-1
 375 500 l 1,19,-1
 375 375 l 1,20,-1
 625 375 l 1,21,-1
 625 250 l 1,22,-1
 250 250 l 1,23,-1
 250 625 l 1,16,-1
EndSplineSet
Validated: 1
EndChar

StartChar: ordfeminine
Encoding: 105 170 107
Width: 750
GlyphClass: 1
Flags: W
LayerCount: 2
Fore
SplineSet
500 500 m 1,0,-1
 625 500 l 1,1,-1
 625 375 l 1,2,-1
 500 375 l 1,3,-1
 500 250 l 1,4,-1
 375 250 l 1,5,-1
 375 375 l 1,6,-1
 500 375 l 1,7,-1
 500 500 l 1,8,-1
 375 500 l 1,9,-1
 375 625 l 1,10,-1
 500 625 l 1,11,-1
 500 500 l 1,0,-1
125 500 m 1,12,-1
 250 500 l 1,13,-1
 250 375 l 1,14,-1
 125 375 l 1,15,-1
 125 250 l 1,16,-1
 0 250 l 1,17,-1
 0 375 l 1,18,-1
 125 375 l 1,19,-1
 125 500 l 1,20,-1
 0 500 l 1,21,-1
 0 625 l 1,22,-1
 125 625 l 1,23,-1
 125 500 l 1,12,-1
EndSplineSet
Validated: 5
EndChar

StartChar: guillemotleft
Encoding: 106 171 108
Width: 375
GlyphClass: 1
Flags: W
LayerCount: 2
Fore
SplineSet
250 750 m 1,0,-1
 250 625 l 1,1,-1
 125 625 l 1,2,-1
 125 501 l 1,3,-1
 250 501 l 1,4,-1
 250 376 l 1,5,-1
 0 376 l 1,6,-1
 0 625 l 1,7,-1
 125 625 l 1,8,-1
 125 750 l 1,9,-1
 250 750 l 1,0,-1
EndSplineSet
Validated: 5
EndChar

StartChar: logicalnot
Encoding: 107 172 109
Width: 1250
GlyphClass: 1
Flags: W
LayerCount: 2
Fore
SplineSet
630 500 m 1,0,-1
 630 375 l 1,1,-1
 995 375 l 1,2,-1
 995 500 l 1,3,-1
 630 500 l 1,0,-1
495 125 m 1,4,-1
 495 500 l 1,5,-1
 130 500 l 1,6,-1
 130 125 l 1,7,-1
 495 125 l 1,4,-1
125 0 m 1,8,-1
 125 125 l 1,9,-1
 0 125 l 1,10,-1
 0 500 l 1,11,-1
 125 500 l 1,12,-1
 125 625 l 1,13,-1
 500 625 l 1,14,-1
 500 500 l 1,15,-1
 625 500 l 1,16,-1
 625 625 l 1,17,-1
 1000 625 l 1,18,-1
 1000 500 l 1,19,-1
 1125 500 l 1,20,-1
 1125 250 l 1,21,-1
 625 250 l 1,22,-1
 625 125 l 1,23,-1
 1000 125 l 1,24,-1
 1000 0 l 1,25,-1
 625 0 l 1,26,-1
 625 125 l 1,27,-1
 500 125 l 1,28,-1
 500 0 l 1,29,-1
 125 0 l 1,8,-1
EndSplineSet
Validated: 5
EndChar

StartChar: registered
Encoding: 109 174 110
Width: 1000
GlyphClass: 1
Flags: W
LayerCount: 2
Fore
SplineSet
750 124 m 1,0,-1
 750 0 l 1,1,-1
 125 0 l 1,2,-1
 125 124 l 1,3,-1
 0 124 l 1,4,-1
 0 750 l 1,5,-1
 125 750 l 1,6,-1
 125 875 l 1,7,-1
 750 875 l 1,8,-1
 750 750 l 1,9,-1
 875 750 l 1,10,-1
 875 124 l 1,11,-1
 750 124 l 1,0,-1
745 749 m 1,12,-1
 130 749 l 1,13,-1
 130 125 l 1,14,-1
 745 125 l 1,15,-1
 745 749 l 1,12,-1
625 250 m 1,16,-1
 500 250 l 1,17,-1
 500 375 l 1,18,-1
 375 375 l 1,19,-1
 375 250 l 1,20,-1
 250 250 l 1,21,-1
 250 625 l 1,22,-1
 625 625 l 1,23,-1
 625 500 l 1,24,-1
 500 500 l 1,25,-1
 500 375 l 1,26,-1
 625 375 l 1,27,-1
 625 250 l 1,16,-1
EndSplineSet
Validated: 5
EndChar

StartChar: degree
Encoding: 111 176 111
Width: 500
GlyphClass: 1
Flags: W
LayerCount: 2
Fore
SplineSet
130 623 m 1,0,-1
 245 623 l 1,1,-1
 245 748 l 1,2,-1
 130 748 l 1,3,-1
 130 623 l 1,0,-1
125 748 m 1,4,-1
 125 873 l 1,5,-1
 250 873 l 1,6,-1
 250 748 l 1,7,-1
 375 748 l 1,8,-1
 375 623 l 1,9,-1
 250 623 l 1,10,-1
 250 498 l 1,11,-1
 125 498 l 1,12,-1
 125 623 l 1,13,-1
 0 623 l 1,14,-1
 0 748 l 1,15,-1
 125 748 l 1,4,-1
EndSplineSet
Validated: 1
EndChar

StartChar: plusminus
Encoding: 112 177 112
Width: 750
GlyphClass: 1
Flags: W
LayerCount: 2
Fore
SplineSet
500 125 m 1,0,-1
 375 125 l 1,1,-1
 375 0 l 1,2,-1
 125 0 l 1,3,-1
 125 -250 l 1,4,-1
 0 -250 l 1,5,-1
 0 625 l 1,6,-1
 125 625 l 1,7,-1
 125 125 l 1,8,-1
 375 125 l 1,9,-1
 375 625 l 1,10,-1
 500 625 l 1,11,-1
 500 125 l 1,12,-1
 625 125 l 1,13,-1
 625 0 l 1,14,-1
 500 0 l 1,15,-1
 500 125 l 1,0,-1
EndSplineSet
Validated: 5
EndChar

StartChar: uni00B2
Encoding: 113 178 113
Width: 750
GlyphClass: 1
Flags: W
LayerCount: 2
Fore
SplineSet
500 250 m 1,0,-1
 500 125 l 1,1,-1
 625 125 l 1,2,-1
 625 0 l 1,3,-1
 375 0 l 1,4,-1
 375 250 l 1,5,-1
 499 250 l 1,6,-1
 499 749 l 1,7,-1
 125 749 l 1,8,-1
 125 250 l 1,9,-1
 250 250 l 1,10,-1
 250 0 l 1,11,-1
 0 0 l 1,12,-1
 0 125 l 1,13,-1
 125 125 l 1,14,-1
 125 250 l 1,15,-1
 0 250 l 1,16,-1
 0 750 l 1,17,-1
 125 750 l 1,18,-1
 125 875 l 1,19,-1
 499 875 l 1,20,-1
 499 750 l 1,21,-1
 625 750 l 1,22,-1
 625 250 l 1,23,-1
 500 250 l 1,0,-1
EndSplineSet
Validated: 5
EndChar

StartChar: uni00B3
Encoding: 114 179 114
Width: 750
GlyphClass: 1
Flags: W
LayerCount: 2
Fore
SplineSet
374 750 m 1,0,-1
 624 750 l 1,1,-1
 624 625 l 1,2,-1
 499 625 l 1,3,-1
 499 501 l 1,4,-1
 374 501 l 1,5,-1
 374 251 l 1,6,-1
 250 251 l 1,7,-1
 250 2 l 1,8,-1
 125 2 l 1,9,-1
 125 251 l 1,10,-1
 0 251 l 1,11,-1
 0 376 l 1,12,-1
 125 376 l 1,13,-1
 125 251 l 1,14,-1
 250 251 l 1,15,-1
 250 501 l 1,16,-1
 374 501 l 1,17,-1
 374 750 l 1,0,-1
EndSplineSet
Validated: 5
EndChar

StartChar: acute
Encoding: 115 180 115
Width: 500
GlyphClass: 1
Flags: W
LayerCount: 2
Fore
SplineSet
125 750 m 1,0,-1
 250 750 l 1,1,-1
 250 875 l 1,2,-1
 375 875 l 1,3,-1
 375 1000 l 1,4,-1
 250 1000 l 1,5,-1
 250 875 l 1,6,-1
 125 875 l 1,7,-1
 125 750 l 1,0,-1
EndSplineSet
Validated: 5
EndChar

StartChar: paragraph
Encoding: 117 182 116
Width: 750
GlyphClass: 1
Flags: W
LayerCount: 2
Fore
SplineSet
500 500 m 1,0,-1
 500 750 l 1,1,-1
 375 750 l 1,2,-1
 375 500 l 1,3,-1
 500 500 l 1,0,-1
130 500 m 1,4,-1
 250 500 l 1,5,-1
 250 750 l 1,6,-1
 130 750 l 1,7,-1
 130 500 l 1,4,-1
0 750 m 1,8,-1
 125 750 l 1,9,-1
 125 875 l 1,10,-1
 625 875 l 1,11,-1
 625 0 l 1,12,-1
 500 0 l 1,13,-1
 500 375 l 1,14,-1
 375 375 l 1,15,-1
 375 0 l 1,16,-1
 250 0 l 1,17,-1
 250 375 l 1,18,-1
 125 375 l 1,19,-1
 125 500 l 1,20,-1
 0 500 l 1,21,-1
 0 750 l 1,8,-1
EndSplineSet
Validated: 1
EndChar

StartChar: uni00B9
Encoding: 120 185 118
Width: 500
GlyphClass: 1
Flags: W
LayerCount: 2
Fore
SplineSet
0 -125 m 1,0,-1
 125 -125 l 1,1,-1
 125 875 l 1,2,-1
 250 875 l 1,3,-1
 250 1000 l 1,4,-1
 375 1000 l 1,5,-1
 375 875 l 1,6,-1
 250 875 l 1,7,-1
 250 -125 l 1,8,-1
 125 -125 l 1,9,-1
 125 -250 l 1,10,-1
 0 -250 l 1,11,-1
 0 -125 l 1,0,-1
EndSplineSet
Validated: 5
EndChar

StartChar: ordmasculine
Encoding: 121 186 119
Width: 750
GlyphClass: 1
Flags: W
LayerCount: 2
Fore
SplineSet
0 125 m 1,0,-1
 125 125 l 1,1,-1
 125 0 l 1,2,-1
 0 0 l 1,3,-1
 0 125 l 1,0,-1
250 125 m 1,4,-1
 375 125 l 1,5,-1
 375 0 l 1,6,-1
 250 0 l 1,7,-1
 250 125 l 1,4,-1
500 125 m 1,8,-1
 625 125 l 1,9,-1
 625 0 l 1,10,-1
 500 0 l 1,11,-1
 500 125 l 1,8,-1
EndSplineSet
Validated: 1
EndChar

StartChar: guillemotright
Encoding: 122 187 120
Width: 375
GlyphClass: 1
Flags: W
LayerCount: 2
Fore
SplineSet
0 376 m 1,0,-1
 0 501 l 1,1,-1
 125 501 l 1,2,-1
 125 625 l 1,3,-1
 0 625 l 1,4,-1
 0 750 l 1,5,-1
 250 750 l 1,6,-1
 250 501 l 1,7,-1
 125 501 l 1,8,-1
 125 376 l 1,9,-1
 0 376 l 1,0,-1
EndSplineSet
Validated: 5
EndChar

StartChar: onequarter
Encoding: 123 188 121
Width: 750
GlyphClass: 1
Flags: W
LayerCount: 2
Fore
SplineSet
255 625 m 1,0,-1
 255 376 l 1,1,-1
 130 376 l 1,2,-1
 130 251 l 1,3,-1
 495 251 l 1,4,-1
 495 376 l 1,5,-1
 370 376 l 1,6,-1
 370 625 l 1,7,-1
 255 625 l 1,0,-1
375 875 m 1,8,-1
 375 625 l 1,9,-1
 500 625 l 1,10,-1
 500 376 l 1,11,-1
 625 376 l 1,12,-1
 625 126 l 1,13,-1
 0 126 l 1,14,-1
 0 376 l 1,15,-1
 125 376 l 1,16,-1
 125 625 l 1,17,-1
 250 625 l 1,18,-1
 250 875 l 1,19,-1
 375 875 l 1,8,-1
EndSplineSet
Validated: 1
EndChar

StartChar: onehalf
Encoding: 124 189 122
Width: 750
GlyphClass: 1
Flags: W
LayerCount: 2
Fore
SplineSet
499 750 m 1,0,-1
 624 750 l 1,1,-1
 624 625 l 1,2,-1
 499 625 l 1,3,-1
 499 501 l 1,4,-1
 374 501 l 1,5,-1
 374 625 l 1,6,-1
 125 625 l 1,7,-1
 125 501 l 1,8,-1
 0 501 l 1,9,-1
 0 625 l 1,10,-1
 125 625 l 1,11,-1
 125 750 l 1,12,-1
 374 750 l 1,13,-1
 374 625 l 1,14,-1
 499 625 l 1,15,-1
 499 750 l 1,0,-1
499 251 m 1,16,-1
 499 126 l 1,17,-1
 374 126 l 1,18,-1
 374 251 l 1,19,-1
 125 251 l 1,20,-1
 125 126 l 1,21,-1
 0 126 l 1,22,-1
 0 251 l 1,23,-1
 125 251 l 1,24,-1
 125 376 l 1,25,-1
 374 376 l 1,26,-1
 374 251 l 1,27,-1
 499 251 l 1,28,-1
 499 376 l 1,29,-1
 624 376 l 1,30,-1
 624 251 l 1,31,-1
 499 251 l 1,16,-1
EndSplineSet
Validated: 5
EndChar

StartChar: threequarters
Encoding: 125 190 123
Width: 750
GlyphClass: 1
Flags: W
LayerCount: 2
Fore
SplineSet
369 251 m 1,0,-1
 369 376 l 1,1,-1
 495 376 l 1,2,-1
 495 501 l 1,3,-1
 370 501 l 1,4,-1
 370 625 l 1,5,-1
 255 625 l 1,6,-1
 255 501 l 1,7,-1
 130 501 l 1,8,-1
 130 376 l 1,9,-1
 254 376 l 1,10,-1
 254 251 l 1,11,-1
 369 251 l 1,0,-1
250 126 m 1,12,-1
 250 251 l 1,13,-1
 125 251 l 1,14,-1
 125 376 l 1,15,-1
 0 376 l 1,16,-1
 0 501 l 1,17,-1
 125 501 l 1,18,-1
 125 625 l 1,19,-1
 250 625 l 1,20,-1
 250 750 l 1,21,-1
 375 750 l 1,22,-1
 375 625 l 1,23,-1
 500 625 l 1,24,-1
 500 501 l 1,25,-1
 624 501 l 1,26,-1
 624 376 l 1,27,-1
 500 376 l 1,28,-1
 500 251 l 1,29,-1
 375 251 l 1,30,-1
 375 126 l 1,31,-1
 250 126 l 1,12,-1
EndSplineSet
Validated: 1
EndChar

StartChar: questiondown
Encoding: 126 191 124
Width: 750
GlyphClass: 1
Flags: W
LayerCount: 2
Fore
SplineSet
500 1000 m 1,0,-1
 625 1000 l 1,1,-1
 625 875 l 1,2,-1
 500 875 l 1,3,-1
 500 750 l 1,4,-1
 375 750 l 1,5,-1
 375 875 l 1,6,-1
 250 875 l 1,7,-1
 250 750 l 1,8,-1
 125 750 l 1,9,-1
 125 875 l 1,10,-1
 250 875 l 1,11,-1
 250 1000 l 1,12,-1
 375 1000 l 1,13,-1
 375 875 l 1,14,-1
 500 875 l 1,15,-1
 500 1000 l 1,0,-1
125 495 m 1,16,-1
 125 130 l 1,17,-1
 500 130 l 1,18,-1
 500 495 l 1,19,-1
 125 495 l 1,16,-1
500 625 m 1,20,-1
 500 500 l 1,21,-1
 625 500 l 1,22,-1
 625 125 l 1,23,-1
 500 125 l 1,24,-1
 500 0 l 1,25,-1
 125 0 l 1,26,-1
 125 125 l 1,27,-1
 0 125 l 1,28,-1
 0 500 l 1,29,-1
 125 500 l 1,30,-1
 125 625 l 1,31,-1
 500 625 l 1,20,-1
EndSplineSet
Validated: 5
EndChar

StartChar: Agrave
Encoding: 127 192 125
Width: 1125
GlyphClass: 1
Flags: W
LayerCount: 2
Fore
SplineSet
250 1375 m 1,0,-1
 500 1375 l 1,1,-1
 500 1250 l 1,2,-1
 625 1250 l 1,3,-1
 625 1125 l 1,4,-1
 375 1125 l 1,5,-1
 375 1250 l 1,6,-1
 250 1250 l 1,7,-1
 250 1375 l 1,0,-1
750 250 m 1,8,-1
 250 250 l 1,9,-1
 250 0 l 1,10,-1
 0 0 l 1,11,-1
 0 250 l 1,12,-1
 125 250 l 1,13,-1
 125 500 l 1,14,-1
 250 500 l 1,15,-1
 250 875 l 1,16,-1
 375 875 l 1,17,-1
 375 1000 l 1,18,-1
 625 1000 l 1,19,-1
 625 875 l 1,20,-1
 750 875 l 1,21,-1
 750 500 l 1,22,-1
 875 500 l 1,23,-1
 875 250 l 1,24,-1
 1000 250 l 1,25,-1
 1000 0 l 1,26,-1
 750 0 l 1,27,-1
 750 250 l 1,8,-1
380 375 m 1,28,-1
 620 375 l 1,29,-1
 620 500 l 1,30,-1
 380 500 l 1,31,-1
 380 375 l 1,28,-1
EndSplineSet
EndChar

StartChar: Aacute
Encoding: 128 193 126
Width: 1125
GlyphClass: 1
Flags: W
LayerCount: 2
Fore
SplineSet
375 1125 m 1,0,-1
 625 1125 l 1,1,-1
 625 1250 l 1,2,-1
 750 1250 l 1,3,-1
 750 1375 l 1,4,-1
 500 1375 l 1,5,-1
 500 1250 l 1,6,-1
 375 1250 l 1,7,-1
 375 1125 l 1,0,-1
750 250 m 1,8,-1
 250 250 l 1,9,-1
 250 0 l 1,10,-1
 0 0 l 1,11,-1
 0 250 l 1,12,-1
 125 250 l 1,13,-1
 125 500 l 1,14,-1
 250 500 l 1,15,-1
 250 875 l 1,16,-1
 375 875 l 1,17,-1
 375 1000 l 1,18,-1
 625 1000 l 1,19,-1
 625 875 l 1,20,-1
 750 875 l 1,21,-1
 750 500 l 1,22,-1
 875 500 l 1,23,-1
 875 250 l 1,24,-1
 1000 250 l 1,25,-1
 1000 0 l 1,26,-1
 750 0 l 1,27,-1
 750 250 l 1,8,-1
380 375 m 1,28,-1
 620 375 l 1,29,-1
 620 500 l 1,30,-1
 380 500 l 1,31,-1
 380 375 l 1,28,-1
EndSplineSet
EndChar

StartChar: Acircumflex
Encoding: 129 194 127
Width: 1125
GlyphClass: 1
Flags: W
LayerCount: 2
Fore
SplineSet
625 1250 m 1,0,-1
 375 1250 l 1,1,-1
 375 1125 l 1,2,-1
 250 1125 l 1,3,-1
 250 1250 l 1,4,-1
 375 1250 l 1,5,-1
 375 1375 l 1,6,-1
 625 1375 l 1,7,-1
 625 1250 l 1,8,-1
 750 1250 l 1,9,-1
 750 1125 l 1,10,-1
 625 1125 l 1,11,-1
 625 1250 l 1,0,-1
750 250 m 1,12,-1
 250 250 l 1,13,-1
 250 0 l 1,14,-1
 0 0 l 1,15,-1
 0 250 l 1,16,-1
 125 250 l 1,17,-1
 125 500 l 1,18,-1
 250 500 l 1,19,-1
 250 875 l 1,20,-1
 375 875 l 1,21,-1
 375 1000 l 1,22,-1
 625 1000 l 1,23,-1
 625 875 l 1,24,-1
 750 875 l 1,25,-1
 750 500 l 1,26,-1
 875 500 l 1,27,-1
 875 250 l 1,28,-1
 1000 250 l 1,29,-1
 1000 0 l 1,30,-1
 750 0 l 1,31,-1
 750 250 l 1,12,-1
380 375 m 1,32,-1
 620 375 l 1,33,-1
 620 500 l 1,34,-1
 380 500 l 1,35,-1
 380 375 l 1,32,-1
EndSplineSet
EndChar

StartChar: Atilde
Encoding: 130 195 128
Width: 1125
GlyphClass: 1
Flags: W
LayerCount: 2
Fore
SplineSet
875 1250 m 17,0,-1
 875 1375 l 1,1,-1
 750 1375 l 9,2,-1
 750 1250 l 25,3,-1
 875 1250 l 17,0,-1
250 1125 m 17,4,-1
 250 1250 l 1,5,-1
 125 1250 l 9,6,-1
 125 1125 l 25,7,-1
 250 1125 l 17,4,-1
750 1125 m 17,8,-1
 500 1125 l 1,9,-1
 500 1250 l 1,10,-1
 250 1250 l 9,11,-1
 250 1375 l 17,12,-1
 500 1375 l 1,13,-1
 500 1250 l 1,14,-1
 750 1250 l 9,15,-1
 750 1125 l 17,8,-1
750 250 m 1,16,-1
 250 250 l 1,17,-1
 250 0 l 1,18,-1
 0 0 l 1,19,-1
 0 250 l 1,20,-1
 125 250 l 1,21,-1
 125 500 l 1,22,-1
 250 500 l 1,23,-1
 250 875 l 1,24,-1
 375 875 l 1,25,-1
 375 1000 l 1,26,-1
 625 1000 l 1,27,-1
 625 875 l 1,28,-1
 750 875 l 1,29,-1
 750 500 l 1,30,-1
 875 500 l 1,31,-1
 875 250 l 1,32,-1
 1000 250 l 1,33,-1
 1000 0 l 1,34,-1
 750 0 l 1,35,-1
 750 250 l 1,16,-1
380 375 m 1,36,-1
 620 375 l 1,37,-1
 620 500 l 1,38,-1
 380 500 l 1,39,-1
 380 375 l 1,36,-1
EndSplineSet
EndChar

StartChar: Adieresis
Encoding: 131 196 129
Width: 1125
GlyphClass: 1
Flags: W
LayerCount: 2
Fore
SplineSet
250 1250 m 1,0,-1
 375 1250 l 1,1,-1
 375 1125 l 1,2,-1
 250 1125 l 1,3,-1
 250 1250 l 1,0,-1
625 1250 m 1,4,-1
 750 1250 l 1,5,-1
 750 1125 l 1,6,-1
 625 1125 l 1,7,-1
 625 1250 l 1,4,-1
750 250 m 1,8,-1
 250 250 l 1,9,-1
 250 0 l 1,10,-1
 0 0 l 1,11,-1
 0 250 l 1,12,-1
 125 250 l 1,13,-1
 125 500 l 1,14,-1
 250 500 l 1,15,-1
 250 875 l 1,16,-1
 375 875 l 1,17,-1
 375 1000 l 1,18,-1
 625 1000 l 1,19,-1
 625 875 l 1,20,-1
 750 875 l 1,21,-1
 750 500 l 1,22,-1
 875 500 l 1,23,-1
 875 250 l 1,24,-1
 1000 250 l 1,25,-1
 1000 0 l 1,26,-1
 750 0 l 1,27,-1
 750 250 l 1,8,-1
380 375 m 1,28,-1
 620 375 l 1,29,-1
 620 500 l 1,30,-1
 380 500 l 1,31,-1
 380 375 l 1,28,-1
EndSplineSet
EndChar

StartChar: Aring
Encoding: 132 197 130
Width: 875
GlyphClass: 1
Flags: W
LayerCount: 2
Fore
SplineSet
125 745 m 1,0,-1
 125 500 l 1,1,-1
 625 500 l 1,2,-1
 625 745 l 1,3,-1
 125 745 l 1,0,-1
255 1000 m 1,4,-1
 495 1000 l 1,5,-1
 495 1125 l 1,6,-1
 255 1125 l 1,7,-1
 255 1000 l 1,4,-1
250 1125 m 1,8,-1
 250 1250 l 1,9,-1
 500 1250 l 1,10,-1
 500 1125 l 1,11,-1
 625 1125 l 1,12,-1
 625 1000 l 1,13,-1
 500 1000 l 1,14,-1
 500 875 l 1,15,-1
 625 875 l 1,16,-1
 625 750 l 1,17,-1
 750 750 l 1,18,-1
 750 0 l 1,19,-1
 625 0 l 1,20,-1
 625 375 l 1,21,-1
 125 375 l 1,22,-1
 125 0 l 1,23,-1
 0 0 l 1,24,-1
 0 750 l 1,25,-1
 125 750 l 1,26,-1
 125 875 l 1,27,-1
 250 875 l 1,28,-1
 250 1000 l 1,29,-1
 125 1000 l 1,30,-1
 125 1125 l 1,31,-1
 250 1125 l 1,8,-1
EndSplineSet
Validated: 1
EndChar

StartChar: AE
Encoding: 133 198 131
Width: 750
GlyphClass: 1
Flags: W
LayerCount: 2
Fore
SplineSet
500 875 m 1,0,-1
 500 750 l 1,1,-1
 625 750 l 1,2,-1
 625 125 l 1,3,-1
 500 125 l 1,4,-1
 500 0 l 1,5,-1
 125 0 l 1,6,-1
 125 125 l 1,7,-1
 0 125 l 1,8,-1
 0 750 l 1,9,-1
 125 750 l 1,10,-1
 125 875 l 1,11,-1
 500 875 l 1,0,-1
380 505 m 1,12,-1
 380 380 l 1,13,-1
 250 380 l 1,14,-1
 250 255 l 1,15,-1
 125 255 l 1,16,-1
 125 130 l 1,17,-1
 500 130 l 1,18,-1
 500 505 l 1,19,-1
 380 505 l 1,12,-1
245 505 m 1,20,-1
 375 505 l 1,21,-1
 375 630 l 1,22,-1
 500 630 l 1,23,-1
 500 745 l 1,24,-1
 125 745 l 1,25,-1
 125 380 l 1,26,-1
 245 380 l 1,27,-1
 245 505 l 1,20,-1
EndSplineSet
Validated: 1
EndChar

StartChar: Ccedilla
Encoding: 134 199 132
Width: 1000
GlyphClass: 1
Flags: W
LayerCount: 2
Fore
SplineSet
750 0 m 25,0,-1
 625 0 l 25,1,-1
 625 -125 l 17,2,-1
 500 -125 l 1,3,-1
 500 -250 l 1,4,-1
 250 -250 l 1,5,-1
 250 -125 l 1,6,-1
 375 -125 l 9,7,-1
 375 -0 l 25,8,-1
 250 0 l 25,9,-1
 250 125 l 17,10,-1
 125 125 l 1,11,-1
 125 250 l 1,12,-1
 0 250 l 1,13,-1
 0 750 l 1,14,-1
 125 750 l 1,15,-1
 125 875 l 1,16,-1
 250 875 l 1,17,-1
 250 1000 l 1,18,-1
 750 1000 l 1,19,-1
 750 875 l 1,20,-1
 875 875 l 1,21,-1
 875 750 l 1,22,-1
 625 750 l 1,23,-1
 625 875 l 1,24,-1
 375 875 l 1,25,-1
 375 750 l 1,26,-1
 250 750 l 1,27,-1
 250 250 l 1,28,-1
 375 250 l 1,29,-1
 375 125 l 1,30,-1
 625 125 l 1,31,-1
 625 250 l 1,32,-1
 875 250 l 1,33,-1
 875 125 l 1,34,-1
 750 125 l 9,35,-1
 750 0 l 25,0,-1
EndSplineSet
EndChar

StartChar: Egrave
Encoding: 135 200 133
Width: 875
GlyphClass: 1
Flags: W
LayerCount: 2
Fore
SplineSet
125 1375 m 1,0,-1
 375 1375 l 1,1,-1
 375 1250 l 1,2,-1
 500 1250 l 1,3,-1
 500 1125 l 1,4,-1
 250 1125 l 1,5,-1
 250 1250 l 1,6,-1
 125 1250 l 1,7,-1
 125 1375 l 1,0,-1
250 625 m 1,8,-1
 750 625 l 1,9,-1
 750 500 l 1,10,-1
 250 500 l 1,11,-1
 250 125 l 1,12,-1
 750 125 l 1,13,-1
 750 0 l 1,14,-1
 0 0 l 1,15,-1
 0 1000 l 1,16,-1
 750 1000 l 1,17,-1
 750 875 l 1,18,-1
 250 875 l 1,19,-1
 250 625 l 1,8,-1
EndSplineSet
EndChar

StartChar: Eacute
Encoding: 136 201 134
Width: 875
GlyphClass: 1
Flags: W
LayerCount: 2
Fore
SplineSet
250 1125 m 1,0,-1
 500 1125 l 1,1,-1
 500 1250 l 1,2,-1
 625 1250 l 1,3,-1
 625 1375 l 1,4,-1
 375 1375 l 1,5,-1
 375 1250 l 1,6,-1
 250 1250 l 1,7,-1
 250 1125 l 1,0,-1
250 625 m 1,8,-1
 750 625 l 1,9,-1
 750 500 l 1,10,-1
 250 500 l 1,11,-1
 250 125 l 1,12,-1
 750 125 l 1,13,-1
 750 0 l 1,14,-1
 0 0 l 1,15,-1
 0 1000 l 1,16,-1
 750 1000 l 1,17,-1
 750 875 l 1,18,-1
 250 875 l 1,19,-1
 250 625 l 1,8,-1
EndSplineSet
EndChar

StartChar: Ecircumflex
Encoding: 137 202 135
Width: 875
GlyphClass: 1
Flags: W
LayerCount: 2
Fore
SplineSet
500 1250 m 1,0,-1
 250 1250 l 1,1,-1
 250 1125 l 1,2,-1
 125 1125 l 1,3,-1
 125 1250 l 1,4,-1
 250 1250 l 1,5,-1
 250 1375 l 1,6,-1
 500 1375 l 1,7,-1
 500 1250 l 1,8,-1
 625 1250 l 1,9,-1
 625 1125 l 1,10,-1
 500 1125 l 1,11,-1
 500 1250 l 1,0,-1
250 625 m 1,12,-1
 750 625 l 1,13,-1
 750 500 l 1,14,-1
 250 500 l 1,15,-1
 250 125 l 1,16,-1
 750 125 l 1,17,-1
 750 0 l 1,18,-1
 0 0 l 1,19,-1
 0 1000 l 1,20,-1
 750 1000 l 1,21,-1
 750 875 l 1,22,-1
 250 875 l 1,23,-1
 250 625 l 1,12,-1
EndSplineSet
EndChar

StartChar: Edieresis
Encoding: 138 203 136
Width: 875
GlyphClass: 1
Flags: W
LayerCount: 2
Fore
SplineSet
125 1250 m 1,0,-1
 250 1250 l 1,1,-1
 250 1125 l 1,2,-1
 125 1125 l 1,3,-1
 125 1250 l 1,0,-1
500 1250 m 1,4,-1
 625 1250 l 1,5,-1
 625 1125 l 1,6,-1
 500 1125 l 1,7,-1
 500 1250 l 1,4,-1
250 625 m 1,8,-1
 750 625 l 1,9,-1
 750 500 l 1,10,-1
 250 500 l 1,11,-1
 250 125 l 1,12,-1
 750 125 l 1,13,-1
 750 0 l 1,14,-1
 0 0 l 1,15,-1
 0 1000 l 1,16,-1
 750 1000 l 1,17,-1
 750 875 l 1,18,-1
 250 875 l 1,19,-1
 250 625 l 1,8,-1
EndSplineSet
EndChar

StartChar: Igrave
Encoding: 139 204 137
Width: 375
GlyphClass: 1
Flags: W
LayerCount: 2
Fore
SplineSet
-125 1375 m 1,0,-1
 125 1375 l 1,1,-1
 125 1250 l 1,2,-1
 250 1250 l 1,3,-1
 250 1125 l 1,4,-1
 0 1125 l 1,5,-1
 0 1250 l 1,6,-1
 -125 1250 l 1,7,-1
 -125 1375 l 1,0,-1
250 1000 m 1,8,-1
 250 0 l 1,9,-1
 0 0 l 1,10,-1
 0 1000 l 1,11,-1
 250 1000 l 1,8,-1
EndSplineSet
EndChar

StartChar: Iacute
Encoding: 140 205 138
Width: 375
GlyphClass: 1
Flags: W
LayerCount: 2
Fore
SplineSet
0 1125 m 1,0,-1
 250 1125 l 1,1,-1
 250 1250 l 1,2,-1
 375 1250 l 1,3,-1
 375 1375 l 1,4,-1
 125 1375 l 1,5,-1
 125 1250 l 1,6,-1
 0 1250 l 1,7,-1
 0 1125 l 1,0,-1
250 1000 m 1,8,-1
 250 0 l 1,9,-1
 0 0 l 1,10,-1
 0 1000 l 1,11,-1
 250 1000 l 1,8,-1
EndSplineSet
EndChar

StartChar: Icircumflex
Encoding: 141 206 139
Width: 375
GlyphClass: 1
Flags: W
LayerCount: 2
Fore
SplineSet
250 1250 m 1,0,-1
 0 1250 l 1,1,-1
 0 1125 l 1,2,-1
 -125 1125 l 1,3,-1
 -125 1250 l 1,4,-1
 0 1250 l 1,5,-1
 0 1375 l 1,6,-1
 250 1375 l 1,7,-1
 250 1250 l 1,8,-1
 375 1250 l 1,9,-1
 375 1125 l 1,10,-1
 250 1125 l 1,11,-1
 250 1250 l 1,0,-1
250 1000 m 1,12,-1
 250 0 l 1,13,-1
 0 0 l 1,14,-1
 0 1000 l 1,15,-1
 250 1000 l 1,12,-1
EndSplineSet
EndChar

StartChar: Idieresis
Encoding: 142 207 140
Width: 375
GlyphClass: 1
Flags: W
LayerCount: 2
Fore
SplineSet
-125 1250 m 1,0,-1
 0 1250 l 1,1,-1
 0 1125 l 1,2,-1
 -125 1125 l 1,3,-1
 -125 1250 l 1,0,-1
250 1250 m 1,4,-1
 375 1250 l 1,5,-1
 375 1125 l 1,6,-1
 250 1125 l 1,7,-1
 250 1250 l 1,4,-1
250 1000 m 1,8,-1
 250 0 l 1,9,-1
 0 0 l 1,10,-1
 0 1000 l 1,11,-1
 250 1000 l 1,8,-1
EndSplineSet
EndChar

StartChar: Eth
Encoding: 143 208 141
Width: 750
GlyphClass: 1
Flags: W
LayerCount: 2
Fore
SplineSet
625 500 m 1,0,-1
 375 500 l 1,1,-1
 375 375 l 1,2,-1
 625 375 l 1,3,-1
 625 250 l 1,4,-1
 250 250 l 1,5,-1
 250 125 l 1,6,-1
 125 125 l 1,7,-1
 125 250 l 1,8,-1
 0 250 l 1,9,-1
 0 375 l 1,10,-1
 250 375 l 1,11,-1
 250 500 l 1,12,-1
 0 500 l 1,13,-1
 0 625 l 1,14,-1
 375 625 l 1,15,-1
 375 750 l 1,16,-1
 500 750 l 1,17,-1
 500 625 l 1,18,-1
 625 625 l 1,19,-1
 625 500 l 1,0,-1
EndSplineSet
Validated: 1
EndChar

StartChar: Ntilde
Encoding: 144 209 142
Width: 1000
GlyphClass: 1
Flags: W
LayerCount: 2
Fore
SplineSet
750 1250 m 17,0,-1
 750 1375 l 1,1,-1
 625 1375 l 9,2,-1
 625 1250 l 25,3,-1
 750 1250 l 17,0,-1
250 1125 m 17,4,-1
 250 1250 l 1,5,-1
 125 1250 l 9,6,-1
 125 1125 l 25,7,-1
 250 1125 l 17,4,-1
625 1125 m 17,8,-1
 375 1125 l 1,9,-1
 375 1250 l 1,10,-1
 250 1250 l 9,11,-1
 250 1375 l 17,12,-1
 375 1375 l 1,13,-1
 375 1250 l 1,14,-1
 625 1250 l 9,15,-1
 625 1125 l 17,8,-1
875 1000 m 1,16,-1
 875 0 l 1,17,-1
 625 0 l 1,18,-1
 625 125 l 1,19,-1
 500 125 l 1,20,-1
 500 250 l 1,21,-1
 375 250 l 1,22,-1
 375 500 l 1,23,-1
 250 500 l 1,24,-1
 250 0 l 1,25,-1
 0 0 l 1,26,-1
 0 1000 l 1,27,-1
 250 1000 l 1,28,-1
 250 875 l 1,29,-1
 375 875 l 1,30,-1
 375 750 l 1,31,-1
 500 750 l 1,32,-1
 500 500 l 1,33,-1
 625 500 l 1,34,-1
 625 1000 l 1,35,-1
 875 1000 l 1,16,-1
EndSplineSet
EndChar

StartChar: Ograve
Encoding: 145 210 143
Width: 1125
GlyphClass: 1
Flags: W
LayerCount: 2
Fore
SplineSet
250 1375 m 5,0,-1
 500 1375 l 5,1,-1
 500 1250 l 5,2,-1
 625 1250 l 5,3,-1
 625 1125 l 5,4,-1
 375 1125 l 5,5,-1
 375 1250 l 5,6,-1
 250 1250 l 5,7,-1
 250 1375 l 5,0,-1
620 875 m 1,8,-1
 380 875 l 1,9,-1
 380 750 l 1,10,-1
 255 750 l 1,11,-1
 255 250 l 1,12,-1
 380 250 l 1,13,-1
 380 125 l 1,14,-1
 620 125 l 1,15,-1
 620 250 l 1,16,-1
 745 250 l 1,17,-1
 745 750 l 1,18,-1
 620 750 l 1,19,-1
 620 875 l 1,8,-1
750 1000 m 1,20,-1
 750 875 l 1,21,-1
 875 875 l 1,22,-1
 875 750 l 1,23,-1
 1000 750 l 1,24,-1
 1000 250 l 1,25,-1
 875 250 l 1,26,-1
 875 125 l 1,27,-1
 750 125 l 1,28,-1
 750 0 l 1,29,-1
 250 0 l 1,30,-1
 250 125 l 1,31,-1
 125 125 l 1,32,-1
 125 250 l 1,33,-1
 0 250 l 1,34,-1
 0 750 l 1,35,-1
 125 750 l 1,36,-1
 125 875 l 1,37,-1
 250 875 l 1,38,-1
 250 1000 l 1,39,-1
 750 1000 l 1,20,-1
EndSplineSet
EndChar

StartChar: Oacute
Encoding: 146 211 144
Width: 1125
GlyphClass: 1
Flags: W
LayerCount: 2
Fore
SplineSet
375 1125 m 5,0,-1
 625 1125 l 5,1,-1
 625 1250 l 5,2,-1
 750 1250 l 5,3,-1
 750 1375 l 5,4,-1
 500 1375 l 5,5,-1
 500 1250 l 5,6,-1
 375 1250 l 5,7,-1
 375 1125 l 5,0,-1
620 875 m 1,8,-1
 380 875 l 1,9,-1
 380 750 l 1,10,-1
 255 750 l 1,11,-1
 255 250 l 1,12,-1
 380 250 l 1,13,-1
 380 125 l 1,14,-1
 620 125 l 1,15,-1
 620 250 l 1,16,-1
 745 250 l 1,17,-1
 745 750 l 1,18,-1
 620 750 l 1,19,-1
 620 875 l 1,8,-1
750 1000 m 1,20,-1
 750 875 l 1,21,-1
 875 875 l 1,22,-1
 875 750 l 1,23,-1
 1000 750 l 1,24,-1
 1000 250 l 1,25,-1
 875 250 l 1,26,-1
 875 125 l 1,27,-1
 750 125 l 1,28,-1
 750 0 l 1,29,-1
 250 0 l 1,30,-1
 250 125 l 1,31,-1
 125 125 l 1,32,-1
 125 250 l 1,33,-1
 0 250 l 1,34,-1
 0 750 l 1,35,-1
 125 750 l 1,36,-1
 125 875 l 1,37,-1
 250 875 l 1,38,-1
 250 1000 l 1,39,-1
 750 1000 l 1,20,-1
EndSplineSet
EndChar

StartChar: Ocircumflex
Encoding: 147 212 145
Width: 1125
GlyphClass: 1
Flags: W
LayerCount: 2
Fore
SplineSet
625 1250 m 5,0,-1
 375 1250 l 5,1,-1
 375 1125 l 5,2,-1
 250 1125 l 5,3,-1
 250 1250 l 5,4,-1
 375 1250 l 5,5,-1
 375 1375 l 5,6,-1
 625 1375 l 5,7,-1
 625 1250 l 5,8,-1
 750 1250 l 5,9,-1
 750 1125 l 5,10,-1
 625 1125 l 5,11,-1
 625 1250 l 5,0,-1
620 875 m 1,12,-1
 380 875 l 1,13,-1
 380 750 l 1,14,-1
 255 750 l 1,15,-1
 255 250 l 1,16,-1
 380 250 l 1,17,-1
 380 125 l 1,18,-1
 620 125 l 1,19,-1
 620 250 l 1,20,-1
 745 250 l 1,21,-1
 745 750 l 1,22,-1
 620 750 l 1,23,-1
 620 875 l 1,12,-1
750 1000 m 1,24,-1
 750 875 l 1,25,-1
 875 875 l 1,26,-1
 875 750 l 1,27,-1
 1000 750 l 1,28,-1
 1000 250 l 1,29,-1
 875 250 l 1,30,-1
 875 125 l 1,31,-1
 750 125 l 1,32,-1
 750 0 l 1,33,-1
 250 0 l 1,34,-1
 250 125 l 1,35,-1
 125 125 l 1,36,-1
 125 250 l 1,37,-1
 0 250 l 1,38,-1
 0 750 l 1,39,-1
 125 750 l 1,40,-1
 125 875 l 1,41,-1
 250 875 l 1,42,-1
 250 1000 l 1,43,-1
 750 1000 l 1,24,-1
EndSplineSet
EndChar

StartChar: Otilde
Encoding: 148 213 146
Width: 1125
GlyphClass: 1
Flags: W
LayerCount: 2
Fore
SplineSet
875 1250 m 21,0,-1
 875 1375 l 5,1,-1
 750 1375 l 13,2,-1
 750 1250 l 29,3,-1
 875 1250 l 21,0,-1
250 1125 m 21,4,-1
 250 1250 l 5,5,-1
 125 1250 l 13,6,-1
 125 1125 l 29,7,-1
 250 1125 l 21,4,-1
750 1125 m 21,8,-1
 500 1125 l 5,9,-1
 500 1250 l 5,10,-1
 250 1250 l 13,11,-1
 250 1375 l 21,12,-1
 500 1375 l 5,13,-1
 500 1250 l 5,14,-1
 750 1250 l 13,15,-1
 750 1125 l 21,8,-1
620 875 m 1,16,-1
 380 875 l 1,17,-1
 380 750 l 1,18,-1
 255 750 l 1,19,-1
 255 250 l 1,20,-1
 380 250 l 1,21,-1
 380 125 l 1,22,-1
 620 125 l 1,23,-1
 620 250 l 1,24,-1
 745 250 l 1,25,-1
 745 750 l 1,26,-1
 620 750 l 1,27,-1
 620 875 l 1,16,-1
750 1000 m 1,28,-1
 750 875 l 1,29,-1
 875 875 l 1,30,-1
 875 750 l 1,31,-1
 1000 750 l 1,32,-1
 1000 250 l 1,33,-1
 875 250 l 1,34,-1
 875 125 l 1,35,-1
 750 125 l 1,36,-1
 750 0 l 1,37,-1
 250 0 l 1,38,-1
 250 125 l 1,39,-1
 125 125 l 1,40,-1
 125 250 l 1,41,-1
 0 250 l 1,42,-1
 0 750 l 1,43,-1
 125 750 l 1,44,-1
 125 875 l 1,45,-1
 250 875 l 1,46,-1
 250 1000 l 1,47,-1
 750 1000 l 1,28,-1
EndSplineSet
EndChar

StartChar: Odieresis
Encoding: 149 214 147
Width: 1125
GlyphClass: 1
Flags: W
LayerCount: 2
Fore
SplineSet
250 1250 m 5,0,-1
 375 1250 l 5,1,-1
 375 1125 l 5,2,-1
 250 1125 l 5,3,-1
 250 1250 l 5,0,-1
625 1250 m 5,4,-1
 750 1250 l 5,5,-1
 750 1125 l 5,6,-1
 625 1125 l 5,7,-1
 625 1250 l 5,4,-1
620 875 m 1,8,-1
 380 875 l 1,9,-1
 380 750 l 1,10,-1
 255 750 l 1,11,-1
 255 250 l 1,12,-1
 380 250 l 1,13,-1
 380 125 l 1,14,-1
 620 125 l 1,15,-1
 620 250 l 1,16,-1
 745 250 l 1,17,-1
 745 750 l 1,18,-1
 620 750 l 1,19,-1
 620 875 l 1,8,-1
750 1000 m 1,20,-1
 750 875 l 1,21,-1
 875 875 l 1,22,-1
 875 750 l 1,23,-1
 1000 750 l 1,24,-1
 1000 250 l 1,25,-1
 875 250 l 1,26,-1
 875 125 l 1,27,-1
 750 125 l 1,28,-1
 750 0 l 1,29,-1
 250 0 l 1,30,-1
 250 125 l 1,31,-1
 125 125 l 1,32,-1
 125 250 l 1,33,-1
 0 250 l 1,34,-1
 0 750 l 1,35,-1
 125 750 l 1,36,-1
 125 875 l 1,37,-1
 250 875 l 1,38,-1
 250 1000 l 1,39,-1
 750 1000 l 1,20,-1
EndSplineSet
EndChar

StartChar: multiply
Encoding: 150 215 148
Width: 750
GlyphClass: 1
Flags: W
LayerCount: 2
Fore
SplineSet
625 625 m 1,0,-1
 625 500 l 1,1,-1
 500 500 l 1,2,-1
 500 0 l 1,3,-1
 375 0 l 1,4,-1
 375 500 l 1,5,-1
 250 500 l 1,6,-1
 250 0 l 1,7,-1
 125 0 l 1,8,-1
 125 500 l 1,9,-1
 0 500 l 1,10,-1
 0 625 l 1,11,-1
 625 625 l 1,0,-1
EndSplineSet
Validated: 1
EndChar

StartChar: Oslash
Encoding: 151 216 149
Width: 750
GlyphClass: 1
Flags: W
LayerCount: 2
Fore
SplineSet
0 125 m 1,0,-1
 250 125 l 1,1,-1
 250 375 l 1,2,-1
 0 375 l 1,3,-1
 0 500 l 1,4,-1
 250 500 l 1,5,-1
 250 750 l 1,6,-1
 375 750 l 1,7,-1
 375 500 l 1,8,-1
 625 500 l 1,9,-1
 625 375 l 1,10,-1
 375 375 l 1,11,-1
 375 125 l 1,12,-1
 625 125 l 1,13,-1
 625 0 l 1,14,-1
 0 0 l 1,15,-1
 0 125 l 1,0,-1
EndSplineSet
Validated: 1
EndChar

StartChar: Ugrave
Encoding: 152 217 150
Width: 1000
GlyphClass: 1
Flags: W
LayerCount: 2
Fore
SplineSet
250 1375 m 1,0,-1
 500 1375 l 1,1,-1
 500 1250 l 1,2,-1
 625 1250 l 1,3,-1
 625 1125 l 1,4,-1
 375 1125 l 1,5,-1
 375 1250 l 1,6,-1
 250 1250 l 1,7,-1
 250 1375 l 1,0,-1
875 1000 m 1,8,-1
 875 125 l 1,9,-1
 750 125 l 1,10,-1
 750 0 l 1,11,-1
 125 0 l 1,12,-1
 125 125 l 1,13,-1
 0 125 l 1,14,-1
 0 1000 l 1,15,-1
 250 1000 l 1,16,-1
 250 125 l 1,17,-1
 625 125 l 1,18,-1
 625 1000 l 1,19,-1
 875 1000 l 1,8,-1
EndSplineSet
EndChar

StartChar: Uacute
Encoding: 153 218 151
Width: 1000
GlyphClass: 1
Flags: W
LayerCount: 2
Fore
SplineSet
375 1125 m 1,0,-1
 625 1125 l 1,1,-1
 625 1250 l 1,2,-1
 750 1250 l 1,3,-1
 750 1375 l 1,4,-1
 500 1375 l 1,5,-1
 500 1250 l 1,6,-1
 375 1250 l 1,7,-1
 375 1125 l 1,0,-1
875 1000 m 1,8,-1
 875 125 l 1,9,-1
 750 125 l 1,10,-1
 750 0 l 1,11,-1
 125 0 l 1,12,-1
 125 125 l 1,13,-1
 0 125 l 1,14,-1
 0 1000 l 1,15,-1
 250 1000 l 1,16,-1
 250 125 l 1,17,-1
 625 125 l 1,18,-1
 625 1000 l 1,19,-1
 875 1000 l 1,8,-1
EndSplineSet
EndChar

StartChar: Ucircumflex
Encoding: 154 219 152
Width: 1000
GlyphClass: 1
Flags: W
LayerCount: 2
Fore
SplineSet
625 1250 m 1,0,-1
 250 1250 l 1,1,-1
 250 1125 l 1,2,-1
 125 1125 l 1,3,-1
 125 1250 l 1,4,-1
 250 1250 l 1,5,-1
 250 1375 l 1,6,-1
 625 1375 l 1,7,-1
 625 1250 l 1,8,-1
 750 1250 l 1,9,-1
 750 1125 l 1,10,-1
 625 1125 l 1,11,-1
 625 1250 l 1,0,-1
875 1000 m 1,12,-1
 875 125 l 1,13,-1
 750 125 l 1,14,-1
 750 0 l 1,15,-1
 125 0 l 1,16,-1
 125 125 l 1,17,-1
 0 125 l 1,18,-1
 0 1000 l 1,19,-1
 250 1000 l 1,20,-1
 250 125 l 1,21,-1
 625 125 l 1,22,-1
 625 1000 l 1,23,-1
 875 1000 l 1,12,-1
EndSplineSet
EndChar

StartChar: Udieresis
Encoding: 155 220 153
Width: 1000
GlyphClass: 1
Flags: W
LayerCount: 2
Fore
SplineSet
125 1250 m 1,0,-1
 250 1250 l 1,1,-1
 250 1125 l 1,2,-1
 125 1125 l 1,3,-1
 125 1250 l 1,0,-1
625 1250 m 1,4,-1
 750 1250 l 1,5,-1
 750 1125 l 1,6,-1
 625 1125 l 1,7,-1
 625 1250 l 1,4,-1
875 1000 m 1,8,-1
 875 125 l 1,9,-1
 750 125 l 1,10,-1
 750 0 l 1,11,-1
 125 0 l 1,12,-1
 125 125 l 1,13,-1
 0 125 l 1,14,-1
 0 1000 l 1,15,-1
 250 1000 l 1,16,-1
 250 125 l 1,17,-1
 625 125 l 1,18,-1
 625 1000 l 1,19,-1
 875 1000 l 1,8,-1
EndSplineSet
EndChar

StartChar: Yacute
Encoding: 156 221 154
Width: 500
GlyphClass: 1
Flags: W
LayerCount: 2
Fore
SplineSet
250 875 m 1,0,-1
 375 875 l 1,1,-1
 375 750 l 1,2,-1
 250 750 l 1,3,-1
 250 625 l 1,4,-1
 125 625 l 1,5,-1
 125 500 l 1,6,-1
 250 500 l 1,7,-1
 250 375 l 1,8,-1
 375 375 l 1,9,-1
 375 250 l 1,10,-1
 250 250 l 1,11,-1
 250 375 l 1,12,-1
 125 375 l 1,13,-1
 125 500 l 1,14,-1
 0 500 l 1,15,-1
 0 625 l 1,16,-1
 125 625 l 1,17,-1
 125 750 l 1,18,-1
 250 750 l 1,19,-1
 250 875 l 1,0,-1
0 125 m 1,20,-1
 375 125 l 1,21,-1
 375 0 l 1,22,-1
 0 0 l 1,23,-1
 0 125 l 1,20,-1
EndSplineSet
Validated: 5
EndChar

StartChar: Thorn
Encoding: 157 222 155
Width: 750
GlyphClass: 1
Flags: W
LayerCount: 2
Fore
SplineSet
500 125 m 1,0,-1
 500 0 l 1,1,-1
 124 0 l 1,2,-1
 124 125 l 1,3,-1
 0 125 l 1,4,-1
 0 374 l 1,5,-1
 124 374 l 1,6,-1
 124 500 l 1,7,-1
 250 500 l 1,8,-1
 250 624 l 1,9,-1
 375 624 l 1,10,-1
 375 749 l 1,11,-1
 250 749 l 1,12,-1
 250 873 l 1,13,-1
 374 873 l 1,14,-1
 374 749 l 1,15,-1
 501 749 l 1,16,-1
 501 500 l 1,17,-1
 625 500 l 1,18,-1
 625 125 l 1,19,-1
 500 125 l 1,0,-1
495 125 m 1,20,-1
 495 500 l 1,21,-1
 255 500 l 1,22,-1
 255 374 l 1,23,-1
 130 374 l 1,24,-1
 130 125 l 1,25,-1
 495 125 l 1,20,-1
EndSplineSet
Validated: 5
EndChar

StartChar: germandbls
Encoding: 158 223 156
Width: 750
GlyphClass: 1
Flags: W
LayerCount: 2
Fore
SplineSet
250 0 m 1,0,-1
 250 125 l 1,1,-1
 500 125 l 1,2,-1
 500 375 l 1,3,-1
 375 375 l 1,4,-1
 375 500 l 1,5,-1
 500 500 l 1,6,-1
 500 750 l 1,7,-1
 250 750 l 1,8,-1
 250 625 l 1,9,-1
 125 625 l 1,10,-1
 125 -125 l 1,11,-1
 0 -125 l 1,12,-1
 0 625 l 1,13,-1
 125 625 l 1,14,-1
 125 750 l 1,15,-1
 250 750 l 1,16,-1
 250 875 l 1,17,-1
 500 875 l 1,18,-1
 500 750 l 1,19,-1
 625 750 l 1,20,-1
 625 500 l 1,21,-1
 500 500 l 1,22,-1
 500 375 l 1,23,-1
 625 375 l 1,24,-1
 625 125 l 1,25,-1
 500 125 l 1,26,-1
 500 0 l 1,27,-1
 250 0 l 1,0,-1
EndSplineSet
Validated: 5
EndChar

StartChar: agrave
Encoding: 159 224 157
Width: 875
GlyphClass: 1
Flags: W
LayerCount: 2
Fore
SplineSet
500 370 m 1,0,-1
 250 370 l 1,1,-1
 250 130 l 1,2,-1
 375 130 l 1,3,-1
 375 250 l 1,4,-1
 500 250 l 1,5,-1
 500 370 l 1,0,-1
500 620 m 1,6,-1
 250 620 l 1,7,-1
 250 505 l 1,8,-1
 500 505 l 1,9,-1
 500 620 l 1,6,-1
625 750 m 1,10,-1
 625 625 l 1,11,-1
 750 625 l 1,12,-1
 750 0 l 1,13,-1
 125 0 l 1,14,-1
 125 125 l 1,15,-1
 0 125 l 1,16,-1
 0 375 l 1,17,-1
 125 375 l 1,18,-1
 125 500 l 1,19,-1
 0 500 l 1,20,-1
 0 625 l 1,21,-1
 125 625 l 1,22,-1
 125 750 l 1,23,-1
 625 750 l 1,10,-1
125 1125 m 5,24,-1
 375 1125 l 5,25,-1
 375 1000 l 5,26,-1
 500 1000 l 5,27,-1
 500 875 l 5,28,-1
 250 875 l 5,29,-1
 250 1000 l 5,30,-1
 125 1000 l 5,31,-1
 125 1125 l 5,24,-1
500 370 m 1,32,-1
 250 370 l 1,33,-1
 250 130 l 1,34,-1
 375 130 l 1,35,-1
 375 250 l 1,36,-1
 500 250 l 1,37,-1
 500 370 l 1,32,-1
500 620 m 1,38,-1
 250 620 l 1,39,-1
 250 505 l 1,40,-1
 500 505 l 1,41,-1
 500 620 l 1,38,-1
625 750 m 1,42,-1
 625 625 l 1,43,-1
 750 625 l 1,44,-1
 750 0 l 1,45,-1
 125 0 l 1,46,-1
 125 125 l 1,47,-1
 0 125 l 1,48,-1
 0 375 l 1,49,-1
 125 375 l 1,50,-1
 125 500 l 1,51,-1
 0 500 l 1,52,-1
 0 625 l 1,53,-1
 125 625 l 1,54,-1
 125 750 l 1,55,-1
 625 750 l 1,42,-1
EndSplineSet
Validated: 5
EndChar

StartChar: aacute
Encoding: 160 225 158
Width: 875
GlyphClass: 1
Flags: W
LayerCount: 2
Fore
SplineSet
500 370 m 1,0,-1
 250 370 l 1,1,-1
 250 130 l 1,2,-1
 375 130 l 1,3,-1
 375 250 l 1,4,-1
 500 250 l 1,5,-1
 500 370 l 1,0,-1
500 620 m 1,6,-1
 250 620 l 1,7,-1
 250 505 l 1,8,-1
 500 505 l 1,9,-1
 500 620 l 1,6,-1
625 750 m 1,10,-1
 625 625 l 1,11,-1
 750 625 l 1,12,-1
 750 0 l 1,13,-1
 125 0 l 1,14,-1
 125 125 l 1,15,-1
 0 125 l 1,16,-1
 0 375 l 1,17,-1
 125 375 l 1,18,-1
 125 500 l 1,19,-1
 0 500 l 1,20,-1
 0 625 l 1,21,-1
 125 625 l 1,22,-1
 125 750 l 1,23,-1
 625 750 l 1,10,-1
250 875 m 5,24,-1
 500 875 l 5,25,-1
 500 1000 l 5,26,-1
 625 1000 l 5,27,-1
 625 1125 l 5,28,-1
 375 1125 l 5,29,-1
 375 1000 l 5,30,-1
 250 1000 l 5,31,-1
 250 875 l 5,24,-1
EndSplineSet
EndChar

StartChar: acircumflex
Encoding: 161 226 159
Width: 875
GlyphClass: 1
Flags: W
LayerCount: 2
Fore
SplineSet
500 370 m 1,0,-1
 250 370 l 1,1,-1
 250 130 l 1,2,-1
 375 130 l 1,3,-1
 375 250 l 1,4,-1
 500 250 l 1,5,-1
 500 370 l 1,0,-1
500 620 m 1,6,-1
 250 620 l 1,7,-1
 250 505 l 1,8,-1
 500 505 l 1,9,-1
 500 620 l 1,6,-1
625 750 m 1,10,-1
 625 625 l 1,11,-1
 750 625 l 1,12,-1
 750 0 l 1,13,-1
 125 0 l 1,14,-1
 125 125 l 1,15,-1
 0 125 l 1,16,-1
 0 375 l 1,17,-1
 125 375 l 1,18,-1
 125 500 l 1,19,-1
 0 500 l 1,20,-1
 0 625 l 1,21,-1
 125 625 l 1,22,-1
 125 750 l 1,23,-1
 625 750 l 1,10,-1
500 370 m 1,24,-1
 250 370 l 1,25,-1
 250 130 l 1,26,-1
 375 130 l 1,27,-1
 375 250 l 1,28,-1
 500 250 l 1,29,-1
 500 370 l 1,24,-1
500 620 m 1,30,-1
 250 620 l 1,31,-1
 250 505 l 1,32,-1
 500 505 l 1,33,-1
 500 620 l 1,30,-1
625 750 m 1,34,-1
 625 625 l 1,35,-1
 750 625 l 1,36,-1
 750 0 l 1,37,-1
 125 0 l 1,38,-1
 125 125 l 1,39,-1
 0 125 l 1,40,-1
 0 375 l 1,41,-1
 125 375 l 1,42,-1
 125 500 l 1,43,-1
 0 500 l 1,44,-1
 0 625 l 1,45,-1
 125 625 l 1,46,-1
 125 750 l 1,47,-1
 625 750 l 1,34,-1
500 1000 m 5,48,-1
 250 1000 l 5,49,-1
 250 875 l 5,50,-1
 125 875 l 5,51,-1
 125 1000 l 5,52,-1
 250 1000 l 5,53,-1
 250 1125 l 5,54,-1
 500 1125 l 5,55,-1
 500 1000 l 5,56,-1
 625 1000 l 5,57,-1
 625 875 l 5,58,-1
 500 875 l 5,59,-1
 500 1000 l 5,48,-1
EndSplineSet
Validated: 5
EndChar

StartChar: atilde
Encoding: 162 227 160
Width: 875
GlyphClass: 1
Flags: W
LayerCount: 2
Fore
SplineSet
500 370 m 1,0,-1
 250 370 l 1,1,-1
 250 130 l 1,2,-1
 375 130 l 1,3,-1
 375 250 l 1,4,-1
 500 250 l 1,5,-1
 500 370 l 1,0,-1
500 620 m 1,6,-1
 250 620 l 1,7,-1
 250 505 l 1,8,-1
 500 505 l 1,9,-1
 500 620 l 1,6,-1
625 750 m 1,10,-1
 625 625 l 1,11,-1
 750 625 l 1,12,-1
 750 0 l 1,13,-1
 125 0 l 1,14,-1
 125 125 l 1,15,-1
 0 125 l 1,16,-1
 0 375 l 1,17,-1
 125 375 l 1,18,-1
 125 500 l 1,19,-1
 0 500 l 1,20,-1
 0 625 l 1,21,-1
 125 625 l 1,22,-1
 125 750 l 1,23,-1
 625 750 l 1,10,-1
625 1125 m 17,24,-1
 500 1125 l 1,25,-1
 500 1000 l 1,26,-1
 375 1000 l 1,27,-1
 375 1125 l 1,28,-1
 125 1125 l 9,29,-1
 125 875 l 17,30,-1
 250 875 l 1,31,-1
 250 1000 l 1,32,-1
 375 1000 l 1,33,-1
 375 875 l 1,34,-1
 625 875 l 9,35,-1
 625 1125 l 17,24,-1
EndSplineSet
Validated: 5
EndChar

StartChar: adieresis
Encoding: 163 228 161
Width: 875
GlyphClass: 1
Flags: W
LayerCount: 2
Fore
SplineSet
500 370 m 5,0,-1
 250 370 l 5,1,-1
 250 130 l 5,2,-1
 375 130 l 5,3,-1
 375 250 l 5,4,-1
 500 250 l 5,5,-1
 500 370 l 5,0,-1
500 620 m 5,6,-1
 250 620 l 5,7,-1
 250 505 l 5,8,-1
 500 505 l 5,9,-1
 500 620 l 5,6,-1
625 750 m 5,10,-1
 625 625 l 5,11,-1
 750 625 l 5,12,-1
 750 0 l 5,13,-1
 125 0 l 5,14,-1
 125 125 l 5,15,-1
 0 125 l 5,16,-1
 0 375 l 5,17,-1
 125 375 l 5,18,-1
 125 500 l 5,19,-1
 0 500 l 5,20,-1
 0 625 l 5,21,-1
 125 625 l 5,22,-1
 125 750 l 5,23,-1
 625 750 l 5,10,-1
500 370 m 5,24,-1
 250 370 l 5,25,-1
 250 130 l 5,26,-1
 375 130 l 5,27,-1
 375 250 l 5,28,-1
 500 250 l 5,29,-1
 500 370 l 5,24,-1
500 620 m 5,30,-1
 250 620 l 5,31,-1
 250 505 l 5,32,-1
 500 505 l 5,33,-1
 500 620 l 5,30,-1
625 750 m 5,34,-1
 625 625 l 5,35,-1
 750 625 l 5,36,-1
 750 0 l 5,37,-1
 125 0 l 5,38,-1
 125 125 l 5,39,-1
 0 125 l 5,40,-1
 0 375 l 5,41,-1
 125 375 l 5,42,-1
 125 500 l 5,43,-1
 0 500 l 5,44,-1
 0 625 l 5,45,-1
 125 625 l 5,46,-1
 125 750 l 5,47,-1
 625 750 l 5,34,-1
125 1000 m 1,48,-1
 250 1000 l 1,49,-1
 250 875 l 1,50,-1
 125 875 l 1,51,-1
 125 1000 l 1,48,-1
500 1000 m 1,52,-1
 625 1000 l 1,53,-1
 625 875 l 1,54,-1
 500 875 l 1,55,-1
 500 1000 l 1,52,-1
EndSplineSet
Validated: 5
EndChar

StartChar: aring
Encoding: 164 229 162
Width: 750
GlyphClass: 1
Flags: W
LayerCount: 2
Fore
SplineSet
130 125 m 5,0,-1
 500 125 l 5,1,-1
 500 500 l 5,2,-1
 130 500 l 5,3,-1
 130 125 l 5,0,-1
255 750 m 5,4,-1
 495 750 l 5,5,-1
 495 875 l 5,6,-1
 255 875 l 5,7,-1
 255 750 l 5,4,-1
250 875 m 5,8,-1
 250 1000 l 5,9,-1
 500 1000 l 5,10,-1
 500 875 l 5,11,-1
 625 875 l 5,12,-1
 625 750 l 5,13,-1
 500 750 l 5,14,-1
 500 625 l 5,15,-1
 625 625 l 5,16,-1
 625 0 l 5,17,-1
 125 0 l 5,18,-1
 125 125 l 5,19,-1
 0 125 l 5,20,-1
 0 500 l 5,21,-1
 125 500 l 5,22,-1
 125 625 l 5,23,-1
 250 625 l 5,24,-1
 250 750 l 5,25,-1
 125 750 l 5,26,-1
 125 875 l 5,27,-1
 250 875 l 5,8,-1
EndSplineSet
EndChar

StartChar: ae
Encoding: 165 230 163
Width: 875
GlyphClass: 1
Flags: W
LayerCount: 2
Fore
SplineSet
500 1000 m 1,0,-1
 375 1000 l 1,1,-1
 375 1125 l 1,2,-1
 250 1125 l 1,3,-1
 250 1250 l 1,4,-1
 375 1250 l 1,5,-1
 375 1125 l 1,6,-1
 500 1125 l 1,7,-1
 500 1000 l 1,0,-1
125 745 m 1,8,-1
 125 500 l 1,9,-1
 625 500 l 1,10,-1
 625 745 l 1,11,-1
 125 745 l 1,8,-1
625 875 m 1,12,-1
 625 750 l 1,13,-1
 750 750 l 1,14,-1
 750 0 l 1,15,-1
 625 0 l 1,16,-1
 625 375 l 1,17,-1
 125 375 l 1,18,-1
 125 0 l 1,19,-1
 0 0 l 1,20,-1
 0 750 l 1,21,-1
 125 750 l 1,22,-1
 125 875 l 1,23,-1
 625 875 l 1,12,-1
EndSplineSet
Validated: 5
EndChar

StartChar: ccedilla
Encoding: 166 231 164
Width: 875
GlyphClass: 1
Flags: W
LayerCount: 2
Fore
SplineSet
625 0 m 1,0,-1
 500 0 l 1,1,-1
 500 -125 l 5,2,-1
 375 -125 l 5,3,-1
 375 -250 l 5,4,-1
 125 -250 l 5,5,-1
 125 -125 l 5,6,-1
 250 -125 l 5,7,-1
 250 0 l 1,8,-1
 125 0 l 1,9,-1
 125 125 l 1,10,-1
 0 125 l 1,11,-1
 0 625 l 1,12,-1
 125 625 l 1,13,-1
 125 750 l 1,14,-1
 625 750 l 1,15,-1
 625 625 l 1,16,-1
 750 625 l 1,17,-1
 750 500 l 1,18,-1
 500 500 l 1,19,-1
 500 625 l 1,20,-1
 250 625 l 1,21,-1
 250 125 l 1,22,-1
 500 125 l 1,23,-1
 500 250 l 1,24,-1
 750 250 l 1,25,-1
 750 125 l 1,26,-1
 625 125 l 9,27,-1
 625 0 l 1,0,-1
EndSplineSet
Validated: 1
EndChar

StartChar: egrave
Encoding: 167 232 165
Width: 875
GlyphClass: 1
Flags: W
LayerCount: 2
Fore
SplineSet
125 1125 m 1,0,-1
 375 1125 l 1,1,-1
 375 1000 l 1,2,-1
 500 1000 l 1,3,-1
 500 875 l 1,4,-1
 250 875 l 1,5,-1
 250 1000 l 1,6,-1
 125 1000 l 1,7,-1
 125 1125 l 1,0,-1
750 375 m 1,8,-1
 250 375 l 1,9,-1
 250 125 l 1,10,-1
 500 125 l 1,11,-1
 500 250 l 1,12,-1
 750 250 l 1,13,-1
 750 125 l 1,14,-1
 625 125 l 1,15,-1
 625 0 l 1,16,-1
 125 0 l 1,17,-1
 125 125 l 1,18,-1
 0 125 l 1,19,-1
 0 625 l 1,20,-1
 125 625 l 1,21,-1
 125 750 l 1,22,-1
 625 750 l 1,23,-1
 625 625 l 1,24,-1
 750 625 l 1,25,-1
 750 375 l 1,8,-1
250 500 m 1,26,-1
 500 500 l 1,27,-1
 500 620 l 1,28,-1
 250 620 l 1,29,-1
 250 500 l 1,26,-1
EndSplineSet
Validated: 1
EndChar

StartChar: eacute
Encoding: 168 233 166
Width: 875
GlyphClass: 1
Flags: W
LayerCount: 2
Fore
SplineSet
250 875 m 5,0,-1
 500 875 l 5,1,-1
 500 1000 l 5,2,-1
 625 1000 l 5,3,-1
 625 1125 l 5,4,-1
 375 1125 l 5,5,-1
 375 1000 l 5,6,-1
 250 1000 l 5,7,-1
 250 875 l 5,0,-1
750 375 m 1,8,-1
 250 375 l 1,9,-1
 250 125 l 1,10,-1
 500 125 l 1,11,-1
 500 250 l 1,12,-1
 750 250 l 1,13,-1
 750 125 l 1,14,-1
 625 125 l 1,15,-1
 625 0 l 1,16,-1
 125 0 l 1,17,-1
 125 125 l 1,18,-1
 0 125 l 1,19,-1
 0 625 l 1,20,-1
 125 625 l 1,21,-1
 125 750 l 1,22,-1
 625 750 l 1,23,-1
 625 625 l 1,24,-1
 750 625 l 1,25,-1
 750 375 l 1,8,-1
250 500 m 1,26,-1
 500 500 l 1,27,-1
 500 620 l 1,28,-1
 250 620 l 1,29,-1
 250 500 l 1,26,-1
EndSplineSet
Validated: 9
EndChar

StartChar: ecircumflex
Encoding: 169 234 167
Width: 875
GlyphClass: 1
Flags: W
LayerCount: 2
Fore
SplineSet
750 375 m 1,0,-1
 250 375 l 1,1,-1
 250 125 l 1,2,-1
 500 125 l 1,3,-1
 500 250 l 1,4,-1
 750 250 l 1,5,-1
 750 125 l 1,6,-1
 625 125 l 1,7,-1
 625 0 l 1,8,-1
 125 0 l 1,9,-1
 125 125 l 1,10,-1
 0 125 l 1,11,-1
 0 625 l 1,12,-1
 125 625 l 1,13,-1
 125 750 l 1,14,-1
 625 750 l 1,15,-1
 625 625 l 1,16,-1
 750 625 l 1,17,-1
 750 375 l 1,0,-1
250 500 m 1,18,-1
 500 500 l 1,19,-1
 500 620 l 1,20,-1
 250 620 l 1,21,-1
 250 500 l 1,18,-1
500 1000 m 5,22,-1
 250 1000 l 5,23,-1
 250 875 l 5,24,-1
 125 875 l 5,25,-1
 125 1000 l 5,26,-1
 250 1000 l 5,27,-1
 250 1125 l 5,28,-1
 500 1125 l 5,29,-1
 500 1000 l 5,30,-1
 625 1000 l 5,31,-1
 625 875 l 5,32,-1
 500 875 l 5,33,-1
 500 1000 l 5,22,-1
EndSplineSet
Validated: 5
EndChar

StartChar: edieresis
Encoding: 170 235 168
Width: 875
GlyphClass: 1
Flags: W
LayerCount: 2
Fore
SplineSet
750 375 m 1,0,-1
 250 375 l 1,1,-1
 250 125 l 1,2,-1
 500 125 l 1,3,-1
 500 250 l 1,4,-1
 750 250 l 1,5,-1
 750 125 l 1,6,-1
 625 125 l 1,7,-1
 625 0 l 1,8,-1
 125 0 l 1,9,-1
 125 125 l 1,10,-1
 0 125 l 1,11,-1
 0 625 l 1,12,-1
 125 625 l 1,13,-1
 125 750 l 1,14,-1
 625 750 l 1,15,-1
 625 625 l 1,16,-1
 750 625 l 1,17,-1
 750 375 l 1,0,-1
250 500 m 1,18,-1
 500 500 l 1,19,-1
 500 620 l 1,20,-1
 250 620 l 1,21,-1
 250 500 l 1,18,-1
125 1000 m 5,22,-1
 250 1000 l 5,23,-1
 250 875 l 5,24,-1
 125 875 l 5,25,-1
 125 1000 l 5,22,-1
500 1000 m 5,26,-1
 625 1000 l 5,27,-1
 625 875 l 5,28,-1
 500 875 l 5,29,-1
 500 1000 l 5,26,-1
EndSplineSet
Validated: 1
EndChar

StartChar: igrave
Encoding: 171 236 169
Width: 375
GlyphClass: 1
Flags: W
LayerCount: 2
Fore
SplineSet
-125 1125 m 1,0,-1
 125 1125 l 1,1,-1
 125 1000 l 1,2,-1
 250 1000 l 1,3,-1
 250 875 l 1,4,-1
 0 875 l 1,5,-1
 0 1000 l 1,6,-1
 -125 1000 l 1,7,-1
 -125 1125 l 1,0,-1
250 750 m 1,8,-1
 250 0 l 1,9,-1
 0 0 l 1,10,-1
 0 750 l 1,11,-1
 250 750 l 1,8,-1
EndSplineSet
Validated: 1
EndChar

StartChar: iacute
Encoding: 172 237 170
Width: 375
GlyphClass: 1
Flags: W
LayerCount: 2
Fore
SplineSet
0 875 m 1,0,-1
 250 875 l 1,1,-1
 250 1000 l 1,2,-1
 375 1000 l 1,3,-1
 375 1125 l 1,4,-1
 125 1125 l 1,5,-1
 125 1000 l 1,6,-1
 0 1000 l 1,7,-1
 0 875 l 1,0,-1
250 750 m 1,8,-1
 250 0 l 1,9,-1
 0 0 l 1,10,-1
 0 750 l 1,11,-1
 250 750 l 1,8,-1
EndSplineSet
Validated: 9
EndChar

StartChar: icircumflex
Encoding: 173 238 171
Width: 375
GlyphClass: 1
Flags: W
LayerCount: 2
Fore
SplineSet
250 1000 m 1,0,-1
 0 1000 l 1,1,-1
 0 875 l 1,2,-1
 -125 875 l 1,3,-1
 -125 1000 l 1,4,-1
 0 1000 l 1,5,-1
 0 1125 l 1,6,-1
 250 1125 l 1,7,-1
 250 1000 l 1,8,-1
 375 1000 l 1,9,-1
 375 875 l 1,10,-1
 250 875 l 1,11,-1
 250 1000 l 1,0,-1
250 750 m 1,12,-1
 250 0 l 1,13,-1
 0 0 l 1,14,-1
 0 750 l 1,15,-1
 250 750 l 1,12,-1
EndSplineSet
Validated: 5
EndChar

StartChar: idieresis
Encoding: 174 239 172
Width: 375
GlyphClass: 1
Flags: W
LayerCount: 2
Fore
SplineSet
-125 1000 m 1,0,-1
 0 1000 l 1,1,-1
 0 875 l 1,2,-1
 -125 875 l 1,3,-1
 -125 1000 l 1,0,-1
250 1000 m 1,4,-1
 375 1000 l 1,5,-1
 375 875 l 1,6,-1
 250 875 l 1,7,-1
 250 1000 l 1,4,-1
250 750 m 1,8,-1
 250 0 l 1,9,-1
 0 0 l 1,10,-1
 0 750 l 1,11,-1
 250 750 l 1,8,-1
EndSplineSet
Validated: 1
EndChar

StartChar: eth
Encoding: 175 240 173
Width: 750
GlyphClass: 1
Flags: W
LayerCount: 2
Fore
SplineSet
130 250 m 1,0,-1
 245 250 l 1,1,-1
 245 375 l 1,2,-1
 130 375 l 1,3,-1
 130 250 l 1,0,-1
496 250 m 1,4,-1
 496 375 l 1,5,-1
 378 375 l 1,6,-1
 378 250 l 1,7,-1
 496 250 l 1,4,-1
500 375 m 1,8,-1
 625 375 l 1,9,-1
 625 250 l 1,10,-1
 500 250 l 1,11,-1
 500 125 l 1,12,-1
 375 125 l 1,13,-1
 375 250 l 1,14,-1
 250 250 l 1,15,-1
 250 125 l 1,16,-1
 125 125 l 1,17,-1
 125 250 l 1,18,-1
 0 250 l 1,19,-1
 0 375 l 1,20,-1
 125 375 l 1,21,-1
 125 500 l 1,22,-1
 250 500 l 1,23,-1
 250 375 l 1,24,-1
 375 375 l 1,25,-1
 375 500 l 1,26,-1
 500 500 l 1,27,-1
 500 375 l 1,8,-1
EndSplineSet
Validated: 1
EndChar

StartChar: ntilde
Encoding: 176 241 174
Width: 875
GlyphClass: 1
Flags: W
LayerCount: 2
Fore
SplineSet
632 1125 m 17,0,-1
 507 1125 l 1,1,-1
 507 1000 l 1,2,-1
 382 1000 l 1,3,-1
 382 1125 l 1,4,-1
 132 1125 l 9,5,-1
 132 875 l 17,6,-1
 257 875 l 1,7,-1
 257 1000 l 1,8,-1
 382 1000 l 1,9,-1
 382 875 l 1,10,-1
 632 875 l 9,11,-1
 632 1125 l 17,0,-1
625 625 m 1,12,-1
 750 625 l 1,13,-1
 750 0 l 1,14,-1
 500 0 l 1,15,-1
 500 625 l 1,16,-1
 250 625 l 1,17,-1
 250 0 l 1,18,-1
 0 0 l 1,19,-1
 0 750 l 1,20,-1
 625 750 l 1,21,-1
 625 625 l 1,12,-1
EndSplineSet
EndChar

StartChar: ograve
Encoding: 177 242 175
Width: 875
GlyphClass: 1
Flags: W
LayerCount: 2
Fore
SplineSet
125 1125 m 5,0,-1
 375 1125 l 5,1,-1
 375 1000 l 5,2,-1
 500 1000 l 5,3,-1
 500 875 l 5,4,-1
 250 875 l 5,5,-1
 250 1000 l 5,6,-1
 125 1000 l 5,7,-1
 125 1125 l 5,0,-1
500 620 m 1,8,-1
 250 620 l 1,9,-1
 250 130 l 1,10,-1
 500 130 l 1,11,-1
 500 620 l 1,8,-1
625 750 m 1,12,-1
 625 625 l 1,13,-1
 750 625 l 1,14,-1
 750 125 l 1,15,-1
 625 125 l 1,16,-1
 625 0 l 1,17,-1
 125 0 l 1,18,-1
 125 125 l 1,19,-1
 0 125 l 1,20,-1
 0 625 l 1,21,-1
 125 625 l 1,22,-1
 125 750 l 1,23,-1
 625 750 l 1,12,-1
EndSplineSet
Validated: 1
EndChar

StartChar: oacute
Encoding: 178 243 176
Width: 875
GlyphClass: 1
Flags: W
LayerCount: 2
Fore
SplineSet
250 875 m 5,0,-1
 500 875 l 5,1,-1
 500 1000 l 5,2,-1
 625 1000 l 5,3,-1
 625 1125 l 5,4,-1
 375 1125 l 5,5,-1
 375 1000 l 5,6,-1
 250 1000 l 5,7,-1
 250 875 l 5,0,-1
500 620 m 1,8,-1
 250 620 l 1,9,-1
 250 130 l 1,10,-1
 500 130 l 1,11,-1
 500 620 l 1,8,-1
625 750 m 1,12,-1
 625 625 l 1,13,-1
 750 625 l 1,14,-1
 750 125 l 1,15,-1
 625 125 l 1,16,-1
 625 0 l 1,17,-1
 125 0 l 1,18,-1
 125 125 l 1,19,-1
 0 125 l 1,20,-1
 0 625 l 1,21,-1
 125 625 l 1,22,-1
 125 750 l 1,23,-1
 625 750 l 1,12,-1
EndSplineSet
Validated: 9
EndChar

StartChar: ocircumflex
Encoding: 179 244 177
Width: 875
GlyphClass: 1
Flags: W
LayerCount: 2
Fore
SplineSet
500 1000 m 5,0,-1
 250 1000 l 5,1,-1
 250 875 l 5,2,-1
 125 875 l 5,3,-1
 125 1000 l 5,4,-1
 250 1000 l 5,5,-1
 250 1125 l 5,6,-1
 500 1125 l 5,7,-1
 500 1000 l 5,8,-1
 625 1000 l 5,9,-1
 625 875 l 5,10,-1
 500 875 l 5,11,-1
 500 1000 l 5,0,-1
500 620 m 1,12,-1
 250 620 l 1,13,-1
 250 130 l 1,14,-1
 500 130 l 1,15,-1
 500 620 l 1,12,-1
625 750 m 1,16,-1
 625 625 l 1,17,-1
 750 625 l 1,18,-1
 750 125 l 1,19,-1
 625 125 l 1,20,-1
 625 0 l 1,21,-1
 125 0 l 1,22,-1
 125 125 l 1,23,-1
 0 125 l 1,24,-1
 0 625 l 1,25,-1
 125 625 l 1,26,-1
 125 750 l 1,27,-1
 625 750 l 1,16,-1
EndSplineSet
Validated: 5
EndChar

StartChar: otilde
Encoding: 180 245 178
Width: 875
GlyphClass: 1
Flags: W
LayerCount: 2
Fore
SplineSet
632 1125 m 21,0,-1
 507 1125 l 5,1,-1
 507 1000 l 5,2,-1
 382 1000 l 5,3,-1
 382 1125 l 5,4,-1
 132 1125 l 13,5,-1
 132 875 l 21,6,-1
 257 875 l 5,7,-1
 257 1000 l 5,8,-1
 382 1000 l 5,9,-1
 382 875 l 5,10,-1
 632 875 l 13,11,-1
 632 1125 l 21,0,-1
500 620 m 1,12,-1
 250 620 l 1,13,-1
 250 130 l 1,14,-1
 500 130 l 1,15,-1
 500 620 l 1,12,-1
625 750 m 1,16,-1
 625 625 l 1,17,-1
 750 625 l 1,18,-1
 750 125 l 1,19,-1
 625 125 l 1,20,-1
 625 0 l 1,21,-1
 125 0 l 1,22,-1
 125 125 l 1,23,-1
 0 125 l 1,24,-1
 0 625 l 1,25,-1
 125 625 l 1,26,-1
 125 750 l 1,27,-1
 625 750 l 1,16,-1
EndSplineSet
Validated: 5
EndChar

StartChar: odieresis
Encoding: 181 246 179
Width: 875
GlyphClass: 1
Flags: W
LayerCount: 2
Fore
SplineSet
500 620 m 1,0,-1
 250 620 l 1,1,-1
 250 130 l 1,2,-1
 500 130 l 1,3,-1
 500 620 l 1,0,-1
625 750 m 1,4,-1
 625 625 l 1,5,-1
 750 625 l 1,6,-1
 750 125 l 1,7,-1
 625 125 l 1,8,-1
 625 0 l 1,9,-1
 125 0 l 1,10,-1
 125 125 l 1,11,-1
 0 125 l 1,12,-1
 0 625 l 1,13,-1
 125 625 l 1,14,-1
 125 750 l 1,15,-1
 625 750 l 1,4,-1
125 1000 m 5,16,-1
 250 1000 l 5,17,-1
 250 875 l 5,18,-1
 125 875 l 5,19,-1
 125 1000 l 5,16,-1
500 1000 m 5,20,-1
 625 1000 l 5,21,-1
 625 875 l 5,22,-1
 500 875 l 5,23,-1
 500 1000 l 5,20,-1
EndSplineSet
EndChar

StartChar: divide
Encoding: 182 247 180
Width: 875
GlyphClass: 1
Flags: W
LayerCount: 2
Fore
SplineSet
250 1000 m 1,0,-1
 375 1000 l 1,1,-1
 375 1125 l 1,2,-1
 500 1125 l 1,3,-1
 500 1250 l 1,4,-1
 375 1250 l 1,5,-1
 375 1125 l 1,6,-1
 250 1125 l 1,7,-1
 250 1000 l 1,0,-1
125 745 m 1,8,-1
 125 500 l 1,9,-1
 625 500 l 1,10,-1
 625 745 l 1,11,-1
 125 745 l 1,8,-1
625 875 m 1,12,-1
 625 750 l 1,13,-1
 750 750 l 1,14,-1
 750 0 l 1,15,-1
 625 0 l 1,16,-1
 625 375 l 1,17,-1
 125 375 l 1,18,-1
 125 0 l 1,19,-1
 0 0 l 1,20,-1
 0 750 l 1,21,-1
 125 750 l 1,22,-1
 125 875 l 1,23,-1
 625 875 l 1,12,-1
EndSplineSet
Validated: 5
EndChar

StartChar: oslash
Encoding: 183 248 181
Width: 875
GlyphClass: 1
Flags: W
LayerCount: 2
Fore
SplineSet
500 1250 m 1,0,-1
 625 1250 l 1,1,-1
 625 1125 l 1,2,-1
 500 1125 l 1,3,-1
 500 1000 l 1,4,-1
 375 1000 l 1,5,-1
 375 1125 l 1,6,-1
 250 1125 l 1,7,-1
 250 1000 l 1,8,-1
 125 1000 l 1,9,-1
 125 1125 l 1,10,-1
 250 1125 l 1,11,-1
 250 1250 l 1,12,-1
 375 1250 l 1,13,-1
 375 1125 l 1,14,-1
 500 1125 l 1,15,-1
 500 1250 l 1,0,-1
125 745 m 1,16,-1
 125 500 l 1,17,-1
 625 500 l 1,18,-1
 625 745 l 1,19,-1
 125 745 l 1,16,-1
625 875 m 1,20,-1
 625 750 l 1,21,-1
 750 750 l 1,22,-1
 750 0 l 1,23,-1
 625 0 l 1,24,-1
 625 375 l 1,25,-1
 125 375 l 1,26,-1
 125 0 l 1,27,-1
 0 0 l 1,28,-1
 0 750 l 1,29,-1
 125 750 l 1,30,-1
 125 875 l 1,31,-1
 625 875 l 1,20,-1
EndSplineSet
Validated: 5
EndChar

StartChar: ugrave
Encoding: 184 249 182
Width: 875
GlyphClass: 1
Flags: W
LayerCount: 2
Fore
SplineSet
125 1125 m 1,0,-1
 375 1125 l 1,1,-1
 375 1000 l 1,2,-1
 500 1000 l 1,3,-1
 500 875 l 1,4,-1
 250 875 l 1,5,-1
 250 1000 l 1,6,-1
 125 1000 l 1,7,-1
 125 1125 l 1,0,-1
750 750 m 1,8,-1
 750 0 l 1,9,-1
 125 0 l 1,10,-1
 125 125 l 1,11,-1
 0 125 l 1,12,-1
 0 750 l 1,13,-1
 250 750 l 1,14,-1
 250 125 l 1,15,-1
 375 125 l 1,16,-1
 375 250 l 1,17,-1
 500 250 l 1,18,-1
 500 750 l 1,19,-1
 750 750 l 1,8,-1
EndSplineSet
EndChar

StartChar: uacute
Encoding: 185 250 183
Width: 875
GlyphClass: 1
Flags: W
LayerCount: 2
Fore
SplineSet
750 750 m 1,0,-1
 750 0 l 1,1,-1
 125 0 l 1,2,-1
 125 125 l 1,3,-1
 0 125 l 1,4,-1
 0 750 l 1,5,-1
 250 750 l 1,6,-1
 250 125 l 1,7,-1
 375 125 l 1,8,-1
 375 250 l 1,9,-1
 500 250 l 1,10,-1
 500 750 l 1,11,-1
 750 750 l 1,0,-1
250 875 m 1,12,-1
 500 875 l 1,13,-1
 500 1000 l 1,14,-1
 675 1000 l 1,15,-1
 675 1125 l 1,16,-1
 375 1125 l 1,17,-1
 375 1000 l 1,18,-1
 250 1000 l 1,19,-1
 250 875 l 1,12,-1
EndSplineSet
EndChar

StartChar: ucircumflex
Encoding: 186 251 184
Width: 875
GlyphClass: 1
Flags: W
LayerCount: 2
Fore
SplineSet
500 1000 m 1,0,-1
 250 1000 l 1,1,-1
 250 875 l 1,2,-1
 125 875 l 1,3,-1
 125 1000 l 1,4,-1
 250 1000 l 1,5,-1
 250 1125 l 1,6,-1
 500 1125 l 1,7,-1
 500 1000 l 1,8,-1
 625 1000 l 1,9,-1
 625 875 l 1,10,-1
 500 875 l 1,11,-1
 500 1000 l 1,0,-1
750 750 m 1,12,-1
 750 0 l 1,13,-1
 125 0 l 1,14,-1
 125 125 l 1,15,-1
 0 125 l 1,16,-1
 0 750 l 1,17,-1
 250 750 l 1,18,-1
 250 125 l 1,19,-1
 375 125 l 1,20,-1
 375 250 l 1,21,-1
 500 250 l 1,22,-1
 500 750 l 1,23,-1
 750 750 l 1,12,-1
EndSplineSet
EndChar

StartChar: udieresis
Encoding: 187 252 185
Width: 875
GlyphClass: 1
Flags: W
LayerCount: 2
Fore
SplineSet
125 1000 m 1,0,-1
 250 1000 l 1,1,-1
 250 875 l 1,2,-1
 125 875 l 1,3,-1
 125 1000 l 1,0,-1
500 1000 m 1,4,-1
 625 1000 l 1,5,-1
 625 875 l 1,6,-1
 500 875 l 1,7,-1
 500 1000 l 1,4,-1
750 750 m 1,8,-1
 750 0 l 1,9,-1
 125 0 l 1,10,-1
 125 125 l 1,11,-1
 0 125 l 1,12,-1
 0 750 l 1,13,-1
 250 750 l 1,14,-1
 250 125 l 1,15,-1
 375 125 l 1,16,-1
 375 250 l 1,17,-1
 500 250 l 1,18,-1
 500 750 l 1,19,-1
 750 750 l 1,8,-1
EndSplineSet
EndChar

StartChar: yacute
Encoding: 188 253 186
Width: 500
GlyphClass: 1
Flags: W
LayerCount: 2
Fore
SplineSet
125 875 m 1,0,-1
 125 750 l 1,1,-1
 250 750 l 1,2,-1
 250 625 l 1,3,-1
 375 625 l 1,4,-1
 375 500 l 1,5,-1
 250 500 l 1,6,-1
 250 375 l 1,7,-1
 125 375 l 1,8,-1
 125 250 l 1,9,-1
 0 250 l 1,10,-1
 0 375 l 1,11,-1
 125 375 l 1,12,-1
 125 500 l 1,13,-1
 250 500 l 1,14,-1
 250 625 l 1,15,-1
 125 625 l 1,16,-1
 125 750 l 1,17,-1
 0 750 l 1,18,-1
 0 875 l 1,19,-1
 125 875 l 1,0,-1
375 125 m 1,20,-1
 375 0 l 1,21,-1
 0 0 l 1,22,-1
 0 125 l 1,23,-1
 375 125 l 1,20,-1
EndSplineSet
Validated: 5
EndChar

StartChar: thorn
Encoding: 189 254 187
Width: 750
GlyphClass: 1
Flags: W
LayerCount: 2
Fore
SplineSet
625 625 m 1,0,-1
 500 625 l 1,1,-1
 500 750 l 1,2,-1
 250 750 l 1,3,-1
 250 625 l 1,4,-1
 375 625 l 1,5,-1
 375 500 l 1,6,-1
 500 500 l 1,7,-1
 500 375 l 1,8,-1
 375 375 l 1,9,-1
 375 250 l 1,10,-1
 250 250 l 1,11,-1
 250 125 l 1,12,-1
 500 125 l 1,13,-1
 500 250 l 1,14,-1
 625 250 l 1,15,-1
 625 0 l 1,16,-1
 0 0 l 1,17,-1
 0 125 l 1,18,-1
 125 125 l 1,19,-1
 125 250 l 1,20,-1
 250 250 l 1,21,-1
 250 375 l 1,22,-1
 375 375 l 1,23,-1
 375 500 l 1,24,-1
 250 500 l 1,25,-1
 250 625 l 1,26,-1
 125 625 l 1,27,-1
 125 750 l 1,28,-1
 0 750 l 1,29,-1
 0 875 l 1,30,-1
 625 875 l 1,31,-1
 625 625 l 1,0,-1
EndSplineSet
Validated: 5
EndChar

StartChar: ydieresis
Encoding: 190 255 188
Width: 875
GlyphClass: 1
Flags: W
LayerCount: 2
Fore
SplineSet
500 1000 m 1,0,-1
 375 1000 l 1,1,-1
 375 1125 l 1,2,-1
 250 1125 l 1,3,-1
 250 1250 l 1,4,-1
 375 1250 l 1,5,-1
 375 1125 l 1,6,-1
 500 1125 l 1,7,-1
 500 1000 l 1,0,-1
750 750 m 1,8,-1
 125 750 l 1,9,-1
 125 500 l 1,10,-1
 625 500 l 1,11,-1
 625 375 l 1,12,-1
 125 375 l 1,13,-1
 125 125 l 1,14,-1
 750 125 l 1,15,-1
 750 0 l 1,16,-1
 0 0 l 1,17,-1
 0 875 l 1,18,-1
 750 875 l 1,19,-1
 750 750 l 1,8,-1
EndSplineSet
Validated: 5
EndChar

StartChar: Cacute
Encoding: 191 262 189
Width: 375
GlyphClass: 1
Flags: W
LayerCount: 2
Fore
SplineSet
125 501 m 1,0,-1
 250 501 l 1,1,-1
 250 376 l 1,2,-1
 125 376 l 1,3,-1
 125 501 l 1,0,-1
EndSplineSet
Validated: 1
EndChar

StartChar: cacute
Encoding: 192 263 190
Width: 500
GlyphClass: 1
Flags: W
LayerCount: 2
Fore
SplineSet
130 250 m 1,0,-1
 245 250 l 1,1,-1
 245 375 l 1,2,-1
 130 375 l 1,3,-1
 130 250 l 1,0,-1
125 375 m 1,4,-1
 125 500 l 1,5,-1
 250 500 l 1,6,-1
 250 375 l 1,7,-1
 375 375 l 1,8,-1
 375 250 l 1,9,-1
 250 250 l 1,10,-1
 250 125 l 1,11,-1
 125 125 l 1,12,-1
 125 250 l 1,13,-1
 0 250 l 1,14,-1
 0 375 l 1,15,-1
 125 375 l 1,4,-1
EndSplineSet
Validated: 1
EndChar

StartChar: Ccaron
Encoding: 193 268 191
Width: 625
GlyphClass: 1
Flags: W
LayerCount: 2
Fore
SplineSet
375 875 m 1,0,-1
 500 875 l 1,1,-1
 500 750 l 1,2,-1
 375 750 l 1,3,-1
 375 625 l 1,4,-1
 250 625 l 1,5,-1
 250 750 l 1,6,-1
 125 750 l 1,7,-1
 125 625 l 1,8,-1
 0 625 l 1,9,-1
 0 750 l 1,10,-1
 125 750 l 1,11,-1
 125 875 l 1,12,-1
 250 875 l 1,13,-1
 250 750 l 1,14,-1
 375 750 l 1,15,-1
 375 875 l 1,0,-1
EndSplineSet
Validated: 5
EndChar

StartChar: ccaron
Encoding: 194 269 192
Width: 500
GlyphClass: 1
Flags: W
LayerCount: 2
Fore
SplineSet
0 250 m 1,0,-1
 125 250 l 1,1,-1
 125 0 l 1,2,-1
 250 0 l 1,3,-1
 250 125 l 1,4,-1
 374 125 l 1,5,-1
 374 0 l 1,6,-1
 250 0 l 1,7,-1
 250 -126 l 1,8,-1
 125 -126 l 1,9,-1
 125 0 l 1,10,-1
 0 0 l 1,11,-1
 0 250 l 1,0,-1
EndSplineSet
Validated: 5
EndChar

StartChar: dcroat
Encoding: 195 273 193
Width: 625
GlyphClass: 1
Flags: W
LayerCount: 2
Fore
SplineSet
250 875 m 1,0,-1
 250 750 l 1,1,-1
 375 750 l 1,2,-1
 375 875 l 1,3,-1
 250 875 l 1,0,-1
500 875 m 1,4,-1
 500 750 l 1,5,-1
 375 750 l 1,6,-1
 375 625 l 1,7,-1
 250 625 l 1,8,-1
 250 750 l 1,9,-1
 125 750 l 1,10,-1
 125 875 l 1,11,-1
 500 875 l 1,4,-1
EndSplineSet
Validated: 5
EndChar

StartChar: Gbreve
Encoding: 196 286 194
Width: 750
GlyphClass: 1
Flags: W
LayerCount: 2
Fore
SplineSet
375 875 m 1,0,-1
 375 750 l 1,1,-1
 249 750 l 1,2,-1
 250 501 l 1,3,-1
 624 501 l 1,4,-1
 624 2 l 1,5,-1
 497 2 l 1,6,-1
 497 376 l 1,7,-1
 249 376 l 1,8,-1
 249 2 l 1,9,-1
 125 2 l 1,10,-1
 125 376 l 1,11,-1
 0 376 l 1,12,-1
 0 501 l 1,13,-1
 125 501 l 1,14,-1
 125 750 l 1,15,-1
 249 750 l 1,16,-1
 249 875 l 1,17,-1
 375 875 l 1,0,-1
500 875 m 1,18,-1
 625 875 l 1,19,-1
 625 750 l 1,20,-1
 500 750 l 1,21,-1
 500 875 l 1,18,-1
EndSplineSet
Validated: 5
EndChar

StartChar: gbreve
Encoding: 197 287 195
Width: 750
GlyphClass: 1
Flags: W
LayerCount: 2
Fore
SplineSet
625 875 m 1,0,-1
 625 0 l 1,1,-1
 499 0 l 1,2,-1
 499 376 l 1,3,-1
 249 376 l 1,4,-1
 249 0 l 1,5,-1
 125 0 l 1,6,-1
 125 376 l 1,7,-1
 0 376 l 1,8,-1
 0 501 l 1,9,-1
 125 501 l 1,10,-1
 125 750 l 1,11,-1
 250 750 l 1,12,-1
 250 875 l 1,13,-1
 625 875 l 1,0,-1
255 750 m 1,14,-1
 255 501 l 1,15,-1
 500 501 l 1,16,-1
 500 750 l 1,17,-1
 255 750 l 1,14,-1
EndSplineSet
Validated: 1
EndChar

StartChar: Idotaccent
Encoding: 198 304 196
Width: 3000
GlyphClass: 1
Flags: W
LayerCount: 2
Fore
SplineSet
1750 375 m 1,0,-1
 2375 375 l 1,1,-1
 2375 0 l 1,2,-1
 2250 0 l 1,3,-1
 2250 250 l 1,4,-1
 2125 250 l 1,5,-1
 2125 0 l 1,6,-1
 2000 0 l 1,7,-1
 2000 250 l 1,8,-1
 1875 250 l 1,9,-1
 1875 0 l 1,10,-1
 1750 0 l 1,11,-1
 1750 375 l 1,0,-1
1500 375 m 1,12,-1
 1625 375 l 1,13,-1
 1625 0 l 1,14,-1
 1500 0 l 1,15,-1
 1500 375 l 1,12,-1
1000 375 m 1,16,-1
 1375 375 l 1,17,-1
 1375 0 l 1,18,-1
 1250 0 l 1,19,-1
 1250 250 l 1,20,-1
 1125 250 l 1,21,-1
 1125 0 l 1,22,-1
 1000 0 l 1,23,-1
 1000 375 l 1,16,-1
750 375 m 1,24,-1
 875 375 l 1,25,-1
 875 0 l 1,26,-1
 750 0 l 1,27,-1
 750 375 l 1,24,-1
0 375 m 1,28,-1
 625 375 l 1,29,-1
 625 0 l 1,30,-1
 500 0 l 1,31,-1
 500 250 l 1,32,-1
 375 250 l 1,33,-1
 375 0 l 1,34,-1
 250 0 l 1,35,-1
 250 250 l 1,36,-1
 125 250 l 1,37,-1
 125 0 l 1,38,-1
 0 0 l 1,39,-1
 0 375 l 1,28,-1
2875 0 m 1,40,-1
 2500 0 l 1,41,-1
 2500 375 l 1,42,-1
 2625 375 l 1,43,-1
 2625 125 l 1,44,-1
 2875 125 l 1,45,-1
 2875 0 l 1,40,-1
EndSplineSet
Validated: 1
EndChar

StartChar: dotlessi
Encoding: 199 305 197
Width: 1250
GlyphClass: 1
Flags: W
LayerCount: 2
Fore
SplineSet
375 250 m 1,0,-1
 375 0 l 1,1,-1
 250 0 l 1,2,-1
 250 250 l 1,3,-1
 125 250 l 1,4,-1
 125 625 l 1,5,-1
 0 625 l 1,6,-1
 0 750 l 1,7,-1
 125 750 l 1,8,-1
 125 875 l 1,9,-1
 250 875 l 1,10,-1
 250 250 l 1,11,-1
 375 250 l 1,12,-1
 375 500 l 1,13,-1
 500 500 l 1,14,-1
 500 750 l 1,15,-1
 625 750 l 1,16,-1
 625 1000 l 1,17,-1
 750 1000 l 1,18,-1
 750 750 l 1,19,-1
 625 750 l 1,20,-1
 625 500 l 1,21,-1
 750 500 l 1,22,-1
 750 375 l 1,23,-1
 625 375 l 1,24,-1
 625 500 l 1,25,-1
 500 500 l 1,26,-1
 500 250 l 1,27,-1
 375 250 l 1,0,-1
750 250 m 1,28,-1
 875 250 l 1,29,-1
 875 375 l 1,30,-1
 1000 375 l 1,31,-1
 1000 500 l 1,32,-1
 750 500 l 1,33,-1
 750 625 l 1,34,-1
 1000 625 l 1,35,-1
 1000 500 l 1,36,-1
 1125 500 l 1,37,-1
 1125 375 l 1,38,-1
 1000 375 l 1,39,-1
 1000 250 l 1,40,-1
 875 250 l 1,41,-1
 875 125 l 1,42,-1
 1125 125 l 1,43,-1
 1125 0 l 1,44,-1
 625 0 l 1,45,-1
 625 125 l 1,46,-1
 750 125 l 1,47,-1
 750 250 l 1,28,-1
EndSplineSet
Validated: 5
EndChar

StartChar: OE
Encoding: 202 338 200
Width: 375
GlyphClass: 1
Flags: W
LayerCount: 2
Fore
SplineSet
125 500 m 1,0,-1
 250 500 l 1,1,-1
 250 375 l 1,2,-1
 125 375 l 1,3,-1
 125 250 l 1,4,-1
 0 250 l 1,5,-1
 0 375 l 1,6,-1
 125 375 l 1,7,-1
 125 500 l 1,8,-1
 0 500 l 1,9,-1
 0 625 l 1,10,-1
 125 625 l 1,11,-1
 125 500 l 1,0,-1
EndSplineSet
Validated: 5
EndChar

StartChar: oe
Encoding: 203 339 201
Width: 500
GlyphClass: 1
Flags: W
LayerCount: 2
Fore
SplineSet
374 501 m 1,0,-1
 250 501 l 1,1,-1
 250 376 l 1,2,-1
 374 376 l 1,3,-1
 374 251 l 1,4,-1
 250 251 l 1,5,-1
 250 2 l 1,6,-1
 121 2 l 1,7,-1
 121 251 l 1,8,-1
 0 251 l 1,9,-1
 0 376 l 1,10,-1
 121 376 l 1,11,-1
 121 501 l 1,12,-1
 0 501 l 1,13,-1
 0 625 l 1,14,-1
 121 625 l 1,15,-1
 121 875 l 1,16,-1
 250 875 l 1,17,-1
 250 625 l 1,18,-1
 374 625 l 1,19,-1
 374 501 l 1,0,-1
EndSplineSet
Validated: 1
EndChar

StartChar: Scedilla
Encoding: 204 350 202
Width: 250
GlyphClass: 1
Flags: W
LayerCount: 2
Fore
SplineSet
0 0 m 1,0,-1
 0 375 l 1,1,-1
 125 375 l 1,2,-1
 125 0 l 1,3,-1
 0 0 l 1,0,-1
EndSplineSet
Validated: 1
EndChar

StartChar: scedilla
Encoding: 205 351 203
Width: 750
GlyphClass: 1
Flags: W
LayerCount: 2
Fore
SplineSet
250 875 m 1,0,-1
 250 750 l 1,1,-1
 500 750 l 1,2,-1
 500 875 l 1,3,-1
 250 875 l 1,0,-1
625 875 m 1,4,-1
 625 750 l 1,5,-1
 500 750 l 1,6,-1
 500 625 l 1,7,-1
 250 625 l 1,8,-1
 250 750 l 1,9,-1
 125 750 l 1,10,-1
 125 875 l 1,11,-1
 625 875 l 1,4,-1
EndSplineSet
Validated: 5
EndChar

StartChar: Ydieresis
Encoding: 208 376 206
Width: 250
GlyphClass: 1
Flags: W
LayerCount: 2
Fore
SplineSet
0 0 m 1,0,-1
 0 875 l 1,1,-1
 125 875 l 1,2,-1
 125 0 l 1,3,-1
 0 0 l 1,0,-1
0 1000 m 1,4,-1
 125 1000 l 1,5,-1
 125 1125 l 1,6,-1
 250 1125 l 1,7,-1
 250 1250 l 1,8,-1
 125 1250 l 1,9,-1
 125 1125 l 1,10,-1
 0 1125 l 1,11,-1
 0 1000 l 1,4,-1
EndSplineSet
Validated: 5
EndChar

StartChar: florin
Encoding: 211 402 209
Width: 625
GlyphClass: 1
Flags: W
LayerCount: 2
Fore
SplineSet
0 500 m 1,0,-1
 500 500 l 1,1,-1
 500 375 l 1,2,-1
 0 375 l 1,3,-1
 0 500 l 1,0,-1
EndSplineSet
Validated: 1
EndChar

StartChar: circumflex
Encoding: 212 710 210
Width: 1250
GlyphClass: 1
Flags: W
LayerCount: 2
Fore
SplineSet
750 370 m 1,0,-1
 750 250 l 1,1,-1
 875 250 l 1,2,-1
 875 370 l 1,3,-1
 750 370 l 1,0,-1
1125 250 m 1,4,-1
 1125 125 l 1,5,-1
 1000 125 l 1,6,-1
 1000 0 l 1,7,-1
 875 0 l 1,8,-1
 875 125 l 1,9,-1
 625 125 l 1,10,-1
 625 375 l 1,11,-1
 750 375 l 1,12,-1
 750 500 l 1,13,-1
 875 500 l 1,14,-1
 875 625 l 1,15,-1
 1000 625 l 1,16,-1
 1000 250 l 1,17,-1
 1125 250 l 1,4,-1
375 250 m 1,18,-1
 375 0 l 1,19,-1
 250 0 l 1,20,-1
 250 250 l 1,21,-1
 375 250 l 1,22,-1
 375 500 l 1,23,-1
 500 500 l 1,24,-1
 500 750 l 1,25,-1
 625 750 l 1,26,-1
 625 1000 l 1,27,-1
 750 1000 l 1,28,-1
 750 750 l 1,29,-1
 625 750 l 1,30,-1
 625 500 l 1,31,-1
 500 500 l 1,32,-1
 500 250 l 1,33,-1
 375 250 l 1,18,-1
250 250 m 1,34,-1
 250 875 l 1,35,-1
 125 875 l 1,36,-1
 125 750 l 1,37,-1
 0 750 l 1,38,-1
 0 625 l 1,39,-1
 125 625 l 1,40,-1
 125 250 l 1,41,-1
 250 250 l 1,34,-1
EndSplineSet
Validated: 5
EndChar

StartChar: caron
Encoding: 213 711 211
Width: 750
GlyphClass: 1
Flags: W
LayerCount: 2
Fore
SplineSet
250 875 m 1,0,-1
 375 875 l 1,1,-1
 375 1000 l 1,2,-1
 500 1000 l 1,3,-1
 500 875 l 1,4,-1
 375 875 l 1,5,-1
 375 750 l 1,6,-1
 250 750 l 1,7,-1
 250 875 l 1,8,-1
 125 875 l 1,9,-1
 125 1000 l 1,10,-1
 250 1000 l 1,11,-1
 250 875 l 1,0,-1
500 500 m 1,12,-1
 500 375 l 1,13,-1
 375 375 l 1,14,-1
 375 250 l 1,15,-1
 250 250 l 1,16,-1
 250 125 l 1,17,-1
 625 125 l 1,18,-1
 625 0 l 1,19,-1
 0 0 l 1,20,-1
 0 125 l 1,21,-1
 125 125 l 1,22,-1
 125 250 l 1,23,-1
 250 250 l 1,24,-1
 250 375 l 1,25,-1
 375 375 l 1,26,-1
 375 500 l 1,27,-1
 0 500 l 1,28,-1
 0 625 l 1,29,-1
 625 625 l 1,30,-1
 625 500 l 1,31,-1
 500 500 l 1,12,-1
EndSplineSet
Validated: 5
EndChar

StartChar: breve
Encoding: 215 728 213
Width: 875
GlyphClass: 1
Flags: W
LayerCount: 2
Fore
SplineSet
250 125 m 1,0,-1
 750 125 l 1,1,-1
 750 0 l 1,2,-1
 125 0 l 1,3,-1
 125 375 l 1,4,-1
 0 375 l 1,5,-1
 0 500 l 1,6,-1
 125 500 l 1,7,-1
 125 875 l 1,8,-1
 250 875 l 1,9,-1
 250 625 l 1,10,-1
 375 625 l 1,11,-1
 375 501 l 1,12,-1
 250 501 l 1,13,-1
 250 125 l 1,0,-1
EndSplineSet
Validated: 1
EndChar

StartChar: dotaccent
Encoding: 216 729 214
Width: 500
GlyphClass: 1
Flags: W
LayerCount: 2
Fore
SplineSet
250 625 m 1,0,-1
 374 625 l 1,1,-1
 374 501 l 1,2,-1
 250 501 l 1,3,-1
 250 2 l 1,4,-1
 125 2 l 1,5,-1
 125 376 l 1,6,-1
 0 376 l 1,7,-1
 0 501 l 1,8,-1
 125 501 l 1,9,-1
 125 875 l 1,10,-1
 250 875 l 1,11,-1
 250 625 l 1,0,-1
EndSplineSet
Validated: 1
EndChar

StartChar: ogonek
Encoding: 218 731 216
Width: 1000
GlyphClass: 1
Flags: W
LayerCount: 2
Fore
SplineSet
375 1125 m 1,0,-1
 500 1125 l 1,1,-1
 500 1250 l 1,2,-1
 625 1250 l 1,3,-1
 625 1125 l 1,4,-1
 500 1125 l 1,5,-1
 500 1000 l 1,6,-1
 375 1000 l 1,7,-1
 375 1125 l 1,8,-1
 250 1125 l 1,9,-1
 250 1250 l 1,10,-1
 375 1250 l 1,11,-1
 375 1125 l 1,0,-1
875 875 m 1,12,-1
 875 750 l 1,13,-1
 750 750 l 1,14,-1
 750 625 l 1,15,-1
 625 625 l 1,16,-1
 625 500 l 1,17,-1
 500 500 l 1,18,-1
 500 375 l 1,19,-1
 375 375 l 1,20,-1
 375 250 l 1,21,-1
 250 250 l 1,22,-1
 250 125 l 1,23,-1
 875 125 l 1,24,-1
 875 0 l 1,25,-1
 0 0 l 1,26,-1
 0 125 l 1,27,-1
 125 125 l 1,28,-1
 125 250 l 1,29,-1
 250 250 l 1,30,-1
 250 375 l 1,31,-1
 375 375 l 1,32,-1
 375 500 l 1,33,-1
 500 500 l 1,34,-1
 500 625 l 1,35,-1
 625 625 l 1,36,-1
 625 750 l 1,37,-1
 0 750 l 1,38,-1
 0 875 l 1,39,-1
 875 875 l 1,12,-1
EndSplineSet
Validated: 5
EndChar

StartChar: tilde
Encoding: 219 732 217
Width: 1375
GlyphClass: 1
Flags: W
LayerCount: 2
Fore
SplineSet
375 375 m 1,0,-1
 250 375 l 1,1,-1
 250 250 l 1,2,-1
 0 250 l 1,3,-1
 0 375 l 1,4,-1
 250 375 l 1,5,-1
 250 500 l 1,6,-1
 0 500 l 1,7,-1
 0 625 l 1,8,-1
 250 625 l 1,9,-1
 250 750 l 1,10,-1
 0 750 l 1,11,-1
 0 875 l 1,12,-1
 250 875 l 1,13,-1
 250 750 l 1,14,-1
 375 750 l 1,15,-1
 375 625 l 1,16,-1
 250 625 l 1,17,-1
 250 500 l 1,18,-1
 375 500 l 1,19,-1
 375 375 l 1,0,-1
500 250 m 1,20,-1
 500 0 l 1,21,-1
 375 0 l 1,22,-1
 375 250 l 1,23,-1
 500 250 l 1,24,-1
 500 500 l 1,25,-1
 625 500 l 1,26,-1
 625 750 l 1,27,-1
 750 750 l 1,28,-1
 750 1000 l 1,29,-1
 875 1000 l 1,30,-1
 875 750 l 1,31,-1
 750 750 l 1,32,-1
 750 500 l 1,33,-1
 625 500 l 1,34,-1
 625 250 l 1,35,-1
 500 250 l 1,20,-1
875 370 m 1,36,-1
 875 250 l 1,37,-1
 1000 250 l 1,38,-1
 1000 370 l 1,39,-1
 875 370 l 1,36,-1
1250 250 m 1,40,-1
 1250 125 l 1,41,-1
 1125 125 l 1,42,-1
 1125 0 l 1,43,-1
 1000 0 l 1,44,-1
 1000 125 l 1,45,-1
 750 125 l 1,46,-1
 750 375 l 1,47,-1
 875 375 l 1,48,-1
 875 500 l 1,49,-1
 1000 500 l 1,50,-1
 1000 625 l 1,51,-1
 1125 625 l 1,52,-1
 1125 250 l 1,53,-1
 1250 250 l 1,40,-1
EndSplineSet
Validated: 5
EndChar

StartChar: uni0394
Encoding: 221 916 219
AltUni2: 002206.ffffffff.0 002206.ffffffff.0
Width: 625
GlyphClass: 1
Flags: W
LayerCount: 2
Fore
SplineSet
250 500 m 1,0,-1
 250 625 l 1,1,-1
 125 625 l 1,2,-1
 125 500 l 1,3,-1
 0 500 l 1,4,-1
 0 625 l 1,5,-1
 125 625 l 1,6,-1
 125 875 l 1,7,-1
 250 875 l 1,8,-1
 250 625 l 1,9,-1
 375 625 l 1,10,-1
 375 875 l 1,11,-1
 500 875 l 1,12,-1
 500 625 l 1,13,-1
 375 625 l 1,14,-1
 375 500 l 1,15,-1
 250 500 l 1,0,-1
EndSplineSet
Validated: 5
EndChar

StartChar: mu
Encoding: 116 181 221
AltUni2: 0003bc.ffffffff.0 0003bc.ffffffff.0
Width: 625
GlyphClass: 1
Flags: W
LayerCount: 2
Fore
SplineSet
370 125 m 1,0,-1
 370 250 l 1,1,-1
 130 250 l 1,2,-1
 130 125 l 1,3,-1
 370 125 l 1,0,-1
130 500 m 1,4,-1
 130 375 l 1,5,-1
 370 375 l 1,6,-1
 370 500 l 1,7,-1
 130 500 l 1,4,-1
375 625 m 1,8,-1
 375 500 l 1,9,-1
 500 500 l 1,10,-1
 500 125 l 1,11,-1
 375 125 l 1,12,-1
 375 0 l 1,13,-1
 125 0 l 1,14,-1
 125 125 l 1,15,-1
 0 125 l 1,16,-1
 0 500 l 1,17,-1
 125 500 l 1,18,-1
 125 625 l 1,19,-1
 375 625 l 1,8,-1
EndSplineSet
Validated: 1
EndChar

StartChar: pi
Encoding: 224 960 222
Width: 750
GlyphClass: 1
Flags: W
LayerCount: 2
Fore
SplineSet
375 1000 m 1,0,-1
 500 1000 l 1,1,-1
 500 875 l 1,2,-1
 375 875 l 1,3,-1
 375 625 l 1,4,-1
 500 625 l 1,5,-1
 500 500 l 1,6,-1
 375 500 l 1,7,-1
 375 0 l 1,8,-1
 250 0 l 1,9,-1
 250 -125 l 1,10,-1
 125 -125 l 1,11,-1
 125 0 l 1,12,-1
 250 0 l 1,13,-1
 250 500 l 1,14,-1
 125 500 l 1,15,-1
 125 625 l 1,16,-1
 250 625 l 1,17,-1
 250 875 l 1,18,-1
 375 875 l 1,19,-1
 375 1000 l 1,0,-1
EndSplineSet
Validated: 5
EndChar

StartChar: endash
Encoding: 226 8211 223
Width: 500
GlyphClass: 1
Flags: W
LayerCount: 2
Fore
SplineSet
125 501 m 1,0,-1
 250 501 l 1,1,-1
 250 376 l 1,2,-1
 125 376 l 1,3,-1
 125 501 l 1,0,-1
EndSplineSet
Validated: 1
EndChar

StartChar: emdash
Encoding: 227 8212 224
Width: 375
GlyphClass: 1
Flags: W
LayerCount: 2
Fore
SplineSet
-125 -250 m 1,0,-1
 -125 -125 l 1,1,-1
 0 -125 l 1,2,-1
 0 125 l 1,3,-1
 125 125 l 1,4,-1
 125 -125 l 1,5,-1
 0 -125 l 1,6,-1
 0 -250 l 1,7,-1
 -125 -250 l 1,0,-1
EndSplineSet
Validated: 5
EndChar

StartChar: quoteleft
Encoding: 228 8216 225
Width: 875
GlyphClass: 1
Flags: W
LayerCount: 2
Fore
SplineSet
125 745 m 1,0,-1
 125 500 l 1,1,-1
 625 500 l 1,2,-1
 625 745 l 1,3,-1
 125 745 l 1,0,-1
625 875 m 1,4,-1
 625 750 l 1,5,-1
 750 750 l 1,6,-1
 750 0 l 1,7,-1
 625 0 l 1,8,-1
 625 375 l 1,9,-1
 125 375 l 1,10,-1
 125 0 l 1,11,-1
 0 0 l 1,12,-1
 0 750 l 1,13,-1
 125 750 l 1,14,-1
 125 875 l 1,15,-1
 625 875 l 1,4,-1
500 1125 m 1,16,-1
 250 1125 l 1,17,-1
 250 1000 l 1,18,-1
 125 1000 l 1,19,-1
 125 1125 l 1,20,-1
 250 1125 l 1,21,-1
 250 1250 l 1,22,-1
 500 1250 l 1,23,-1
 500 1125 l 1,24,-1
 625 1125 l 1,25,-1
 625 1000 l 1,26,-1
 500 1000 l 1,27,-1
 500 1125 l 1,16,-1
EndSplineSet
Validated: 5
EndChar

StartChar: quoteright
Encoding: 229 8217 226
Width: 875
GlyphClass: 1
Flags: W
LayerCount: 2
Fore
SplineSet
500 1125 m 1,0,-1
 250 1125 l 1,1,-1
 250 1000 l 1,2,-1
 125 1000 l 1,3,-1
 125 1125 l 1,4,-1
 250 1125 l 1,5,-1
 250 1250 l 1,6,-1
 500 1250 l 1,7,-1
 500 1125 l 1,8,-1
 625 1125 l 1,9,-1
 625 1000 l 1,10,-1
 500 1000 l 1,11,-1
 500 1125 l 1,0,-1
750 750 m 1,12,-1
 125 750 l 1,13,-1
 125 500 l 1,14,-1
 625 500 l 1,15,-1
 625 375 l 1,16,-1
 125 375 l 1,17,-1
 125 125 l 1,18,-1
 750 125 l 1,19,-1
 750 0 l 1,20,-1
 0 0 l 1,21,-1
 0 875 l 1,22,-1
 750 875 l 1,23,-1
 750 750 l 1,12,-1
EndSplineSet
Validated: 5
EndChar

StartChar: quotesinglbase
Encoding: 230 8218 227
Width: 875
GlyphClass: 1
Flags: W
LayerCount: 2
Fore
SplineSet
500 1000 m 1,0,-1
 375 1000 l 1,1,-1
 375 1125 l 1,2,-1
 250 1125 l 1,3,-1
 250 1250 l 1,4,-1
 375 1250 l 1,5,-1
 375 1125 l 1,6,-1
 500 1125 l 1,7,-1
 500 1000 l 1,0,-1
625 875 m 1,8,-1
 750 875 l 1,9,-1
 750 125 l 1,10,-1
 625 125 l 1,11,-1
 625 0 l 1,12,-1
 125 0 l 1,13,-1
 125 125 l 1,14,-1
 0 125 l 1,15,-1
 0 875 l 1,16,-1
 125 875 l 1,17,-1
 125 125 l 1,18,-1
 625 125 l 1,19,-1
 625 875 l 1,8,-1
EndSplineSet
Validated: 5
EndChar

StartChar: quotedblleft
Encoding: 231 8220 228
Width: 500
GlyphClass: 1
Flags: W
LayerCount: 2
Fore
SplineSet
125 -250 m 1,0,-1
 125 -125 l 1,1,-1
 0 -125 l 1,2,-1
 0 -250 l 1,3,-1
 -125 -250 l 1,4,-1
 -125 -125 l 1,5,-1
 0 -125 l 1,6,-1
 0 125 l 1,7,-1
 125 125 l 1,8,-1
 125 -125 l 1,9,-1
 250 -125 l 1,10,-1
 250 125 l 1,11,-1
 375 125 l 1,12,-1
 375 -125 l 1,13,-1
 250 -125 l 1,14,-1
 250 -250 l 1,15,-1
 125 -250 l 1,0,-1
EndSplineSet
Validated: 5
EndChar

StartChar: quotedblright
Encoding: 232 8221 229
Width: 1250
GlyphClass: 1
Flags: W
LayerCount: 2
Fore
SplineSet
130 625 m 1,0,-1
 245 625 l 1,1,-1
 245 750 l 1,2,-1
 130 750 l 1,3,-1
 130 625 l 1,0,-1
125 750 m 1,4,-1
 125 875 l 1,5,-1
 250 875 l 1,6,-1
 250 750 l 1,7,-1
 375 750 l 1,8,-1
 375 625 l 1,9,-1
 250 625 l 1,10,-1
 250 500 l 1,11,-1
 125 500 l 1,12,-1
 125 625 l 1,13,-1
 0 625 l 1,14,-1
 0 750 l 1,15,-1
 125 750 l 1,4,-1
0 0 m 1,16,-1
 0 125 l 1,17,-1
 125 125 l 1,18,-1
 125 250 l 1,19,-1
 250 250 l 1,20,-1
 250 375 l 1,21,-1
 375 375 l 1,22,-1
 375 500 l 1,23,-1
 500 500 l 1,24,-1
 500 625 l 1,25,-1
 625 625 l 1,26,-1
 625 750 l 1,27,-1
 750 750 l 1,28,-1
 750 875 l 1,29,-1
 875 875 l 1,30,-1
 875 750 l 1,31,-1
 750 750 l 1,32,-1
 750 625 l 1,33,-1
 625 625 l 1,34,-1
 625 500 l 1,35,-1
 500 500 l 1,36,-1
 500 375 l 1,37,-1
 375 375 l 1,38,-1
 375 250 l 1,39,-1
 250 250 l 1,40,-1
 250 125 l 1,41,-1
 125 125 l 1,42,-1
 125 0 l 1,43,-1
 0 0 l 1,16,-1
630 125 m 1,44,-1
 745 125 l 1,45,-1
 745 250 l 1,46,-1
 630 250 l 1,47,-1
 630 125 l 1,44,-1
996 125 m 1,48,-1
 996 250 l 1,49,-1
 878 250 l 1,50,-1
 878 125 l 1,51,-1
 996 125 l 1,48,-1
1000 250 m 1,52,-1
 1125 250 l 1,53,-1
 1125 125 l 1,54,-1
 1000 125 l 1,55,-1
 1000 0 l 1,56,-1
 875 0 l 1,57,-1
 875 125 l 1,58,-1
 750 125 l 1,59,-1
 750 0 l 1,60,-1
 625 0 l 1,61,-1
 625 125 l 1,62,-1
 500 125 l 1,63,-1
 500 250 l 1,64,-1
 625 250 l 1,65,-1
 625 375 l 1,66,-1
 750 375 l 1,67,-1
 750 250 l 1,68,-1
 875 250 l 1,69,-1
 875 375 l 1,70,-1
 1000 375 l 1,71,-1
 1000 250 l 1,52,-1
EndSplineSet
Validated: 5
EndChar

StartChar: quotedblbase
Encoding: 233 8222 230
Width: 625
GlyphClass: 1
Flags: W
LayerCount: 2
Fore
SplineSet
375 625 m 1,0,-1
 375 750 l 1,1,-1
 250 750 l 1,2,-1
 250 625 l 1,3,-1
 375 625 l 1,0,-1
125 625 m 1,4,-1
 125 750 l 1,5,-1
 250 750 l 1,6,-1
 250 875 l 1,7,-1
 375 875 l 1,8,-1
 375 750 l 1,9,-1
 500 750 l 1,10,-1
 500 625 l 1,11,-1
 125 625 l 1,4,-1
EndSplineSet
Validated: 5
EndChar

StartChar: dagger
Encoding: 234 8224 231
Width: 500
GlyphClass: 1
Flags: W
LayerCount: 2
Fore
SplineSet
375 625 m 1,0,-1
 375 500 l 1,1,-1
 250 500 l 1,2,-1
 250 125 l 1,3,-1
 125 125 l 1,4,-1
 125 500 l 1,5,-1
 0 500 l 1,6,-1
 0 625 l 1,7,-1
 125 625 l 1,8,-1
 125 750 l 1,9,-1
 250 750 l 1,10,-1
 250 625 l 1,11,-1
 375 625 l 1,0,-1
EndSplineSet
Validated: 1
EndChar

StartChar: daggerdbl
Encoding: 235 8225 232
Width: 875
GlyphClass: 1
Flags: W
LayerCount: 2
Fore
SplineSet
250 1000 m 1,0,-1
 375 1000 l 1,1,-1
 375 1125 l 1,2,-1
 500 1125 l 1,3,-1
 500 1250 l 1,4,-1
 375 1250 l 1,5,-1
 375 1125 l 1,6,-1
 250 1125 l 1,7,-1
 250 1000 l 1,0,-1
625 875 m 1,8,-1
 750 875 l 1,9,-1
 750 125 l 1,10,-1
 625 125 l 1,11,-1
 625 0 l 1,12,-1
 125 0 l 1,13,-1
 125 125 l 1,14,-1
 0 125 l 1,15,-1
 0 875 l 1,16,-1
 125 875 l 1,17,-1
 125 125 l 1,18,-1
 625 125 l 1,19,-1
 625 875 l 1,8,-1
EndSplineSet
Validated: 5
EndChar

StartChar: bullet
Encoding: 236 8226 233
Width: 500
GlyphClass: 1
Flags: W
LayerCount: 2
Fore
SplineSet
375 500 m 1,0,-1
 375 375 l 1,1,-1
 250 375 l 1,2,-1
 250 250 l 1,3,-1
 125 250 l 1,4,-1
 125 375 l 1,5,-1
 0 375 l 1,6,-1
 0 500 l 1,7,-1
 125 500 l 1,8,-1
 125 625 l 1,9,-1
 250 625 l 1,10,-1
 250 500 l 1,11,-1
 375 500 l 1,0,-1
EndSplineSet
Validated: 1
EndChar

StartChar: ellipsis
Encoding: 237 8230 234
Width: 750
GlyphClass: 1
Flags: W
LayerCount: 2
Fore
SplineSet
0 501 m 1,0,-1
 624 501 l 1,1,-1
 624 376 l 1,2,-1
 0 376 l 1,3,-1
 0 501 l 1,0,-1
250 126 m 1,4,-1
 250 251 l 1,5,-1
 374 251 l 1,6,-1
 374 126 l 1,7,-1
 250 126 l 1,4,-1
374 750 m 1,8,-1
 374 625 l 1,9,-1
 250 625 l 1,10,-1
 250 750 l 1,11,-1
 374 750 l 1,8,-1
EndSplineSet
Validated: 1
EndChar

StartChar: perthousand
Encoding: 238 8240 235
Width: 625
GlyphClass: 1
Flags: W
LayerCount: 2
Fore
SplineSet
375 875 m 1,0,-1
 500 875 l 1,1,-1
 500 750 l 1,2,-1
 375 750 l 1,3,-1
 375 625 l 1,4,-1
 250 625 l 1,5,-1
 250 750 l 1,6,-1
 125 750 l 1,7,-1
 125 625 l 1,8,-1
 0 625 l 1,9,-1
 0 750 l 1,10,-1
 125 750 l 1,11,-1
 125 875 l 1,12,-1
 250 875 l 1,13,-1
 250 750 l 1,14,-1
 375 750 l 1,15,-1
 375 875 l 1,0,-1
EndSplineSet
Validated: 5
EndChar

StartChar: guilsinglleft
Encoding: 239 8249 236
Width: 250
GlyphClass: 1
Flags: W
LayerCount: 2
Fore
SplineSet
0 0 m 1,0,-1
 0 875 l 1,1,-1
 125 875 l 1,2,-1
 125 0 l 1,3,-1
 0 0 l 1,0,-1
125 1000 m 1,4,-1
 0 1000 l 1,5,-1
 0 1125 l 1,6,-1
 -125 1125 l 1,7,-1
 -125 1250 l 1,8,-1
 0 1250 l 1,9,-1
 0 1125 l 1,10,-1
 125 1125 l 1,11,-1
 125 1000 l 1,4,-1
EndSplineSet
Validated: 5
EndChar

StartChar: guilsinglright
Encoding: 240 8250 237
Width: 875
GlyphClass: 1
Flags: W
LayerCount: 2
Fore
SplineSet
375 1000 m 1,0,-1
 500 1000 l 1,1,-1
 500 1125 l 1,2,-1
 625 1125 l 1,3,-1
 625 1250 l 1,4,-1
 500 1250 l 1,5,-1
 500 1125 l 1,6,-1
 375 1125 l 1,7,-1
 375 1000 l 1,0,-1
125 745 m 1,8,-1
 125 130 l 1,9,-1
 625 130 l 1,10,-1
 625 745 l 1,11,-1
 125 745 l 1,8,-1
625 875 m 1,12,-1
 625 750 l 1,13,-1
 750 750 l 1,14,-1
 750 125 l 1,15,-1
 625 125 l 1,16,-1
 625 0 l 1,17,-1
 125 0 l 1,18,-1
 125 125 l 1,19,-1
 0 125 l 1,20,-1
 0 750 l 1,21,-1
 125 750 l 1,22,-1
 125 875 l 1,23,-1
 625 875 l 1,12,-1
EndSplineSet
Validated: 5
EndChar

StartChar: fraction
Encoding: 241 8260 238
Width: 250
GlyphClass: 1
Flags: W
LayerCount: 2
Fore
SplineSet
0 0 m 1,0,-1
 0 875 l 1,1,-1
 125 875 l 1,2,-1
 125 0 l 1,3,-1
 0 0 l 1,0,-1
250 1000 m 1,4,-1
 125 1000 l 1,5,-1
 125 1125 l 1,6,-1
 0 1125 l 1,7,-1
 0 1000 l 1,8,-1
 -125 1000 l 1,9,-1
 -125 1125 l 1,10,-1
 0 1125 l 1,11,-1
 0 1250 l 1,12,-1
 125 1250 l 1,13,-1
 125 1125 l 1,14,-1
 250 1125 l 1,15,-1
 250 1000 l 1,4,-1
EndSplineSet
Validated: 5
EndChar

StartChar: franc
Encoding: 242 8355 239
Width: 625
GlyphClass: 1
Flags: W
LayerCount: 2
Fore
SplineSet
125 250 m 1,0,-1
 125 0 l 1,1,-1
 0 0 l 1,2,-1
 0 250 l 1,3,-1
 125 250 l 1,4,-1
 125 500 l 1,5,-1
 250 500 l 1,6,-1
 250 750 l 1,7,-1
 375 750 l 1,8,-1
 375 1000 l 1,9,-1
 500 1000 l 1,10,-1
 500 750 l 1,11,-1
 375 750 l 1,12,-1
 375 500 l 1,13,-1
 250 500 l 1,14,-1
 250 250 l 1,15,-1
 125 250 l 1,0,-1
EndSplineSet
Validated: 5
EndChar

StartChar: trademark
Encoding: 243 8482 240
Width: 1125
GlyphClass: 1
Flags: W
LayerCount: 2
Fore
SplineSet
750 875 m 1,0,-1
 875 875 l 1,1,-1
 875 750 l 1,2,-1
 1000 750 l 1,3,-1
 1000 500 l 1,4,-1
 875 500 l 1,5,-1
 875 750 l 1,6,-1
 750 750 l 1,7,-1
 750 500 l 1,8,-1
 625 500 l 1,9,-1
 625 750 l 1,10,-1
 500 750 l 1,11,-1
 500 500 l 1,12,-1
 375 500 l 1,13,-1
 375 750 l 1,14,-1
 250 750 l 1,15,-1
 250 500 l 1,16,-1
 125 500 l 1,17,-1
 125 750 l 1,18,-1
 0 750 l 1,19,-1
 0 875 l 1,20,-1
 375 875 l 1,21,-1
 375 750 l 1,22,-1
 500 750 l 1,23,-1
 500 875 l 1,24,-1
 625 875 l 1,25,-1
 625 750 l 1,26,-1
 750 750 l 1,27,-1
 750 875 l 1,0,-1
EndSplineSet
Validated: 5
EndChar

StartChar: partialdiff
Encoding: 245 8706 241
Width: 750
GlyphClass: 1
Flags: W
LayerCount: 2
Fore
SplineSet
375 875 m 1,0,-1
 375 750 l 1,1,-1
 250 750 l 1,2,-1
 250 875 l 1,3,-1
 375 875 l 1,0,-1
250 500 m 1,4,-1
 250 375 l 1,5,-1
 125 375 l 1,6,-1
 125 125 l 1,7,-1
 500 125 l 1,8,-1
 500 250 l 1,9,-1
 625 250 l 1,10,-1
 625 125 l 1,11,-1
 500 125 l 1,12,-1
 500 0 l 1,13,-1
 125 0 l 1,14,-1
 125 125 l 1,15,-1
 0 125 l 1,16,-1
 0 375 l 1,17,-1
 125 375 l 1,18,-1
 125 500 l 1,19,-1
 250 500 l 1,20,-1
 250 625 l 1,21,-1
 375 625 l 1,22,-1
 375 500 l 1,23,-1
 250 500 l 1,4,-1
EndSplineSet
Validated: 5
EndChar

StartChar: product
Encoding: 247 8719 242
Width: 750
GlyphClass: 1
Flags: W
LayerCount: 2
Fore
SplineSet
0 500 m 1,0,-1
 625 500 l 1,1,-1
 625 125 l 1,2,-1
 500 125 l 1,3,-1
 500 375 l 1,4,-1
 0 375 l 1,5,-1
 0 500 l 1,0,-1
EndSplineSet
Validated: 1
EndChar

StartChar: summation
Encoding: 248 8721 243
Width: 500
GlyphClass: 1
Flags: W
LayerCount: 2
Fore
SplineSet
125 875 m 1,0,-1
 250 875 l 1,1,-1
 250 750 l 1,2,-1
 125 750 l 1,3,-1
 125 875 l 1,0,-1
125 0 m 1,4,-1
 125 625 l 1,5,-1
 250 625 l 1,6,-1
 250 0 l 1,7,-1
 125 0 l 1,4,-1
EndSplineSet
Validated: 1
EndChar

StartChar: uni00AD
Encoding: 108 173 244
AltUni2: 002212.ffffffff.0 002212.ffffffff.0
Width: 750
GlyphClass: 1
Flags: W
LayerCount: 2
Fore
SplineSet
625 875 m 1,0,-1
 625 750 l 1,1,-1
 500 750 l 1,2,-1
 500 0 l 1,3,-1
 375 0 l 1,4,-1
 375 750 l 1,5,-1
 250 750 l 1,6,-1
 250 0 l 1,7,-1
 125 0 l 1,8,-1
 125 750 l 1,9,-1
 0 750 l 1,10,-1
 0 875 l 1,11,-1
 625 875 l 1,0,-1
EndSplineSet
Validated: 1
EndChar

StartChar: periodcentered
Encoding: 118 183 245
AltUni2: 002219.ffffffff.0 002219.ffffffff.0
Width: 875
GlyphClass: 1
Flags: W
LayerCount: 2
Fore
SplineSet
625 875 m 1,0,-1
 750 875 l 1,1,-1
 750 125 l 1,2,-1
 625 125 l 1,3,-1
 625 0 l 1,4,-1
 125 0 l 1,5,-1
 125 125 l 1,6,-1
 0 125 l 1,7,-1
 0 875 l 1,8,-1
 125 875 l 1,9,-1
 125 125 l 1,10,-1
 625 125 l 1,11,-1
 625 875 l 1,0,-1
500 1125 m 1,12,-1
 250 1125 l 1,13,-1
 250 1000 l 1,14,-1
 125 1000 l 1,15,-1
 125 1125 l 1,16,-1
 250 1125 l 1,17,-1
 250 1250 l 1,18,-1
 500 1250 l 1,19,-1
 500 1125 l 1,20,-1
 625 1125 l 1,21,-1
 625 1000 l 1,22,-1
 500 1000 l 1,23,-1
 500 1125 l 1,12,-1
EndSplineSet
Validated: 5
EndChar

StartChar: radical
Encoding: 251 8730 246
Width: 500
GlyphClass: 1
Flags: W
LayerCount: 2
Fore
SplineSet
0 500 m 1,0,-1
 375 500 l 1,1,-1
 375 375 l 1,2,-1
 0 375 l 1,3,-1
 0 500 l 1,0,-1
EndSplineSet
Validated: 1
EndChar

StartChar: infinity
Encoding: 252 8734 247
Width: 750
GlyphClass: 1
Flags: W
LayerCount: 2
Fore
SplineSet
625 875 m 1,0,-1
 625 625 l 1,1,-1
 500 625 l 1,2,-1
 500 500 l 1,3,-1
 625 500 l 1,4,-1
 625 375 l 1,5,-1
 375 375 l 1,6,-1
 375 250 l 1,7,-1
 625 250 l 1,8,-1
 625 125 l 1,9,-1
 375 125 l 1,10,-1
 375 0 l 1,11,-1
 251 0 l 1,12,-1
 251 125 l 1,13,-1
 0 125 l 1,14,-1
 0 250 l 1,15,-1
 251 250 l 1,16,-1
 251 375 l 1,17,-1
 0 375 l 1,18,-1
 0 500 l 1,19,-1
 125 500 l 1,20,-1
 125 625 l 1,21,-1
 0 625 l 1,22,-1
 0 875 l 1,23,-1
 125 875 l 1,24,-1
 125 625 l 1,25,-1
 251 625 l 1,26,-1
 251 500 l 1,27,-1
 375 500 l 1,28,-1
 375 625 l 1,29,-1
 500 625 l 1,30,-1
 500 875 l 1,31,-1
 625 875 l 1,0,-1
EndSplineSet
Validated: 5
EndChar

StartChar: integral
Encoding: 253 8747 248
Width: 750
GlyphClass: 1
Flags: W
LayerCount: 2
Fore
SplineSet
125 500 m 1,0,-1
 125 625 l 1,1,-1
 250 625 l 1,2,-1
 250 500 l 1,3,-1
 125 500 l 1,4,-1
 125 375 l 1,5,-1
 250 375 l 1,6,-1
 250 250 l 1,7,-1
 125 250 l 1,8,-1
 125 375 l 1,9,-1
 0 375 l 1,10,-1
 0 500 l 1,11,-1
 125 500 l 1,0,-1
500 500 m 1,12,-1
 500 625 l 1,13,-1
 625 625 l 1,14,-1
 625 500 l 1,15,-1
 500 500 l 1,16,-1
 500 375 l 1,17,-1
 625 375 l 1,18,-1
 625 250 l 1,19,-1
 500 250 l 1,20,-1
 500 375 l 1,21,-1
 375 375 l 1,22,-1
 375 500 l 1,23,-1
 500 500 l 1,12,-1
EndSplineSet
Validated: 5
EndChar

StartChar: approxequal
Encoding: 254 8776 249
AltUni2: 0022f2.ffffffff.0 0022f2.ffffffff.0
Width: 625
GlyphClass: 1
Flags: W
LayerCount: 2
Fore
SplineSet
250 875 m 1,0,-1
 250 750 l 1,1,-1
 375 750 l 1,2,-1
 375 875 l 1,3,-1
 500 875 l 1,4,-1
 500 750 l 1,5,-1
 375 750 l 1,6,-1
 375 500 l 1,7,-1
 250 500 l 1,8,-1
 250 750 l 1,9,-1
 125 750 l 1,10,-1
 125 500 l 1,11,-1
 0 500 l 1,12,-1
 0 750 l 1,13,-1
 125 750 l 1,14,-1
 125 875 l 1,15,-1
 250 875 l 1,0,-1
EndSplineSet
Validated: 5
EndChar

StartChar: notequal
Encoding: 255 8800 250
Width: 1250
GlyphClass: 1
Flags: W
LayerCount: 2
Fore
SplineSet
130 750 m 1,0,-1
 130 500 l 1,1,-1
 500 500 l 1,2,-1
 500 750 l 1,3,-1
 130 750 l 1,0,-1
1125 750 m 1,4,-1
 625 750 l 1,5,-1
 625 500 l 1,6,-1
 1000 500 l 1,7,-1
 1000 375 l 1,8,-1
 625 375 l 1,9,-1
 625 125 l 1,10,-1
 1125 125 l 1,11,-1
 1125 0 l 1,12,-1
 500 0 l 1,13,-1
 500 375 l 1,14,-1
 125 375 l 1,15,-1
 125 0 l 1,16,-1
 0 0 l 1,17,-1
 0 750 l 1,18,-1
 125 750 l 1,19,-1
 125 875 l 1,20,-1
 1125 875 l 1,21,-1
 1125 750 l 1,4,-1
EndSplineSet
Validated: 1
EndChar

StartChar: lessequal
Encoding: 256 8804 251
Width: 750
GlyphClass: 1
Flags: W
LayerCount: 2
Fore
SplineSet
0 0 m 1,0,-1
 0 125 l 1,1,-1
 625 125 l 1,2,-1
 625 0 l 1,3,-1
 0 0 l 1,0,-1
130 375 m 1,4,-1
 501 375 l 1,5,-1
 501 750 l 1,6,-1
 130 750 l 1,7,-1
 130 375 l 1,4,-1
125 750 m 1,8,-1
 125 875 l 1,9,-1
 626 875 l 1,10,-1
 626 250 l 1,11,-1
 125 250 l 1,12,-1
 125 375 l 1,13,-1
 0 375 l 1,14,-1
 0 750 l 1,15,-1
 125 750 l 1,8,-1
EndSplineSet
Validated: 1
EndChar

StartChar: greaterequal
Encoding: 257 8805 252
Width: 750
GlyphClass: 1
Flags: W
LayerCount: 2
Fore
SplineSet
0 0 m 1,0,-1
 0 125 l 1,1,-1
 625 125 l 1,2,-1
 625 0 l 1,3,-1
 0 0 l 1,0,-1
125 745 m 1,4,-1
 125 380 l 1,5,-1
 501 380 l 1,6,-1
 501 745 l 1,7,-1
 125 745 l 1,4,-1
501 875 m 1,8,-1
 501 750 l 1,9,-1
 626 750 l 1,10,-1
 626 375 l 1,11,-1
 501 375 l 1,12,-1
 501 250 l 1,13,-1
 125 250 l 1,14,-1
 125 375 l 1,15,-1
 0 375 l 1,16,-1
 0 750 l 1,17,-1
 125 750 l 1,18,-1
 125 875 l 1,19,-1
 501 875 l 1,8,-1
EndSplineSet
Validated: 1
EndChar

StartChar: lozenge
Encoding: 259 9674 253
Width: 875
GlyphClass: 1
Flags: W
LayerCount: 2
Fore
SplineSet
125 1125 m 1,0,-1
 250 1125 l 1,1,-1
 250 1000 l 1,2,-1
 125 1000 l 1,3,-1
 125 1125 l 1,0,-1
500 1125 m 1,4,-1
 625 1125 l 1,5,-1
 625 1000 l 1,6,-1
 500 1000 l 1,7,-1
 500 1125 l 1,4,-1
750 750 m 1,8,-1
 125 750 l 1,9,-1
 125 500 l 1,10,-1
 625 500 l 1,11,-1
 625 375 l 1,12,-1
 125 375 l 1,13,-1
 125 125 l 1,14,-1
 750 125 l 1,15,-1
 750 0 l 1,16,-1
 0 0 l 1,17,-1
 0 875 l 1,18,-1
 750 875 l 1,19,-1
 750 750 l 1,8,-1
EndSplineSet
Validated: 1
EndChar

StartChar: uniF001
Encoding: 261 61441 254
Width: 875
GlyphClass: 1
Flags: W
LayerCount: 2
Fore
SplineSet
125 745 m 1,0,-1
 125 130 l 1,1,-1
 625 130 l 1,2,-1
 625 745 l 1,3,-1
 125 745 l 1,0,-1
625 875 m 1,4,-1
 625 750 l 1,5,-1
 750 750 l 1,6,-1
 750 125 l 1,7,-1
 625 125 l 1,8,-1
 625 0 l 1,9,-1
 125 0 l 1,10,-1
 125 125 l 1,11,-1
 0 125 l 1,12,-1
 0 750 l 1,13,-1
 125 750 l 1,14,-1
 125 875 l 1,15,-1
 625 875 l 1,4,-1
500 1125 m 1,16,-1
 250 1125 l 1,17,-1
 250 1000 l 1,18,-1
 125 1000 l 1,19,-1
 125 1125 l 1,20,-1
 250 1125 l 1,21,-1
 250 1250 l 1,22,-1
 500 1250 l 1,23,-1
 500 1125 l 1,24,-1
 625 1125 l 1,25,-1
 625 1000 l 1,26,-1
 500 1000 l 1,27,-1
 500 1125 l 1,16,-1
EndSplineSet
Validated: 5
EndChar

StartChar: uniF002
Encoding: 262 61442 255
Width: 875
GlyphClass: 1
Flags: W
LayerCount: 2
Fore
SplineSet
500 1000 m 1,0,-1
 375 1000 l 1,1,-1
 375 1125 l 1,2,-1
 250 1125 l 1,3,-1
 250 1250 l 1,4,-1
 375 1250 l 1,5,-1
 375 1125 l 1,6,-1
 500 1125 l 1,7,-1
 500 1000 l 1,0,-1
125 745 m 1,8,-1
 125 130 l 1,9,-1
 625 130 l 1,10,-1
 625 745 l 1,11,-1
 125 745 l 1,8,-1
625 875 m 1,12,-1
 625 750 l 1,13,-1
 750 750 l 1,14,-1
 750 125 l 1,15,-1
 625 125 l 1,16,-1
 625 0 l 1,17,-1
 125 0 l 1,18,-1
 125 125 l 1,19,-1
 0 125 l 1,20,-1
 0 750 l 1,21,-1
 125 750 l 1,22,-1
 125 875 l 1,23,-1
 625 875 l 1,12,-1
EndSplineSet
Validated: 5
EndChar

StartChar: uniF000
Encoding: 260 61440 260
Width: 625
GlyphClass: 1
Flags: W
LayerCount: 2
Fore
SplineSet
0 500 m 1,0,-1
 500 500 l 1,1,-1
 500 375 l 1,2,-1
 0 375 l 1,3,-1
 0 500 l 1,0,-1
EndSplineSet
Validated: 1
EndChar

StartChar: uni00A0
Encoding: 95 160 261
Width: 875
GlyphClass: 1
Flags: W
LayerCount: 2
Fore
SplineSet
750 625 m 1,0,-1
 750 375 l 1,1,-1
 625 375 l 1,2,-1
 625 125 l 1,3,-1
 500 125 l 1,4,-1
 500 -125 l 1,5,-1
 375 -125 l 1,6,-1
 375 -250 l 1,7,-1
 125 -250 l 1,8,-1
 125 -125 l 1,9,-1
 250 -125 l 1,10,-1
 250 125 l 1,11,-1
 125 125 l 1,12,-1
 125 375 l 1,13,-1
 0 375 l 1,14,-1
 0 625 l 1,15,-1
 250 625 l 1,16,-1
 250 375 l 1,17,-1
 500 375 l 1,18,-1
 500 625 l 1,19,-1
 750 625 l 1,0,-1
125 875 m 1,20,-1
 250 875 l 1,21,-1
 250 750 l 1,22,-1
 125 750 l 1,23,-1
 125 875 l 1,20,-1
375 875 m 1,24,-1
 500 875 l 1,25,-1
 500 750 l 1,26,-1
 375 750 l 1,27,-1
 375 875 l 1,24,-1
EndSplineSet
Validated: 1
EndChar
